<?xml version="1.0" encoding="UTF-8" standalone="no"?>
<!-- Created with Inkscape (http://www.inkscape.org/) -->

<svg
   width="200"
   height="100"
   viewBox="0 0 52.916665 26.458333"
   version="1.1"
   id="svg1"
   xml:space="preserve"
   inkscape:version="1.3.2 (091e20e, 2023-11-25, custom)"
   sodipodi:docname="кухня.svg"
   xmlns:inkscape="http://www.inkscape.org/namespaces/inkscape"
   xmlns:sodipodi="http://sodipodi.sourceforge.net/DTD/sodipodi-0.dtd"
   xmlns="http://www.w3.org/2000/svg"
   xmlns:svg="http://www.w3.org/2000/svg"><sodipodi:namedview
     id="namedview1"
     pagecolor="#ffffff"
     bordercolor="#000000"
     borderopacity="0.25"
     inkscape:showpageshadow="2"
     inkscape:pageopacity="0.0"
     inkscape:pagecheckerboard="0"
     inkscape:deskcolor="#d1d1d1"
     inkscape:document-units="mm"
     inkscape:zoom="2.9113075"
     inkscape:cx="67.151958"
     inkscape:cy="80.891489"
     inkscape:window-width="1920"
     inkscape:window-height="1013"
     inkscape:window-x="-9"
     inkscape:window-y="-9"
     inkscape:window-maximized="1"
     inkscape:current-layer="layer1" /><defs
     id="defs1" /><g
     inkscape:label="Слой 1"
     inkscape:groupmode="layer"
     id="layer1"><g
       id="g6"
       transform="matrix(2.1758933,0,0,2.1758933,-16.730419,-27.053444)"><path
         style="opacity:1;fill:none;stroke:#000000;stroke-width:0.926;stroke-linecap:round;stroke-linejoin:round;stroke-miterlimit:0;stroke-dasharray:none;paint-order:markers fill stroke"
         d="m 8.7718671,19.696537 22.4598349,-0.03213 -0.03213,1.445912 -7.00464,0.03213 c 0.02709,0.715501 -0.07844,1.413319 -1.317387,1.960015 l -12.595502,0.03213 C 9.4284544,22.896529 8.9078706,22.408709 8.7397379,21.656551 Z"
         id="path1"
         sodipodi:nodetypes="cccccccc" /><path
         style="opacity:1;fill:none;stroke:#000000;stroke-width:0.925999;stroke-linecap:round;stroke-linejoin:round;stroke-miterlimit:0;stroke-dasharray:none;paint-order:markers fill stroke"
         d="m 24.208498,19.743956 -0.01136,1.590422"
         id="path2"
         sodipodi:nodetypes="cc" /><path
         style="opacity:1;fill:none;stroke:#000000;stroke-width:0.925999;stroke-linecap:round;stroke-linejoin:round;stroke-miterlimit:0;stroke-dasharray:none;paint-order:markers fill stroke"
         d="m 12.8597,17.728448 c 0,0 0.894749,-0.821324 0.886092,-1.363219 -0.0083,-0.516762 -0.879773,-0.755548 -0.886092,-1.272338 -0.0062,-0.508286 0.840652,-1.272338 0.840652,-1.272338"
         id="path3"
         sodipodi:nodetypes="cssc" /><path
         style="opacity:1;fill:none;stroke:#000000;stroke-width:0.925999;stroke-linecap:round;stroke-linejoin:round;stroke-miterlimit:0;stroke-dasharray:none;paint-order:markers fill stroke"
         d="m 14.976368,17.728448 c 0,0 0.894749,-0.821324 0.886092,-1.363219 -0.0083,-0.516762 -0.879773,-0.755548 -0.886092,-1.272338 -0.0062,-0.508286 0.840652,-1.272338 0.840652,-1.272338"
         id="path4"
         sodipodi:nodetypes="cssc" /><path
         style="opacity:1;fill:none;stroke:#000000;stroke-width:0.925999;stroke-linecap:round;stroke-linejoin:round;stroke-miterlimit:0;stroke-dasharray:none;paint-order:markers fill stroke"
         d="m 17.093036,17.728448 c 0,0 0.894749,-0.821324 0.886092,-1.363219 -0.0083,-0.516762 -0.879773,-0.755548 -0.886092,-1.272338 -0.0062,-0.508286 0.840652,-1.272338 0.840652,-1.272338"
         id="path5"
         sodipodi:nodetypes="cssc" /><path
         style="opacity:1;fill:none;stroke:#000000;stroke-width:0.925999;stroke-linecap:round;stroke-linejoin:round;stroke-miterlimit:0;stroke-dasharray:none;paint-order:markers fill stroke"
         d="m 19.209704,17.728448 c 0,0 0.894749,-0.821324 0.886092,-1.363219 -0.0083,-0.516762 -0.879773,-0.755548 -0.886092,-1.272338 -0.0062,-0.508286 0.840652,-1.272338 0.840652,-1.272338"
         id="path6"
         sodipodi:nodetypes="cssc" /></g></g></svg>
