<?xml version="1.0" encoding="UTF-8" standalone="no"?>
<!-- Created with Inkscape (http://www.inkscape.org/) -->

<svg
   width="200"
   height="200"
   viewBox="0 0 52.916665 52.916651"
   version="1.1"
   id="svg1"
   sodipodi:docname="лого.svg"
   inkscape:version="1.3.2 (091e20e, 2023-11-25, custom)"
   xmlns:inkscape="http://www.inkscape.org/namespaces/inkscape"
   xmlns:sodipodi="http://sodipodi.sourceforge.net/DTD/sodipodi-0.dtd"
   xmlns="http://www.w3.org/2000/svg"
   xmlns:svg="http://www.w3.org/2000/svg">
  <sodipodi:namedview
     id="namedview1"
     pagecolor="#ffffff"
     bordercolor="#000000"
     borderopacity="0.25"
     inkscape:showpageshadow="2"
     inkscape:pageopacity="0.0"
     inkscape:pagecheckerboard="0"
     inkscape:deskcolor="#d1d1d1"
     inkscape:document-units="mm"
     showguides="true"
     inkscape:zoom="2.8284272"
     inkscape:cx="198.16667"
     inkscape:cy="95.282636"
     inkscape:window-width="1920"
     inkscape:window-height="1013"
     inkscape:window-x="-9"
     inkscape:window-y="-9"
     inkscape:window-maximized="1"
     inkscape:current-layer="layer1" />
  <defs
     id="defs1">
    <marker
       style="overflow:visible"
       id="marker69"
       refX="-1"
       refY="0"
       orient="auto-start-reverse"
       inkscape:stockid="Wide, heavy arrow"
       markerWidth="2"
       markerHeight="2"
       viewBox="0 0 1 1"
       inkscape:isstock="true"
       inkscape:collect="always"
       preserveAspectRatio="xMidYMid">
      <path
         style="fill:context-stroke;fill-rule:evenodd;stroke:none"
         d="m 1,0 -3,3 h -2 l 3,-3 -3,-3 h 2 z"
         id="path69" />
    </marker>
    <marker
       style="overflow:visible"
       id="marker41"
       refX="-1"
       refY="0"
       orient="auto-start-reverse"
       inkscape:stockid="Wide, heavy arrow"
       markerWidth="0.75"
       markerHeight="0.75"
       viewBox="0 0 1 1"
       inkscape:isstock="true"
       inkscape:collect="always"
       preserveAspectRatio="xMidYMid">
      <path
         style="fill:context-stroke;fill-rule:evenodd;stroke:none"
         d="m 1,0 -3,3 h -2 l 3,-3 -3,-3 h 2 z"
         id="path41" />
    </marker>
  </defs>
  <g
     inkscape:label="Слой 1"
     inkscape:groupmode="layer"
     id="layer1">
    <g
       id="g13"
       style="stroke-width:0.669085;stroke-linecap:square;stroke-linejoin:round;stroke-miterlimit:0;stroke-dasharray:none"
       transform="matrix(0.99187885,0,0,1.4188834,2.1665836,-5.8380207)" />
    <g
       id="g1">
      <path
         id="path15"
         style="fill:none;stroke:#000000;stroke-width:1.03146;stroke-linecap:square;stroke-linejoin:bevel;stroke-miterlimit:0;paint-order:markers fill stroke"
         d="M 18.629152,14.73847 5.1021404,7.7560173 C 4.8448494,7.6232082 4.5794941,7.9891159 4.5794941,8.2786653 V 26.084127 c 0,0.289548 0.265357,0.389837 0.5226463,0.522648 l 13.5270116,6.982456 c 0.748901,0.334657 0.537477,0.03383 0.522648,-0.522648 V 15.261118 c 0,-0.289547 -0.265355,-0.389837 -0.522648,-0.522648 z"
         sodipodi:nodetypes="sssssccss" />
      <path
         id="path16"
         style="fill:none;stroke:#000000;stroke-width:1.03146;stroke-linecap:square;stroke-linejoin:bevel;stroke-miterlimit:0;paint-order:markers fill stroke"
         d="M 19.699229,14.886771 46.81663,9.4338411 c 0.283865,-0.057084 0.522648,0.2331021 0.522648,0.522648 V 27.761953 c 0,0.289547 -0.238783,0.465565 -0.522648,0.522648 l -27.117401,5.452931 c -0.283865,0.05708 -0.522646,-0.2331 -0.522646,-0.522648 V 15.409419 c 0,-0.289548 0.238781,-0.465568 0.522646,-0.522648 z"
         sodipodi:nodetypes="sssssssss" />
      <path
         id="path17"
         style="fill:none;stroke:#000000;stroke-width:1.03146;stroke-linecap:square;stroke-linejoin:bevel;stroke-miterlimit:0;stroke-dasharray:none;paint-order:markers fill stroke"
         d="M 18.629152,33.352085 5.1021404,26.369627 c -0.257291,-0.132809 -0.5226463,0.233101 -0.5226463,0.522648 v 17.805472 c 0,0.289548 0.265357,0.389838 0.5226463,0.522648 l 13.5270116,6.982457 c 0.748901,0.334656 0.537477,0.03383 0.522648,-0.522648 V 33.874733 c 0,-0.289547 -0.265355,-0.389839 -0.522648,-0.522648 z"
         sodipodi:nodetypes="sssssccss" />
      <path
         id="path18"
         style="fill:none;stroke:#000000;stroke-width:1.03146;stroke-linecap:square;stroke-linejoin:bevel;stroke-miterlimit:0;paint-order:markers fill stroke"
         d="M 19.699229,33.500384 46.81663,28.047453 c 0.283865,-0.05708 0.522648,0.2331 0.522648,0.522648 v 17.80547 c 0,0.28955 -0.238783,0.465568 -0.522648,0.52265 l -27.117401,5.452931 c -0.283865,0.05708 -0.522646,-0.233102 -0.522646,-0.522649 V 34.023032 c 0,-0.289547 0.238781,-0.465566 0.522646,-0.522648 z"
         sodipodi:nodetypes="sssssssss" />
      <path
         id="path20"
         style="fill:none;stroke:#000000;stroke-width:0.503348;stroke-linecap:square;stroke-linejoin:bevel;stroke-miterlimit:0;stroke-dasharray:none;paint-order:markers fill stroke"
         d="M 14.082304,36.656492 8.7510452,33.904571 c -0.1013992,-0.05236 -0.2059735,0.09187 -0.2059735,0.205994 v 7.01748 c 0,0.114117 0.1045743,0.153635 0.2059735,0.205996 l 5.3312588,2.751921 c 0.295156,0.131887 0.211829,0.01331 0.205974,-0.205994 v -7.01749 c 0,-0.114117 -0.104574,-0.153635 -0.205974,-0.205976 z"
         sodipodi:nodetypes="sssssccss" />
      <path
         id="path21"
         style="fill:none;stroke:#000000;stroke-width:0.251673;stroke-linecap:square;stroke-linejoin:bevel;stroke-miterlimit:0;stroke-dasharray:none;paint-order:markers fill stroke"
         d="M 11.267939,35.133988 8.5761401,33.832183 c -0.066149,-0.03201 -0.1031916,0.09317 -0.1031916,0.208912 v 7.116813 c 0,0.115722 0.037402,0.176192 0.1031916,0.208913 l 2.7652039,1.375211 c 0.147865,0.133748 0.106111,0.01366 0.103192,-0.208912 v -7.116825 c 0,-0.115739 -0.05125,-0.156947 -0.103192,-0.208891 z"
         sodipodi:nodetypes="sssssccsss" />
      <g
         id="g25"
         transform="matrix(1.2682772,0,0,1.2682772,-9.442718,-25.561216)">
        <path
           id="path24"
           style="fill:none;stroke:#000000;stroke-width:0.396875;stroke-linecap:square;stroke-linejoin:bevel;stroke-miterlimit:0;stroke-dasharray:none;paint-order:markers fill stroke"
           d="m 18.548801,34.380564 -4.203544,-2.169811 c -0.07995,-0.04128 -0.162404,0.07244 -0.162404,0.162421 v 5.53308 c 0,0.08998 0.08246,0.121144 0.162404,0.162422 l 4.203544,2.169811 c 0.232722,0.103986 0.167021,0.01056 0.162405,-0.162421 v -5.533089 c 0,-0.08998 -0.08246,-0.121143 -0.162405,-0.162405 z"
           sodipodi:nodetypes="sssssccss" />
        <path
           id="path25"
           style="fill:none;stroke:#000000;stroke-width:0.198437;stroke-linecap:square;stroke-linejoin:bevel;stroke-miterlimit:0;stroke-dasharray:none;paint-order:markers fill stroke"
           d="M 16.329755,33.180114 14.20735,32.153678 c -0.05216,-0.02523 -0.08136,0.07346 -0.08136,0.16472 V 37.9298 c 0,0.09125 0.02949,0.138923 0.08136,0.164722 l 2.180283,1.084314 c 0.116588,0.105458 0.08367,0.01071 0.08136,-0.16472 v -5.611412 c 0,-0.09125 -0.0404,-0.123743 -0.08136,-0.164704 z"
           sodipodi:nodetypes="sssssccsss" />
      </g>
      <g
         id="g30"
         transform="matrix(1.2682772,0,0,1.2682772,-9.442718,-6.9475936)">
        <path
           id="path28"
           style="fill:none;stroke:#000000;stroke-width:0.198437;stroke-linecap:square;stroke-linejoin:bevel;stroke-miterlimit:0;stroke-dasharray:none;paint-order:markers fill stroke"
           d="m 32.116768,34.189884 -2.992275,0.587028 c -0.04753,0.0093 -0.187709,0.07818 -0.186711,0.175283 l 0.06615,6.434276 c 9.98e-4,0.09709 0.06563,0.196925 0.186711,0.175285 l 3.125099,-0.558511 c 0.267556,-0.03709 0.234706,-0.144777 0.186711,-0.175283 l -0.06615,-6.401214 c 0,0 -0.09272,-0.131679 -0.186711,-0.175267 z"
           sodipodi:nodetypes="ssssscccss" />
        <path
           id="path29"
           style="fill:none;stroke:#000000;stroke-width:0.396875;stroke-linecap:square;stroke-linejoin:bevel;stroke-miterlimit:0;stroke-dasharray:none;paint-order:markers fill stroke"
           d="m 29.178961,34.794231 9.726597,-1.955883 c 0.101817,-0.02047 0.187465,0.08361 0.187465,0.187466 v 6.386549 c 0,0.103857 -0.08565,0.166992 -0.187465,0.187466 l -9.726597,1.955883 c -0.101817,0.02047 -0.187464,-0.08361 -0.187464,-0.187466 v -6.38655 c 0,-0.103856 0.08565,-0.166991 0.187464,-0.187465 z"
           sodipodi:nodetypes="sssssssss" />
        <path
           id="path30"
           style="fill:none;stroke:#000000;stroke-width:0.198437;stroke-linecap:square;stroke-linejoin:bevel;stroke-miterlimit:0;stroke-dasharray:none;paint-order:markers fill stroke"
           d="m 38.782484,32.754393 -2.992275,0.587028 c -0.04753,0.0093 -0.187873,0.07818 -0.186711,0.175283 l 0.07784,6.504434 c 0.0012,0.09709 0.06563,0.196924 0.186711,0.175285 l 3.125099,-0.558511 c 0.267556,-0.03709 0.234706,-0.144777 0.186711,-0.175283 l -0.07784,-6.471372 c 0,0 -0.09272,-0.131679 -0.186711,-0.175267 z"
           sodipodi:nodetypes="ssssscccss" />
      </g>
      <g
         id="g36"
         transform="matrix(1.2682772,0,0,1.2682772,-9.442718,-25.561216)">
        <path
           id="path34"
           style="fill:none;stroke:#000000;stroke-width:0.198437;stroke-linecap:square;stroke-linejoin:bevel;stroke-miterlimit:0;stroke-dasharray:none;paint-order:markers fill stroke"
           d="m 32.116768,34.189884 -2.992275,0.587028 c -0.04753,0.0093 -0.187709,0.07818 -0.186711,0.175283 l 0.06615,6.434276 c 9.98e-4,0.09709 0.06563,0.196925 0.186711,0.175285 l 3.125099,-0.558511 c 0.267556,-0.03709 0.234706,-0.144777 0.186711,-0.175283 l -0.06615,-6.401214 c 0,0 -0.09272,-0.131679 -0.186711,-0.175267 z"
           sodipodi:nodetypes="ssssscccss" />
        <path
           id="path35"
           style="fill:none;stroke:#000000;stroke-width:0.396875;stroke-linecap:square;stroke-linejoin:bevel;stroke-miterlimit:0;stroke-dasharray:none;paint-order:markers fill stroke"
           d="m 29.178961,34.794231 9.726597,-1.955883 c 0.101817,-0.02047 0.187465,0.08361 0.187465,0.187466 v 6.386549 c 0,0.103857 -0.08565,0.166992 -0.187465,0.187466 l -9.726597,1.955883 c -0.101817,0.02047 -0.187464,-0.08361 -0.187464,-0.187466 v -6.38655 c 0,-0.103856 0.08565,-0.166991 0.187464,-0.187465 z"
           sodipodi:nodetypes="sssssssss" />
        <path
           id="path36"
           style="fill:none;stroke:#000000;stroke-width:0.198437;stroke-linecap:square;stroke-linejoin:bevel;stroke-miterlimit:0;stroke-dasharray:none;paint-order:markers fill stroke"
           d="m 38.782484,32.754393 -2.992275,0.587028 c -0.04753,0.0093 -0.187873,0.07818 -0.186711,0.175283 l 0.07784,6.504434 c 0.0012,0.09709 0.06563,0.196924 0.186711,0.175285 l 3.125099,-0.558511 c 0.267556,-0.03709 0.234706,-0.144777 0.186711,-0.175283 l -0.07784,-6.471372 c 0,0 -0.09272,-0.131679 -0.186711,-0.175267 z"
           sodipodi:nodetypes="ssssscccss" />
      </g>
      <path
         style="fill:none;stroke:#1f326b;stroke-width:2.01945;stroke-linecap:square;stroke-linejoin:bevel;stroke-miterlimit:0;stroke-dasharray:none;stroke-opacity:1;marker-end:url(#marker41);paint-order:markers fill stroke"
         d="M 19.171277,15.475156 19.305606,49.38119"
         id="path37"
         sodipodi:nodetypes="cc" />
      <path
         id="path26"
         style="fill:none;stroke:#000000;stroke-width:1.03146;stroke-linecap:square;stroke-linejoin:bevel;stroke-miterlimit:0;paint-order:markers fill stroke"
         d="M 46.94245,8.6144059 32.492636,0.98327465 C 32.2366,0.84805865 31.914647,0.71996278 31.634423,0.7928473 L 5.0723557,7.7014529 C 4.792132,7.7743442 4.8448511,7.6823168 5.1021438,7.8151258 L 18.62916,14.79758 c 0.748902,0.334657 0.663315,0.746913 0.648484,0.190428 L 47.297315,9.3887236 C 47.581248,9.331981 47.198494,8.7496201 46.94245,8.6144007 Z"
         sodipodi:nodetypes="sssssccss" />
    </g>
    <g
       id="g64"
       transform="translate(43.788542)">
      <g
         id="g43"
         transform="matrix(0.74296117,0,0,0.74296117,6.1049237,11.46891)">
        <path
           id="path42"
           style="fill:none;stroke:#000000;stroke-width:0.813277;stroke-linecap:square;stroke-linejoin:bevel;stroke-miterlimit:0;paint-order:markers fill stroke"
           d="m 22.977585,17.075388 21.381288,-4.299479 c 0.223819,-0.04501 0.412093,0.183793 0.412093,0.412093 v 14.0391 c 0,0.2283 -0.188274,0.367086 -0.412093,0.412093 l -21.381288,4.299479 c -0.223819,0.04501 -0.412092,-0.183793 -0.412092,-0.412093 v -14.0391 c 0,-0.2283 0.188273,-0.367086 0.412092,-0.412093 z"
           sodipodi:nodetypes="sssssssss" />
        <path
           id="path43"
           style="fill:none;stroke:#000000;stroke-width:0.813277;stroke-linecap:square;stroke-linejoin:bevel;stroke-miterlimit:0;paint-order:markers fill stroke"
           d="M 22.13386,16.958458 11.468202,11.452992 c -0.202867,-0.104717 -0.412092,0.183793 -0.412092,0.412093 v 14.0391 c 0,0.2283 0.209226,0.307376 0.412092,0.412093 l 10.665658,5.505466 c 0.590487,0.263867 0.423785,0.02668 0.412092,-0.412093 v -14.0391 c 0,-0.2283 -0.209225,-0.307376 -0.412092,-0.412093 z"
           sodipodi:nodetypes="sssssccss" />
      </g>
      <path
         id="path44"
         style="fill:none;stroke:#000000;stroke-width:0.604233;stroke-linecap:square;stroke-linejoin:bevel;stroke-miterlimit:0;paint-order:markers fill stroke"
         d="M 22.549522,13.060174 14.625352,8.9698293 C 14.47463,8.8920287 14.319184,9.1063801 14.319184,9.2759982 V 19.706499 c 0,0.169618 0.155447,0.228368 0.306168,0.306169 l 7.92417,4.090347 c 0.438709,0.196043 0.314856,0.01982 0.306169,-0.306169 V 13.366343 c 0,-0.169618 -0.155446,-0.228368 -0.306169,-0.306169 z"
         sodipodi:nodetypes="sssssccss" />
      <path
         id="path45"
         style="fill:none;stroke:#000000;stroke-width:0.604233;stroke-linecap:square;stroke-linejoin:bevel;stroke-miterlimit:0;paint-order:markers fill stroke"
         d="M 23.176377,13.147049 39.061844,9.9527046 c 0.166289,-0.033441 0.306169,0.1365514 0.306169,0.3061684 v 10.430502 c 0,0.169618 -0.13988,0.27273 -0.306169,0.306169 L 23.176377,24.18989 c -0.166289,0.03344 -0.306168,-0.136551 -0.306168,-0.306169 V 13.453218 c 0,-0.169618 0.139879,-0.272731 0.306168,-0.306169 z"
         sodipodi:nodetypes="sssssssss" />
      <path
         id="path46"
         style="fill:none;stroke:#000000;stroke-width:0.604233;stroke-linecap:square;stroke-linejoin:bevel;stroke-miterlimit:0;stroke-dasharray:none;paint-order:markers fill stroke"
         d="m 22.549522,35.076601 -7.92417,-4.090348 c -0.150722,-0.0778 -0.306168,0.136551 -0.306168,0.306169 v 10.430507 c 0,0.169618 0.155447,0.228368 0.306168,0.306169 l 7.92417,4.090347 c 0.438709,0.196043 0.314856,0.01982 0.306169,-0.306169 V 35.38277 c 0,-0.169618 -0.155446,-0.228369 -0.306169,-0.306169 z"
         sodipodi:nodetypes="sssssccss" />
      <path
         id="path47"
         style="fill:none;stroke:#000000;stroke-width:0.604233;stroke-linecap:square;stroke-linejoin:bevel;stroke-miterlimit:0;paint-order:markers fill stroke"
         d="m 23.176377,35.163475 15.885467,-3.194346 c 0.166289,-0.03344 0.306169,0.136551 0.306169,0.306169 v 10.430506 c 0,0.169619 -0.13988,0.272731 -0.306169,0.30617 L 23.176377,46.20632 c -0.166289,0.03344 -0.306168,-0.136552 -0.306168,-0.30617 V 35.469644 c 0,-0.169618 0.139879,-0.27273 0.306168,-0.306169 z"
         sodipodi:nodetypes="sssssssss" />
      <path
         id="path48"
         style="fill:none;stroke:#000000;stroke-width:0.294863;stroke-linecap:square;stroke-linejoin:bevel;stroke-miterlimit:0;stroke-dasharray:none;paint-order:markers fill stroke"
         d="m 19.885963,37.012334 -3.12307,-1.612085 c -0.0594,-0.03067 -0.12066,0.05382 -0.12066,0.120672 v 4.110864 c 0,0.06685 0.06126,0.09 0.12066,0.120673 l 3.12307,1.612085 c 0.172903,0.07726 0.12409,0.0078 0.12066,-0.120672 v -4.11087 c 0,-0.06685 -0.06126,-0.09 -0.12066,-0.120661 z"
         sodipodi:nodetypes="sssssccss" />
      <path
         id="path49"
         style="fill:none;stroke:#000000;stroke-width:0.147431;stroke-linecap:square;stroke-linejoin:bevel;stroke-miterlimit:0;stroke-dasharray:none;paint-order:markers fill stroke"
         d="m 18.237298,36.120446 -1.576865,-0.762602 c -0.03875,-0.01875 -0.06045,0.05458 -0.06045,0.122381 v 4.169054 c 0,0.06779 0.02191,0.103214 0.06045,0.122382 l 1.619866,0.805603 c 0.08662,0.07835 0.06216,0.008 0.06045,-0.122381 v -4.169061 c 0,-0.0678 -0.03002,-0.09194 -0.06045,-0.122369 z"
         sodipodi:nodetypes="sssssccsss" />
      <g
         id="g51"
         transform="matrix(0.74296117,0,0,0.74296117,6.1049237,0.46069952)">
        <path
           id="path50"
           style="fill:none;stroke:#000000;stroke-width:0.396875;stroke-linecap:square;stroke-linejoin:bevel;stroke-miterlimit:0;stroke-dasharray:none;paint-order:markers fill stroke"
           d="m 18.548801,34.380564 -4.203544,-2.169811 c -0.07995,-0.04128 -0.162404,0.07244 -0.162404,0.162421 v 5.53308 c 0,0.08998 0.08246,0.121144 0.162404,0.162422 l 4.203544,2.169811 c 0.232722,0.103986 0.167021,0.01056 0.162405,-0.162421 v -5.533089 c 0,-0.08998 -0.08246,-0.121143 -0.162405,-0.162405 z"
           sodipodi:nodetypes="sssssccss" />
        <path
           id="path51"
           style="fill:none;stroke:#000000;stroke-width:0.198437;stroke-linecap:square;stroke-linejoin:bevel;stroke-miterlimit:0;stroke-dasharray:none;paint-order:markers fill stroke"
           d="M 16.329755,33.180114 14.20735,32.153678 c -0.05216,-0.02523 -0.08136,0.07346 -0.08136,0.16472 V 37.9298 c 0,0.09125 0.02949,0.138923 0.08136,0.164722 l 2.180283,1.084314 c 0.116588,0.105458 0.08367,0.01071 0.08136,-0.16472 v -5.611412 c 0,-0.09125 -0.0404,-0.123743 -0.08136,-0.164704 z"
           sodipodi:nodetypes="sssssccsss" />
      </g>
      <g
         id="g53"
         transform="matrix(0.74296117,0,0,0.74296117,6.1049237,-10.547515)">
        <path
           id="path52"
           style="fill:none;stroke:#000000;stroke-width:0.396875;stroke-linecap:square;stroke-linejoin:bevel;stroke-miterlimit:0;stroke-dasharray:none;paint-order:markers fill stroke"
           d="m 18.548801,34.380564 -4.203544,-2.169811 c -0.07995,-0.04128 -0.162404,0.07244 -0.162404,0.162421 v 5.53308 c 0,0.08998 0.08246,0.121144 0.162404,0.162422 l 4.203544,2.169811 c 0.232722,0.103986 0.167021,0.01056 0.162405,-0.162421 v -5.533089 c 0,-0.08998 -0.08246,-0.121143 -0.162405,-0.162405 z"
           sodipodi:nodetypes="sssssccss" />
        <path
           id="path53"
           style="fill:none;stroke:#000000;stroke-width:0.198437;stroke-linecap:square;stroke-linejoin:bevel;stroke-miterlimit:0;stroke-dasharray:none;paint-order:markers fill stroke"
           d="M 16.329755,33.180114 14.20735,32.153678 c -0.05216,-0.02523 -0.08136,0.07346 -0.08136,0.16472 V 37.9298 c 0,0.09125 0.02949,0.138923 0.08136,0.164722 l 2.180283,1.084314 c 0.116588,0.105458 0.08367,0.01071 0.08136,-0.16472 v -5.611412 c 0,-0.09125 -0.0404,-0.123743 -0.08136,-0.164704 z"
           sodipodi:nodetypes="sssssccsss" />
      </g>
      <g
         id="g56"
         transform="matrix(0.74296117,0,0,0.74296117,6.1049237,11.46891)">
        <path
           id="path54"
           style="fill:none;stroke:#000000;stroke-width:0.198437;stroke-linecap:square;stroke-linejoin:bevel;stroke-miterlimit:0;stroke-dasharray:none;paint-order:markers fill stroke"
           d="m 32.116768,34.189884 -2.992275,0.587028 c -0.04753,0.0093 -0.187709,0.07818 -0.186711,0.175283 l 0.06615,6.434276 c 9.98e-4,0.09709 0.06563,0.196925 0.186711,0.175285 l 3.125099,-0.558511 c 0.267556,-0.03709 0.234706,-0.144777 0.186711,-0.175283 l -0.06615,-6.401214 c 0,0 -0.09272,-0.131679 -0.186711,-0.175267 z"
           sodipodi:nodetypes="ssssscccss" />
        <path
           id="path55"
           style="fill:none;stroke:#000000;stroke-width:0.396875;stroke-linecap:square;stroke-linejoin:bevel;stroke-miterlimit:0;stroke-dasharray:none;paint-order:markers fill stroke"
           d="m 29.178961,34.794231 9.726597,-1.955883 c 0.101817,-0.02047 0.187465,0.08361 0.187465,0.187466 v 6.386549 c 0,0.103857 -0.08565,0.166992 -0.187465,0.187466 l -9.726597,1.955883 c -0.101817,0.02047 -0.187464,-0.08361 -0.187464,-0.187466 v -6.38655 c 0,-0.103856 0.08565,-0.166991 0.187464,-0.187465 z"
           sodipodi:nodetypes="sssssssss" />
        <path
           id="path56"
           style="fill:none;stroke:#000000;stroke-width:0.198437;stroke-linecap:square;stroke-linejoin:bevel;stroke-miterlimit:0;stroke-dasharray:none;paint-order:markers fill stroke"
           d="m 38.782484,32.754393 -2.992275,0.587028 c -0.04753,0.0093 -0.187873,0.07818 -0.186711,0.175283 l 0.07784,6.504434 c 0.0012,0.09709 0.06563,0.196924 0.186711,0.175285 l 3.125099,-0.558511 c 0.267556,-0.03709 0.234706,-0.144777 0.186711,-0.175283 l -0.07784,-6.471372 c 0,0 -0.09272,-0.131679 -0.186711,-0.175267 z"
           sodipodi:nodetypes="ssssscccss" />
      </g>
      <g
         id="g59"
         transform="matrix(0.74296117,0,0,0.74296117,6.1049237,0.46069952)">
        <path
           id="path57"
           style="fill:none;stroke:#000000;stroke-width:0.198437;stroke-linecap:square;stroke-linejoin:bevel;stroke-miterlimit:0;stroke-dasharray:none;paint-order:markers fill stroke"
           d="m 32.116768,34.189884 -2.992275,0.587028 c -0.04753,0.0093 -0.187709,0.07818 -0.186711,0.175283 l 0.06615,6.434276 c 9.98e-4,0.09709 0.06563,0.196925 0.186711,0.175285 l 3.125099,-0.558511 c 0.267556,-0.03709 0.234706,-0.144777 0.186711,-0.175283 l -0.06615,-6.401214 c 0,0 -0.09272,-0.131679 -0.186711,-0.175267 z"
           sodipodi:nodetypes="ssssscccss" />
        <path
           id="path58"
           style="fill:none;stroke:#000000;stroke-width:0.396875;stroke-linecap:square;stroke-linejoin:bevel;stroke-miterlimit:0;stroke-dasharray:none;paint-order:markers fill stroke"
           d="m 29.178961,34.794231 9.726597,-1.955883 c 0.101817,-0.02047 0.187465,0.08361 0.187465,0.187466 v 6.386549 c 0,0.103857 -0.08565,0.166992 -0.187465,0.187466 l -9.726597,1.955883 c -0.101817,0.02047 -0.187464,-0.08361 -0.187464,-0.187466 v -6.38655 c 0,-0.103856 0.08565,-0.166991 0.187464,-0.187465 z"
           sodipodi:nodetypes="sssssssss" />
        <path
           id="path59"
           style="fill:none;stroke:#000000;stroke-width:0.198437;stroke-linecap:square;stroke-linejoin:bevel;stroke-miterlimit:0;stroke-dasharray:none;paint-order:markers fill stroke"
           d="m 38.782484,32.754393 -2.992275,0.587028 c -0.04753,0.0093 -0.187873,0.07818 -0.186711,0.175283 l 0.07784,6.504434 c 0.0012,0.09709 0.06563,0.196924 0.186711,0.175285 l 3.125099,-0.558511 c 0.267556,-0.03709 0.234706,-0.144777 0.186711,-0.175283 l -0.07784,-6.471372 c 0,0 -0.09272,-0.131679 -0.186711,-0.175267 z"
           sodipodi:nodetypes="ssssscccss" />
      </g>
      <g
         id="g62"
         transform="matrix(0.74296117,0,0,0.74296117,6.1049237,-10.547515)">
        <path
           id="path60"
           style="fill:none;stroke:#000000;stroke-width:0.198437;stroke-linecap:square;stroke-linejoin:bevel;stroke-miterlimit:0;stroke-dasharray:none;paint-order:markers fill stroke"
           d="m 32.116768,34.189884 -2.992275,0.587028 c -0.04753,0.0093 -0.187709,0.07818 -0.186711,0.175283 l 0.06615,6.434276 c 9.98e-4,0.09709 0.06563,0.196925 0.186711,0.175285 l 3.125099,-0.558511 c 0.267556,-0.03709 0.234706,-0.144777 0.186711,-0.175283 l -0.06615,-6.401214 c 0,0 -0.09272,-0.131679 -0.186711,-0.175267 z"
           sodipodi:nodetypes="ssssscccss" />
        <path
           id="path61"
           style="fill:none;stroke:#000000;stroke-width:0.396875;stroke-linecap:square;stroke-linejoin:bevel;stroke-miterlimit:0;stroke-dasharray:none;paint-order:markers fill stroke"
           d="m 29.178961,34.794231 9.726597,-1.955883 c 0.101817,-0.02047 0.187465,0.08361 0.187465,0.187466 v 6.386549 c 0,0.103857 -0.08565,0.166992 -0.187465,0.187466 l -9.726597,1.955883 c -0.101817,0.02047 -0.187464,-0.08361 -0.187464,-0.187466 v -6.38655 c 0,-0.103856 0.08565,-0.166991 0.187464,-0.187465 z"
           sodipodi:nodetypes="sssssssss" />
        <path
           id="path62"
           style="fill:none;stroke:#000000;stroke-width:0.198437;stroke-linecap:square;stroke-linejoin:bevel;stroke-miterlimit:0;stroke-dasharray:none;paint-order:markers fill stroke"
           d="m 38.782484,32.754393 -2.992275,0.587028 c -0.04753,0.0093 -0.187873,0.07818 -0.186711,0.175283 l 0.07784,6.504434 c 0.0012,0.09709 0.06563,0.196924 0.186711,0.175285 l 3.125099,-0.558511 c 0.267556,-0.03709 0.234706,-0.144777 0.186711,-0.175283 l -0.07784,-6.471372 c 0,0 -0.09272,-0.131679 -0.186711,-0.175267 z"
           sodipodi:nodetypes="ssssscccss" />
      </g>
      <path
         style="fill:none;stroke:#3454b4;stroke-width:1.183;stroke-linecap:square;stroke-linejoin:bevel;stroke-miterlimit:0;stroke-dasharray:none;stroke-opacity:1;marker-end:url(#marker41);paint-order:markers fill stroke"
         d="m 22.867101,13.822463 0.07869,30.644043"
         id="path63"
         sodipodi:nodetypes="cc" />
      <path
         id="path64"
         style="fill:none;stroke:#000000;stroke-width:0.604233;stroke-linecap:square;stroke-linejoin:bevel;stroke-miterlimit:0;paint-order:markers fill stroke"
         d="M 39.13555,9.4726765 30.670799,5.0023356 C 30.520812,4.9231258 30.332211,4.8480869 30.168055,4.8907828 L 14.607904,8.9378655 c -0.164156,0.042696 -0.133273,-0.011207 0.01745,0.066593 l 7.924173,4.0903455 c 0.438709,0.196043 0.388572,0.437544 0.379884,0.111553 L 39.343431,9.9262769 C 39.50976,9.8930383 39.285539,9.5518879 39.13555,9.4726765 Z"
         sodipodi:nodetypes="sssssccss" />
    </g>
    <g
       id="g26">
      <path
         id="path1"
         style="fill:none;stroke:#000000;stroke-width:1.19062;stroke-linecap:square;stroke-linejoin:round;stroke-miterlimit:0;stroke-dasharray:none;paint-order:markers fill stroke"
         inkscape:transform-center-x="-0.020738867"
         inkscape:transform-center-y="-1.3913147"
         d="M -14.806629,33.588182 -48.618806,33.73348 -48.755402,14.049781 -31.747485,3.386672 -14.744152,14.401621 Z"
         sodipodi:nodetypes="cccccc" />
      <path
         style="fill:none;stroke:#3454b4;stroke-width:0.92604167;stroke-linecap:square;stroke-linejoin:round;stroke-miterlimit:0;stroke-dasharray:none;stroke-opacity:1;marker-end:url(#marker69);paint-order:markers fill stroke"
         d="m -31.776734,3.5915759 -0.03187,26.2473401"
         id="path2"
         sodipodi:nodetypes="cc" />
      <g
         id="g71">
        <rect
           style="fill:none;stroke:#000000;stroke-width:0.500457;stroke-linecap:square;stroke-linejoin:bevel;stroke-miterlimit:0;stroke-dasharray:none;stroke-opacity:1;paint-order:markers fill stroke"
           id="rect69"
           width="9.6873608"
           height="7.6525736"
           x="-45.476902"
           y="14.625333"
           ry="0.38677761" />
        <rect
           style="fill:none;stroke:#000000;stroke-width:0.363019;stroke-linecap:square;stroke-linejoin:bevel;stroke-miterlimit:0;stroke-dasharray:none;stroke-opacity:1;paint-order:markers fill stroke"
           id="rect70"
           width="5.0072651"
           height="7.7900114"
           x="-45.54562"
           y="14.556614"
           ry="0.39372402" />
        <rect
           style="fill:none;stroke:#000000;stroke-width:0.360333;stroke-linecap:square;stroke-linejoin:bevel;stroke-miterlimit:0;stroke-dasharray:none;stroke-opacity:1;paint-order:markers fill stroke"
           id="rect71"
           width="9.8274851"
           height="3.9106081"
           x="-45.546963"
           y="14.55527"
           ry="0.19765058" />
      </g>
      <g
         id="g74"
         transform="translate(17.462505)">
        <rect
           style="fill:none;stroke:#000000;stroke-width:0.500457;stroke-linecap:square;stroke-linejoin:bevel;stroke-miterlimit:0;stroke-dasharray:none;stroke-opacity:1;paint-order:markers fill stroke"
           id="rect72"
           width="9.6873608"
           height="7.6525736"
           x="-45.476902"
           y="14.625333"
           ry="0.38677761" />
        <rect
           style="fill:none;stroke:#000000;stroke-width:0.363019;stroke-linecap:square;stroke-linejoin:bevel;stroke-miterlimit:0;stroke-dasharray:none;stroke-opacity:1;paint-order:markers fill stroke"
           id="rect73"
           width="5.0072651"
           height="7.7900114"
           x="-45.54562"
           y="14.556614"
           ry="0.39372402" />
        <rect
           style="fill:none;stroke:#000000;stroke-width:0.360333;stroke-linecap:square;stroke-linejoin:bevel;stroke-miterlimit:0;stroke-dasharray:none;stroke-opacity:1;paint-order:markers fill stroke"
           id="rect74"
           width="9.8274851"
           height="3.9106081"
           x="-45.546963"
           y="14.55527"
           ry="0.19765058" />
      </g>
    </g>
    <g
       id="g14">
      <path
         id="path3"
         style="fill:none;stroke:#000000;stroke-width:1.19062;stroke-linecap:square;stroke-linejoin:round;stroke-miterlimit:0;stroke-dasharray:none;paint-order:markers fill stroke"
         inkscape:transform-center-x="-0.020738867"
         inkscape:transform-center-y="-1.3913147"
         d="m -14.806629,73.275707 -33.812177,0.145298 -0.136596,-19.683699 17.007917,-10.663113 17.003333,11.014953 z"
         sodipodi:nodetypes="cccccc" />
      <path
         style="fill:none;stroke:#000000;stroke-width:0.926042;stroke-linecap:square;stroke-linejoin:round;stroke-miterlimit:0;stroke-dasharray:none;stroke-opacity:1;marker-end:url(#marker69);paint-order:markers fill stroke"
         d="m -31.776734,43.279097 -0.03187,26.247344"
         id="path4"
         sodipodi:nodetypes="cc" />
    </g>
    <g
       id="g39">
      <path
         style="fill:none;stroke:#3454b4;stroke-width:0.926042;stroke-linecap:square;stroke-linejoin:round;stroke-miterlimit:0;stroke-dasharray:none;stroke-opacity:1;marker-end:url(#marker69);paint-order:markers fill stroke"
         d="m 9.4982651,63.122825 -0.03187,26.24734"
         id="path19"
         sodipodi:nodetypes="cc" />
      <path
         id="path14"
         style="fill:none;stroke:#000000;stroke-width:1.19062;stroke-linecap:square;stroke-linejoin:round;stroke-miterlimit:0;stroke-dasharray:none;paint-order:markers fill stroke"
         inkscape:transform-center-x="-0.020738867"
         inkscape:transform-center-y="-1.3913147"
         d="M 26.46837,93.119431 -7.3438069,93.264729 -7.4804029,73.58103 9.5275141,62.917921 26.530847,73.93287 Z"
         sodipodi:nodetypes="cccccc" />
      <g
         id="g21"
         transform="matrix(-1,-0.22810922,0,1,-39.72686,50.361656)">
        <rect
           style="fill:none;stroke:#000000;stroke-width:0.500457;stroke-linecap:square;stroke-linejoin:bevel;stroke-miterlimit:0;stroke-dasharray:none;stroke-opacity:1;paint-order:markers fill stroke"
           id="rect19"
           width="9.6873608"
           height="7.6525736"
           x="-45.476902"
           y="14.625333"
           ry="0.38677761" />
        <rect
           style="fill:none;stroke:#000000;stroke-width:0.363019;stroke-linecap:square;stroke-linejoin:bevel;stroke-miterlimit:0;stroke-dasharray:none;stroke-opacity:1;paint-order:markers fill stroke"
           id="rect20"
           width="5.0072651"
           height="7.7900114"
           x="-45.54562"
           y="14.556614"
           ry="0.39372402" />
        <rect
           style="fill:none;stroke:#000000;stroke-width:0.360333;stroke-linecap:square;stroke-linejoin:bevel;stroke-miterlimit:0;stroke-dasharray:none;stroke-opacity:1;paint-order:markers fill stroke"
           id="rect21"
           width="9.8274851"
           height="3.9106081"
           x="-45.546963"
           y="14.55527"
           ry="0.19765058" />
      </g>
      <g
         id="g28"
         transform="matrix(1,-0.22810922,0,1,58.472921,50.361656)">
        <rect
           style="fill:none;stroke:#000000;stroke-width:0.500457;stroke-linecap:square;stroke-linejoin:bevel;stroke-miterlimit:0;stroke-dasharray:none;stroke-opacity:1;paint-order:markers fill stroke"
           id="rect26"
           width="9.6873608"
           height="7.6525736"
           x="-45.476902"
           y="14.625333"
           ry="0.38677761" />
        <rect
           style="fill:none;stroke:#000000;stroke-width:0.363019;stroke-linecap:square;stroke-linejoin:bevel;stroke-miterlimit:0;stroke-dasharray:none;stroke-opacity:1;paint-order:markers fill stroke"
           id="rect27"
           width="5.0072651"
           height="7.7900114"
           x="-45.54562"
           y="14.556614"
           ry="0.39372402" />
        <rect
           style="fill:none;stroke:#000000;stroke-width:0.360333;stroke-linecap:square;stroke-linejoin:bevel;stroke-miterlimit:0;stroke-dasharray:none;stroke-opacity:1;paint-order:markers fill stroke"
           id="rect28"
           width="9.8274851"
           height="3.9106081"
           x="-45.546963"
           y="14.55527"
           ry="0.19765058" />
      </g>
    </g>
    <g
       id="g38">
      <path
         style="fill:none;stroke:#3454b4;stroke-width:0.926042;stroke-linecap:square;stroke-linejoin:round;stroke-miterlimit:0;stroke-dasharray:none;stroke-opacity:1;marker-end:url(#marker69);paint-order:markers fill stroke"
         d="m 51.302458,63.122825 -0.03187,26.24734"
         id="path31"
         sodipodi:nodetypes="cc" />
      <path
         id="path32"
         style="fill:none;stroke:#000000;stroke-width:1.19062;stroke-linecap:square;stroke-linejoin:round;stroke-miterlimit:0;stroke-dasharray:none;paint-order:markers fill stroke"
         inkscape:transform-center-x="-0.020738867"
         inkscape:transform-center-y="-1.3913147"
         d="M 68.272563,93.119431 34.460376,93.264729 34.32378,73.58103 51.331707,62.917921 68.33504,73.93287 Z"
         sodipodi:nodetypes="cccccc" />
      <g
         id="g34"
         transform="matrix(1,-0.22810922,0,1,83.343768,50.361656)">
        <rect
           style="fill:none;stroke:#000000;stroke-width:0.500457;stroke-linecap:square;stroke-linejoin:bevel;stroke-miterlimit:0;stroke-dasharray:none;stroke-opacity:1;paint-order:markers fill stroke"
           id="rect32"
           width="9.6873608"
           height="7.6525736"
           x="-45.476902"
           y="14.625333"
           ry="0.38677761" />
        <rect
           style="fill:none;stroke:#000000;stroke-width:0.363019;stroke-linecap:square;stroke-linejoin:bevel;stroke-miterlimit:0;stroke-dasharray:none;stroke-opacity:1;paint-order:markers fill stroke"
           id="rect33"
           width="5.0072651"
           height="7.7900114"
           x="-45.54562"
           y="14.556614"
           ry="0.39372402" />
        <rect
           style="fill:none;stroke:#000000;stroke-width:0.360333;stroke-linecap:square;stroke-linejoin:bevel;stroke-miterlimit:0;stroke-dasharray:none;stroke-opacity:1;paint-order:markers fill stroke"
           id="rect34"
           width="9.8274851"
           height="3.9106081"
           x="-45.546963"
           y="14.55527"
           ry="0.19765058" />
      </g>
      <g
         id="g37"
         transform="matrix(-1,-0.22810922,0,1,19.010668,50.361656)">
        <rect
           style="fill:none;stroke:#000000;stroke-width:0.500457;stroke-linecap:square;stroke-linejoin:bevel;stroke-miterlimit:0;stroke-dasharray:none;stroke-opacity:1;paint-order:markers fill stroke"
           id="rect35"
           width="9.6873608"
           height="7.6525736"
           x="-45.476902"
           y="14.625333"
           ry="0.38677761" />
        <rect
           style="fill:none;stroke:#000000;stroke-width:0.363019;stroke-linecap:square;stroke-linejoin:bevel;stroke-miterlimit:0;stroke-dasharray:none;stroke-opacity:1;paint-order:markers fill stroke"
           id="rect36"
           width="5.0072651"
           height="7.7900114"
           x="-45.54562"
           y="14.556614"
           ry="0.39372402" />
        <rect
           style="fill:none;stroke:#000000;stroke-width:0.360333;stroke-linecap:square;stroke-linejoin:bevel;stroke-miterlimit:0;stroke-dasharray:none;stroke-opacity:1;paint-order:markers fill stroke"
           id="rect37"
           width="9.8274851"
           height="3.9106081"
           x="-45.546963"
           y="14.55527"
           ry="0.19765058" />
      </g>
    </g>
    <g
       id="g88"
       transform="translate(73.951061)">
      <g
         id="g66"
         transform="matrix(0.74296117,0,0,0.74296117,6.1049237,11.46891)">
        <path
           id="path65"
           style="fill:none;stroke:#000000;stroke-width:0.813277;stroke-linecap:square;stroke-linejoin:bevel;stroke-miterlimit:0;paint-order:markers fill stroke"
           d="m 22.977585,17.075388 21.381288,-4.299479 c 0.223819,-0.04501 0.412093,0.183793 0.412093,0.412093 v 14.0391 c 0,0.2283 -0.188274,0.367086 -0.412093,0.412093 l -21.381288,4.299479 c -0.223819,0.04501 -0.412092,-0.183793 -0.412092,-0.412093 v -14.0391 c 0,-0.2283 0.188273,-0.367086 0.412092,-0.412093 z"
           sodipodi:nodetypes="sssssssss" />
        <path
           id="path66"
           style="fill:none;stroke:#000000;stroke-width:0.813277;stroke-linecap:square;stroke-linejoin:bevel;stroke-miterlimit:0;paint-order:markers fill stroke"
           d="M 22.13386,16.958458 11.468202,11.452992 c -0.202867,-0.104717 -0.412092,0.183793 -0.412092,0.412093 v 14.0391 c 0,0.2283 0.209226,0.307376 0.412092,0.412093 l 10.665658,5.505466 c 0.590487,0.263867 0.423785,0.02668 0.412092,-0.412093 v -14.0391 c 0,-0.2283 -0.209225,-0.307376 -0.412092,-0.412093 z"
           sodipodi:nodetypes="sssssccss" />
      </g>
      <path
         id="path67"
         style="fill:none;stroke:#000000;stroke-width:0.604233;stroke-linecap:square;stroke-linejoin:bevel;stroke-miterlimit:0;paint-order:markers fill stroke"
         d="M 22.549522,13.060174 14.625352,8.9698293 C 14.47463,8.8920287 14.319184,9.1063801 14.319184,9.2759982 V 19.706499 c 0,0.169618 0.155447,0.228368 0.306168,0.306169 l 7.92417,4.090347 c 0.438709,0.196043 0.314856,0.01982 0.306169,-0.306169 V 13.366343 c 0,-0.169618 -0.155446,-0.228368 -0.306169,-0.306169 z"
         sodipodi:nodetypes="sssssccss" />
      <path
         id="path68"
         style="fill:none;stroke:#000000;stroke-width:0.604233;stroke-linecap:square;stroke-linejoin:bevel;stroke-miterlimit:0;paint-order:markers fill stroke"
         d="M 23.176377,13.147049 39.061844,9.9527046 c 0.166289,-0.033441 0.306169,0.1365514 0.306169,0.3061684 v 10.430502 c 0,0.169618 -0.13988,0.27273 -0.306169,0.306169 L 23.176377,24.18989 c -0.166289,0.03344 -0.306168,-0.136551 -0.306168,-0.306169 V 13.453218 c 0,-0.169618 0.139879,-0.272731 0.306168,-0.306169 z"
         sodipodi:nodetypes="sssssssss" />
      <path
         id="path70"
         style="fill:none;stroke:#000000;stroke-width:0.604233;stroke-linecap:square;stroke-linejoin:bevel;stroke-miterlimit:0;stroke-dasharray:none;paint-order:markers fill stroke"
         d="m 22.549522,35.076601 -7.92417,-4.090348 c -0.150722,-0.0778 -0.306168,0.136551 -0.306168,0.306169 v 10.430507 c 0,0.169618 0.155447,0.228368 0.306168,0.306169 l 7.92417,4.090347 c 0.438709,0.196043 0.314856,0.01982 0.306169,-0.306169 V 35.38277 c 0,-0.169618 -0.155446,-0.228369 -0.306169,-0.306169 z"
         sodipodi:nodetypes="sssssccss" />
      <path
         id="path71"
         style="fill:none;stroke:#000000;stroke-width:0.604233;stroke-linecap:square;stroke-linejoin:bevel;stroke-miterlimit:0;paint-order:markers fill stroke"
         d="m 23.176377,35.163475 15.885467,-3.194346 c 0.166289,-0.03344 0.306169,0.136551 0.306169,0.306169 v 10.430506 c 0,0.169619 -0.13988,0.272731 -0.306169,0.30617 L 23.176377,46.20632 c -0.166289,0.03344 -0.306168,-0.136552 -0.306168,-0.30617 V 35.469644 c 0,-0.169618 0.139879,-0.27273 0.306168,-0.306169 z"
         sodipodi:nodetypes="sssssssss" />
      <path
         id="path72"
         style="fill:none;stroke:#000000;stroke-width:0.294863;stroke-linecap:square;stroke-linejoin:bevel;stroke-miterlimit:0;stroke-dasharray:none;paint-order:markers fill stroke"
         d="m 19.885963,37.012334 -3.12307,-1.612085 c -0.0594,-0.03067 -0.12066,0.05382 -0.12066,0.120672 v 4.110864 c 0,0.06685 0.06126,0.09 0.12066,0.120673 l 3.12307,1.612085 c 0.172903,0.07726 0.12409,0.0078 0.12066,-0.120672 v -4.11087 c 0,-0.06685 -0.06126,-0.09 -0.12066,-0.120661 z"
         sodipodi:nodetypes="sssssccss" />
      <path
         id="path73"
         style="fill:none;stroke:#000000;stroke-width:0.147431;stroke-linecap:square;stroke-linejoin:bevel;stroke-miterlimit:0;stroke-dasharray:none;paint-order:markers fill stroke"
         d="m 18.237298,36.120446 -1.576865,-0.762602 c -0.03875,-0.01875 -0.06045,0.05458 -0.06045,0.122381 v 4.169054 c 0,0.06779 0.02191,0.103214 0.06045,0.122382 l 1.619866,0.805603 c 0.08662,0.07835 0.06216,0.008 0.06045,-0.122381 v -4.169061 c 0,-0.0678 -0.03002,-0.09194 -0.06045,-0.122369 z"
         sodipodi:nodetypes="sssssccsss" />
      <g
         id="g76"
         transform="matrix(0.74296117,0,0,0.74296117,6.1049237,0.46069952)">
        <path
           id="path74"
           style="fill:none;stroke:#000000;stroke-width:0.396875;stroke-linecap:square;stroke-linejoin:bevel;stroke-miterlimit:0;stroke-dasharray:none;paint-order:markers fill stroke"
           d="m 18.548801,34.380564 -4.203544,-2.169811 c -0.07995,-0.04128 -0.162404,0.07244 -0.162404,0.162421 v 5.53308 c 0,0.08998 0.08246,0.121144 0.162404,0.162422 l 4.203544,2.169811 c 0.232722,0.103986 0.167021,0.01056 0.162405,-0.162421 v -5.533089 c 0,-0.08998 -0.08246,-0.121143 -0.162405,-0.162405 z"
           sodipodi:nodetypes="sssssccss" />
        <path
           id="path75"
           style="fill:none;stroke:#000000;stroke-width:0.198437;stroke-linecap:square;stroke-linejoin:bevel;stroke-miterlimit:0;stroke-dasharray:none;paint-order:markers fill stroke"
           d="M 16.329755,33.180114 14.20735,32.153678 c -0.05216,-0.02523 -0.08136,0.07346 -0.08136,0.16472 V 37.9298 c 0,0.09125 0.02949,0.138923 0.08136,0.164722 l 2.180283,1.084314 c 0.116588,0.105458 0.08367,0.01071 0.08136,-0.16472 v -5.611412 c 0,-0.09125 -0.0404,-0.123743 -0.08136,-0.164704 z"
           sodipodi:nodetypes="sssssccsss" />
      </g>
      <g
         id="g77"
         transform="matrix(0.74296117,0,0,0.74296117,6.1049237,-10.547515)">
        <path
           id="path76"
           style="fill:none;stroke:#000000;stroke-width:0.396875;stroke-linecap:square;stroke-linejoin:bevel;stroke-miterlimit:0;stroke-dasharray:none;paint-order:markers fill stroke"
           d="m 18.548801,34.380564 -4.203544,-2.169811 c -0.07995,-0.04128 -0.162404,0.07244 -0.162404,0.162421 v 5.53308 c 0,0.08998 0.08246,0.121144 0.162404,0.162422 l 4.203544,2.169811 c 0.232722,0.103986 0.167021,0.01056 0.162405,-0.162421 v -5.533089 c 0,-0.08998 -0.08246,-0.121143 -0.162405,-0.162405 z"
           sodipodi:nodetypes="sssssccss" />
        <path
           id="path77"
           style="fill:none;stroke:#000000;stroke-width:0.198437;stroke-linecap:square;stroke-linejoin:bevel;stroke-miterlimit:0;stroke-dasharray:none;paint-order:markers fill stroke"
           d="M 16.329755,33.180114 14.20735,32.153678 c -0.05216,-0.02523 -0.08136,0.07346 -0.08136,0.16472 V 37.9298 c 0,0.09125 0.02949,0.138923 0.08136,0.164722 l 2.180283,1.084314 c 0.116588,0.105458 0.08367,0.01071 0.08136,-0.16472 v -5.611412 c 0,-0.09125 -0.0404,-0.123743 -0.08136,-0.164704 z"
           sodipodi:nodetypes="sssssccsss" />
      </g>
      <g
         id="g80"
         transform="matrix(0.74296117,0,0,0.74296117,6.1049237,11.46891)">
        <path
           id="path78"
           style="fill:none;stroke:#000000;stroke-width:0.198437;stroke-linecap:square;stroke-linejoin:bevel;stroke-miterlimit:0;stroke-dasharray:none;paint-order:markers fill stroke"
           d="m 32.116768,34.189884 -2.992275,0.587028 c -0.04753,0.0093 -0.187709,0.07818 -0.186711,0.175283 l 0.06615,6.434276 c 9.98e-4,0.09709 0.06563,0.196925 0.186711,0.175285 l 3.125099,-0.558511 c 0.267556,-0.03709 0.234706,-0.144777 0.186711,-0.175283 l -0.06615,-6.401214 c 0,0 -0.09272,-0.131679 -0.186711,-0.175267 z"
           sodipodi:nodetypes="ssssscccss" />
        <path
           id="path79"
           style="fill:none;stroke:#000000;stroke-width:0.396875;stroke-linecap:square;stroke-linejoin:bevel;stroke-miterlimit:0;stroke-dasharray:none;paint-order:markers fill stroke"
           d="m 29.178961,34.794231 9.726597,-1.955883 c 0.101817,-0.02047 0.187465,0.08361 0.187465,0.187466 v 6.386549 c 0,0.103857 -0.08565,0.166992 -0.187465,0.187466 l -9.726597,1.955883 c -0.101817,0.02047 -0.187464,-0.08361 -0.187464,-0.187466 v -6.38655 c 0,-0.103856 0.08565,-0.166991 0.187464,-0.187465 z"
           sodipodi:nodetypes="sssssssss" />
        <path
           id="path80"
           style="fill:none;stroke:#000000;stroke-width:0.198437;stroke-linecap:square;stroke-linejoin:bevel;stroke-miterlimit:0;stroke-dasharray:none;paint-order:markers fill stroke"
           d="m 38.782484,32.754393 -2.992275,0.587028 c -0.04753,0.0093 -0.187873,0.07818 -0.186711,0.175283 l 0.07784,6.504434 c 0.0012,0.09709 0.06563,0.196924 0.186711,0.175285 l 3.125099,-0.558511 c 0.267556,-0.03709 0.234706,-0.144777 0.186711,-0.175283 l -0.07784,-6.471372 c 0,0 -0.09272,-0.131679 -0.186711,-0.175267 z"
           sodipodi:nodetypes="ssssscccss" />
      </g>
      <g
         id="g83"
         transform="matrix(0.74296117,0,0,0.74296117,6.1049237,0.46069952)">
        <path
           id="path81"
           style="fill:none;stroke:#000000;stroke-width:0.198437;stroke-linecap:square;stroke-linejoin:bevel;stroke-miterlimit:0;stroke-dasharray:none;paint-order:markers fill stroke"
           d="m 32.116768,34.189884 -2.992275,0.587028 c -0.04753,0.0093 -0.187709,0.07818 -0.186711,0.175283 l 0.06615,6.434276 c 9.98e-4,0.09709 0.06563,0.196925 0.186711,0.175285 l 3.125099,-0.558511 c 0.267556,-0.03709 0.234706,-0.144777 0.186711,-0.175283 l -0.06615,-6.401214 c 0,0 -0.09272,-0.131679 -0.186711,-0.175267 z"
           sodipodi:nodetypes="ssssscccss" />
        <path
           id="path82"
           style="fill:none;stroke:#000000;stroke-width:0.396875;stroke-linecap:square;stroke-linejoin:bevel;stroke-miterlimit:0;stroke-dasharray:none;paint-order:markers fill stroke"
           d="m 29.178961,34.794231 9.726597,-1.955883 c 0.101817,-0.02047 0.187465,0.08361 0.187465,0.187466 v 6.386549 c 0,0.103857 -0.08565,0.166992 -0.187465,0.187466 l -9.726597,1.955883 c -0.101817,0.02047 -0.187464,-0.08361 -0.187464,-0.187466 v -6.38655 c 0,-0.103856 0.08565,-0.166991 0.187464,-0.187465 z"
           sodipodi:nodetypes="sssssssss" />
        <path
           id="path83"
           style="fill:none;stroke:#000000;stroke-width:0.198437;stroke-linecap:square;stroke-linejoin:bevel;stroke-miterlimit:0;stroke-dasharray:none;paint-order:markers fill stroke"
           d="m 38.782484,32.754393 -2.992275,0.587028 c -0.04753,0.0093 -0.187873,0.07818 -0.186711,0.175283 l 0.07784,6.504434 c 0.0012,0.09709 0.06563,0.196924 0.186711,0.175285 l 3.125099,-0.558511 c 0.267556,-0.03709 0.234706,-0.144777 0.186711,-0.175283 l -0.07784,-6.471372 c 0,0 -0.09272,-0.131679 -0.186711,-0.175267 z"
           sodipodi:nodetypes="ssssscccss" />
      </g>
      <g
         id="g86"
         transform="matrix(0.74296117,0,0,0.74296117,6.1049237,-10.547515)">
        <path
           id="path84"
           style="fill:none;stroke:#000000;stroke-width:0.198437;stroke-linecap:square;stroke-linejoin:bevel;stroke-miterlimit:0;stroke-dasharray:none;paint-order:markers fill stroke"
           d="m 32.116768,34.189884 -2.992275,0.587028 c -0.04753,0.0093 -0.187709,0.07818 -0.186711,0.175283 l 0.06615,6.434276 c 9.98e-4,0.09709 0.06563,0.196925 0.186711,0.175285 l 3.125099,-0.558511 c 0.267556,-0.03709 0.234706,-0.144777 0.186711,-0.175283 l -0.06615,-6.401214 c 0,0 -0.09272,-0.131679 -0.186711,-0.175267 z"
           sodipodi:nodetypes="ssssscccss" />
        <path
           id="path85"
           style="fill:none;stroke:#000000;stroke-width:0.396875;stroke-linecap:square;stroke-linejoin:bevel;stroke-miterlimit:0;stroke-dasharray:none;paint-order:markers fill stroke"
           d="m 29.178961,34.794231 9.726597,-1.955883 c 0.101817,-0.02047 0.187465,0.08361 0.187465,0.187466 v 6.386549 c 0,0.103857 -0.08565,0.166992 -0.187465,0.187466 l -9.726597,1.955883 c -0.101817,0.02047 -0.187464,-0.08361 -0.187464,-0.187466 v -6.38655 c 0,-0.103856 0.08565,-0.166991 0.187464,-0.187465 z"
           sodipodi:nodetypes="sssssssss" />
        <path
           id="path86"
           style="fill:none;stroke:#000000;stroke-width:0.198437;stroke-linecap:square;stroke-linejoin:bevel;stroke-miterlimit:0;stroke-dasharray:none;paint-order:markers fill stroke"
           d="m 38.782484,32.754393 -2.992275,0.587028 c -0.04753,0.0093 -0.187873,0.07818 -0.186711,0.175283 l 0.07784,6.504434 c 0.0012,0.09709 0.06563,0.196924 0.186711,0.175285 l 3.125099,-0.558511 c 0.267556,-0.03709 0.234706,-0.144777 0.186711,-0.175283 l -0.07784,-6.471372 c 0,0 -0.09272,-0.131679 -0.186711,-0.175267 z"
           sodipodi:nodetypes="ssssscccss" />
      </g>
      <path
         style="fill:none;stroke:#3454b4;stroke-width:1.183;stroke-linecap:square;stroke-linejoin:bevel;stroke-miterlimit:0;stroke-dasharray:none;stroke-opacity:1;marker-end:url(#marker41);paint-order:markers fill stroke"
         d="m 22.867101,13.822463 0.01254,19.531543"
         id="path87"
         sodipodi:nodetypes="cc" />
      <path
         id="path88"
         style="fill:none;stroke:#000000;stroke-width:0.604233;stroke-linecap:square;stroke-linejoin:bevel;stroke-miterlimit:0;paint-order:markers fill stroke"
         d="M 39.13555,9.4726765 30.670799,5.0023356 C 30.520812,4.9231258 30.332211,4.8480869 30.168055,4.8907828 L 14.607904,8.9378655 c -0.164156,0.042696 -0.133273,-0.011207 0.01745,0.066593 l 7.924173,4.0903455 c 0.438709,0.196043 0.388572,0.437544 0.379884,0.111553 L 39.343431,9.9262769 C 39.50976,9.8930383 39.285539,9.5518879 39.13555,9.4726765 Z"
         sodipodi:nodetypes="sssssccss" />
    </g>
  </g>
</svg>
