<?xml version="1.0" encoding="UTF-8" standalone="no"?>
<!-- Created with Inkscape (http://www.inkscape.org/) -->

<svg
   width="150"
   height="150"
   viewBox="0 0 39.687499 39.6875"
   version="1.1"
   id="svg1"
   xml:space="preserve"
   inkscape:version="1.3.2 (091e20e, 2023-11-25, custom)"
   sodipodi:docname="магазин.svg"
   xmlns:inkscape="http://www.inkscape.org/namespaces/inkscape"
   xmlns:sodipodi="http://sodipodi.sourceforge.net/DTD/sodipodi-0.dtd"
   xmlns="http://www.w3.org/2000/svg"
   xmlns:svg="http://www.w3.org/2000/svg"><sodipodi:namedview
     id="namedview1"
     pagecolor="#ffffff"
     bordercolor="#000000"
     borderopacity="0.25"
     inkscape:showpageshadow="2"
     inkscape:pageopacity="0.0"
     inkscape:pagecheckerboard="0"
     inkscape:deskcolor="#d1d1d1"
     inkscape:document-units="mm"
     inkscape:zoom="2.9113075"
     inkscape:cx="57.190798"
     inkscape:cy="97.035438"
     inkscape:window-width="1920"
     inkscape:window-height="1013"
     inkscape:window-x="-9"
     inkscape:window-y="-9"
     inkscape:window-maximized="1"
     inkscape:current-layer="layer1" /><defs
     id="defs1" /><g
     inkscape:label="Слой 1"
     inkscape:groupmode="layer"
     id="layer1"><g
       id="g3"
       transform="matrix(1.8599966,0,0,1.8599966,-19.974989,-17.725682)"><path
         style="opacity:1;fill:none;stroke:#000000;stroke-width:1.05833;stroke-linecap:round;stroke-linejoin:round;stroke-miterlimit:5.8;paint-order:markers fill stroke"
         d="m 11.814565,10.678549 1.590423,0.04544 c 0.567524,0.01622 0.627147,0.489761 0.681609,0.817932 l 1.772185,10.678549 c 0.194714,1.173276 1.024093,1.907963 2.213282,1.902994 l 9.555844,-0.03993 c 0.517595,-0.0022 1.633549,-0.02273 1.863066,-1.40866 l 1.181454,-7.13418 c 0.104359,-0.63017 -0.02653,-1.49734 -0.77249,-1.49954 l -15.404375,-0.04544"
         id="path1"
         sodipodi:nodetypes="cssssssssc" /><path
         style="opacity:1;fill:none;stroke:#000000;stroke-width:0.813541;stroke-linecap:round;stroke-linejoin:round;stroke-miterlimit:5.8;paint-order:markers fill stroke"
         id="path2"
         sodipodi:type="arc"
         sodipodi:cx="18.984718"
         sodipodi:cy="27.986443"
         sodipodi:rx="1.6919142"
         sodipodi:ry="1.7289634"
         sodipodi:start="6.2058368"
         sodipodi:end="6.0821142"
         sodipodi:open="true"
         sodipodi:arc-type="arc"
         d="m 20.671574,27.852843 a 1.6919142,1.7289634 0 0 1 -1.504014,1.852437 1.6919142,1.7289634 0 0 1 -1.858388,-1.478925 1.6919142,1.7289634 0 0 1 1.38907,-1.943911 1.6919142,1.7289634 0 0 1 1.944304,1.358692" /><path
         style="opacity:1;fill:none;stroke:#000000;stroke-width:0.813541;stroke-linecap:round;stroke-linejoin:round;stroke-miterlimit:5.8;paint-order:markers fill stroke"
         id="path3"
         sodipodi:type="arc"
         sodipodi:cx="25.638971"
         sodipodi:cy="27.986443"
         sodipodi:rx="1.6919142"
         sodipodi:ry="1.7289634"
         sodipodi:start="6.2058368"
         sodipodi:end="6.0821142"
         sodipodi:open="true"
         sodipodi:arc-type="arc"
         d="m 27.325827,27.852843 a 1.6919142,1.7289634 0 0 1 -1.504014,1.852437 1.6919142,1.7289634 0 0 1 -1.858388,-1.478925 1.6919142,1.7289634 0 0 1 1.38907,-1.943911 1.6919142,1.7289634 0 0 1 1.944304,1.358692" /></g></g></svg>
