<svg width="200" height="100" viewBox="0 0 52.917 26.458" xml:space="preserve" xmlns="http://www.w3.org/2000/svg"><path style="opacity:1;fill:none;stroke:#000;stroke-width:.926;stroke-linecap:round;stroke-linejoin:round;stroke-miterlimit:0;stroke-dasharray:none;paint-order:markers fill stroke" d="m8.772 19.697 22.46-.033-.032 1.446-7.005.032c.027.716-.079 1.414-1.317 1.96l-12.596.033c-.854-.238-1.374-.726-1.542-1.478z" transform="matrix(2.1759 0 0 2.1759 -16.73 -27.053)"/><path style="opacity:1;fill:none;stroke:#000;stroke-width:.925999;stroke-linecap:round;stroke-linejoin:round;stroke-miterlimit:0;stroke-dasharray:none;paint-order:markers fill stroke" d="m24.208 19.744-.01 1.59M12.86 17.728s.894-.82.886-1.363c-.009-.517-.88-.755-.886-1.272-.006-.508.84-1.272.84-1.272M14.976 17.728s.895-.82.886-1.363c-.008-.517-.88-.755-.886-1.272-.006-.508.841-1.272.841-1.272M17.093 17.728s.895-.82.886-1.363c-.008-.517-.88-.755-.886-1.272-.006-.508.84-1.272.84-1.272M19.21 17.728s.894-.82.886-1.363c-.009-.517-.88-.755-.886-1.272-.006-.508.84-1.272.84-1.272" transform="matrix(2.1759 0 0 2.1759 -16.73 -27.053)"/></svg>