<svg width="200" height="200" viewBox="0 0 52.917 52.917" xmlns="http://www.w3.org/2000/svg"><defs><marker style="overflow:visible" id="b" refX="-1" refY="0" orient="auto-start-reverse" markerWidth="2" markerHeight="2" viewBox="0 0 1 1" preserveAspectRatio="xMidYMid"><path style="fill:context-stroke;fill-rule:evenodd;stroke:none" d="m1 0-3 3h-2l3-3-3-3h2z"/></marker><marker style="overflow:visible" id="a" refX="-1" refY="0" orient="auto-start-reverse" markerWidth=".75" markerHeight=".75" viewBox="0 0 1 1" preserveAspectRatio="xMidYMid"><path style="fill:context-stroke;fill-rule:evenodd;stroke:none" d="m1 0-3 3h-2l3-3-3-3h2z"/></marker></defs><path style="fill:none;stroke:#000;stroke-width:1.03146;stroke-linecap:square;stroke-linejoin:bevel;stroke-miterlimit:0;paint-order:markers fill stroke" d="M18.63 14.738 5.101 7.756c-.257-.133-.523.233-.523.523v17.805c0 .29.266.39.523.523l13.527 6.982c.75.335.538.034.523-.522V15.26c0-.29-.266-.39-.523-.523z"/><path style="fill:none;stroke:#000;stroke-width:1.03146;stroke-linecap:square;stroke-linejoin:bevel;stroke-miterlimit:0;paint-order:markers fill stroke" d="m19.7 14.887 27.117-5.453c.283-.057.522.233.522.522v17.806c0 .29-.239.466-.522.523l-27.118 5.453c-.284.057-.522-.234-.522-.523V15.409c0-.29.238-.465.522-.522z"/><path style="fill:none;stroke:#000;stroke-width:1.03146;stroke-linecap:square;stroke-linejoin:bevel;stroke-miterlimit:0;stroke-dasharray:none;paint-order:markers fill stroke" d="M18.63 33.352 5.101 26.37c-.257-.133-.523.233-.523.522v17.806c0 .29.266.39.523.522l13.527 6.983c.75.335.538.034.523-.523V33.875c0-.29-.266-.39-.523-.523z"/><path style="fill:none;stroke:#000;stroke-width:1.03146;stroke-linecap:square;stroke-linejoin:bevel;stroke-miterlimit:0;paint-order:markers fill stroke" d="m19.7 33.5 27.117-5.453c.283-.057.522.234.522.523v17.806c0 .29-.239.465-.522.522l-27.118 5.453c-.284.057-.522-.233-.522-.522V34.023c0-.29.238-.466.522-.523z"/><path style="fill:none;stroke:#000;stroke-width:.503348;stroke-linecap:square;stroke-linejoin:bevel;stroke-miterlimit:0;stroke-dasharray:none;paint-order:markers fill stroke" d="m14.082 36.656-5.331-2.751c-.101-.053-.206.091-.206.206v7.017c0 .114.105.154.206.206l5.331 2.752c.295.132.212.013.206-.206v-7.018c0-.114-.104-.153-.206-.205z"/><path style="fill:none;stroke:#000;stroke-width:.251673;stroke-linecap:square;stroke-linejoin:bevel;stroke-miterlimit:0;stroke-dasharray:none;paint-order:markers fill stroke" d="m11.268 35.134-2.692-1.302c-.066-.032-.103.093-.103.21v7.116c0 .116.037.176.103.209l2.765 1.375c.148.134.106.014.104-.209v-7.117c0-.115-.052-.157-.104-.209z"/><path style="fill:none;stroke:#000;stroke-width:.396875;stroke-linecap:square;stroke-linejoin:bevel;stroke-miterlimit:0;stroke-dasharray:none;paint-order:markers fill stroke" d="m18.549 34.38-4.204-2.17c-.08-.04-.162.073-.162.163v5.533c0 .09.082.121.162.163l4.204 2.17c.233.103.167.01.162-.163v-5.533c0-.09-.082-.121-.162-.162z" transform="matrix(1.26828 0 0 1.26828 -9.443 -25.561)"/><path style="fill:none;stroke:#000;stroke-width:.198437;stroke-linecap:square;stroke-linejoin:bevel;stroke-miterlimit:0;stroke-dasharray:none;paint-order:markers fill stroke" d="m16.33 33.18-2.123-1.026c-.052-.026-.081.073-.081.164v5.612c0 .091.03.139.081.165l2.18 1.084c.117.105.084.01.082-.165v-5.611c0-.092-.04-.124-.081-.165z" transform="matrix(1.26828 0 0 1.26828 -9.443 -25.561)"/><path style="fill:none;stroke:#000;stroke-width:.198437;stroke-linecap:square;stroke-linejoin:bevel;stroke-miterlimit:0;stroke-dasharray:none;paint-order:markers fill stroke" d="m32.117 34.19-2.993.587c-.047.01-.187.078-.186.175l.066 6.434c0 .098.066.197.187.176l3.125-.559c.267-.037.234-.145.186-.175l-.066-6.401s-.092-.132-.186-.176z" transform="matrix(1.26828 0 0 1.26828 -9.443 -6.948)"/><path style="fill:none;stroke:#000;stroke-width:.396875;stroke-linecap:square;stroke-linejoin:bevel;stroke-miterlimit:0;stroke-dasharray:none;paint-order:markers fill stroke" d="m29.179 34.794 9.727-1.956c.101-.02.187.084.187.188v6.386c0 .104-.086.167-.187.188l-9.727 1.956c-.102.02-.188-.084-.188-.188v-6.386c0-.104.086-.167.188-.188z" transform="matrix(1.26828 0 0 1.26828 -9.443 -6.948)"/><path style="fill:none;stroke:#000;stroke-width:.198437;stroke-linecap:square;stroke-linejoin:bevel;stroke-miterlimit:0;stroke-dasharray:none;paint-order:markers fill stroke" d="m38.782 32.754-2.992.587c-.047.01-.188.079-.187.176l.078 6.504c.002.097.066.197.187.175l3.125-.558c.268-.037.235-.145.187-.175l-.078-6.472s-.093-.131-.187-.175z" transform="matrix(1.26828 0 0 1.26828 -9.443 -6.948)"/><g><path style="fill:none;stroke:#000;stroke-width:.198437;stroke-linecap:square;stroke-linejoin:bevel;stroke-miterlimit:0;stroke-dasharray:none;paint-order:markers fill stroke" d="m32.117 34.19-2.993.587c-.047.01-.187.078-.186.175l.066 6.434c0 .098.066.197.187.176l3.125-.559c.267-.037.234-.145.186-.175l-.066-6.401s-.092-.132-.186-.176z" transform="matrix(1.26828 0 0 1.26828 -9.443 -25.561)"/><path style="fill:none;stroke:#000;stroke-width:.396875;stroke-linecap:square;stroke-linejoin:bevel;stroke-miterlimit:0;stroke-dasharray:none;paint-order:markers fill stroke" d="m29.179 34.794 9.727-1.956c.101-.02.187.084.187.188v6.386c0 .104-.086.167-.187.188l-9.727 1.956c-.102.02-.188-.084-.188-.188v-6.386c0-.104.086-.167.188-.188z" transform="matrix(1.26828 0 0 1.26828 -9.443 -25.561)"/><path style="fill:none;stroke:#000;stroke-width:.198437;stroke-linecap:square;stroke-linejoin:bevel;stroke-miterlimit:0;stroke-dasharray:none;paint-order:markers fill stroke" d="m38.782 32.754-2.992.587c-.047.01-.188.079-.187.176l.078 6.504c.002.097.066.197.187.175l3.125-.558c.268-.037.235-.145.187-.175l-.078-6.472s-.093-.131-.187-.175z" transform="matrix(1.26828 0 0 1.26828 -9.443 -25.561)"/></g><path style="fill:none;stroke:#1f326b;stroke-width:2.01945;stroke-linecap:square;stroke-linejoin:bevel;stroke-miterlimit:0;stroke-dasharray:none;stroke-opacity:1;marker-end:url(#a);paint-order:markers fill stroke" d="m19.171 15.475.135 33.906"/><path style="fill:none;stroke:#000;stroke-width:1.03146;stroke-linecap:square;stroke-linejoin:bevel;stroke-miterlimit:0;paint-order:markers fill stroke" d="M46.942 8.614 32.492.984c-.255-.136-.577-.264-.858-.191L5.072 7.7c-.28.073-.227-.019.03.114l13.527 6.983c.75.334.663.746.649.19l28.02-5.6c.283-.056-.1-.638-.356-.774z"/><g><path style="fill:none;stroke:#000;stroke-width:.813277;stroke-linecap:square;stroke-linejoin:bevel;stroke-miterlimit:0;paint-order:markers fill stroke" d="m22.978 17.075 21.38-4.3c.225-.044.413.185.413.413v14.04c0 .227-.188.366-.412.411l-21.381 4.3c-.224.045-.413-.184-.413-.412v-14.04c0-.228.189-.367.413-.412z" transform="translate(49.893 11.469) scale(.74296)"/><path style="fill:none;stroke:#000;stroke-width:.813277;stroke-linecap:square;stroke-linejoin:bevel;stroke-miterlimit:0;paint-order:markers fill stroke" d="m22.134 16.958-10.666-5.505c-.203-.105-.412.184-.412.412v14.04c0 .227.21.307.412.411l10.666 5.506c.59.264.424.026.412-.412V17.37c0-.228-.21-.307-.412-.412z" transform="translate(49.893 11.469) scale(.74296)"/><path style="fill:none;stroke:#000;stroke-width:.604233;stroke-linecap:square;stroke-linejoin:bevel;stroke-miterlimit:0;paint-order:markers fill stroke" d="m22.55 13.06-7.925-4.09c-.15-.078-.306.136-.306.306v10.43c0 .17.156.229.306.307l7.925 4.09c.438.196.314.02.306-.306v-10.43c0-.17-.156-.229-.306-.307z" transform="translate(43.789)"/><path style="fill:none;stroke:#000;stroke-width:.604233;stroke-linecap:square;stroke-linejoin:bevel;stroke-miterlimit:0;paint-order:markers fill stroke" d="m23.176 13.147 15.886-3.194c.166-.034.306.136.306.306v10.43c0 .17-.14.273-.306.307L23.176 24.19c-.166.033-.306-.137-.306-.306v-10.43c0-.17.14-.274.306-.307z" transform="translate(43.789)"/><path style="fill:none;stroke:#000;stroke-width:.604233;stroke-linecap:square;stroke-linejoin:bevel;stroke-miterlimit:0;stroke-dasharray:none;paint-order:markers fill stroke" d="m22.55 35.077-7.925-4.09c-.15-.079-.306.136-.306.305v10.43c0 .17.156.23.306.307l7.925 4.09c.438.196.314.02.306-.306v-10.43c0-.17-.156-.229-.306-.306z" transform="translate(43.789)"/><path style="fill:none;stroke:#000;stroke-width:.604233;stroke-linecap:square;stroke-linejoin:bevel;stroke-miterlimit:0;paint-order:markers fill stroke" d="m23.176 35.163 15.886-3.194c.166-.033.306.137.306.306v10.43c0 .17-.14.274-.306.307l-15.886 3.194c-.166.034-.306-.136-.306-.306V35.47c0-.17.14-.273.306-.307z" transform="translate(43.789)"/><path style="fill:none;stroke:#000;stroke-width:.294863;stroke-linecap:square;stroke-linejoin:bevel;stroke-miterlimit:0;stroke-dasharray:none;paint-order:markers fill stroke" d="M19.886 37.012 16.763 35.4c-.06-.03-.12.054-.12.12v4.112c0 .067.06.09.12.12l3.123 1.613c.173.077.124.007.12-.121v-4.111c0-.067-.06-.09-.12-.12z" transform="translate(43.789)"/><path style="fill:none;stroke:#000;stroke-width:.147431;stroke-linecap:square;stroke-linejoin:bevel;stroke-miterlimit:0;stroke-dasharray:none;paint-order:markers fill stroke" d="m18.237 36.12-1.577-.762c-.038-.019-.06.054-.06.122v4.17c0 .067.022.102.06.122l1.62.805c.087.079.062.008.06-.122v-4.17c0-.067-.03-.091-.06-.122z" transform="translate(43.789)"/><path style="fill:none;stroke:#000;stroke-width:.396875;stroke-linecap:square;stroke-linejoin:bevel;stroke-miterlimit:0;stroke-dasharray:none;paint-order:markers fill stroke" d="m18.549 34.38-4.204-2.17c-.08-.04-.162.073-.162.163v5.533c0 .09.082.121.162.163l4.204 2.17c.233.103.167.01.162-.163v-5.533c0-.09-.082-.121-.162-.162z" transform="translate(49.893 .46) scale(.74296)"/><path style="fill:none;stroke:#000;stroke-width:.198437;stroke-linecap:square;stroke-linejoin:bevel;stroke-miterlimit:0;stroke-dasharray:none;paint-order:markers fill stroke" d="m16.33 33.18-2.123-1.026c-.052-.026-.081.073-.081.164v5.612c0 .091.03.139.081.165l2.18 1.084c.117.105.084.01.082-.165v-5.611c0-.092-.04-.124-.081-.165z" transform="translate(49.893 .46) scale(.74296)"/><path style="fill:none;stroke:#000;stroke-width:.396875;stroke-linecap:square;stroke-linejoin:bevel;stroke-miterlimit:0;stroke-dasharray:none;paint-order:markers fill stroke" d="m18.549 34.38-4.204-2.17c-.08-.04-.162.073-.162.163v5.533c0 .09.082.121.162.163l4.204 2.17c.233.103.167.01.162-.163v-5.533c0-.09-.082-.121-.162-.162z" transform="translate(49.893 -10.548) scale(.74296)"/><path style="fill:none;stroke:#000;stroke-width:.198437;stroke-linecap:square;stroke-linejoin:bevel;stroke-miterlimit:0;stroke-dasharray:none;paint-order:markers fill stroke" d="m16.33 33.18-2.123-1.026c-.052-.026-.081.073-.081.164v5.612c0 .091.03.139.081.165l2.18 1.084c.117.105.084.01.082-.165v-5.611c0-.092-.04-.124-.081-.165z" transform="translate(49.893 -10.548) scale(.74296)"/><path style="fill:none;stroke:#000;stroke-width:.198437;stroke-linecap:square;stroke-linejoin:bevel;stroke-miterlimit:0;stroke-dasharray:none;paint-order:markers fill stroke" d="m32.117 34.19-2.993.587c-.047.01-.187.078-.186.175l.066 6.434c0 .098.066.197.187.176l3.125-.559c.267-.037.234-.145.186-.175l-.066-6.401s-.092-.132-.186-.176z" transform="translate(49.893 11.469) scale(.74296)"/><path style="fill:none;stroke:#000;stroke-width:.396875;stroke-linecap:square;stroke-linejoin:bevel;stroke-miterlimit:0;stroke-dasharray:none;paint-order:markers fill stroke" d="m29.179 34.794 9.727-1.956c.101-.02.187.084.187.188v6.386c0 .104-.086.167-.187.188l-9.727 1.956c-.102.02-.188-.084-.188-.188v-6.386c0-.104.086-.167.188-.188z" transform="translate(49.893 11.469) scale(.74296)"/><path style="fill:none;stroke:#000;stroke-width:.198437;stroke-linecap:square;stroke-linejoin:bevel;stroke-miterlimit:0;stroke-dasharray:none;paint-order:markers fill stroke" d="m38.782 32.754-2.992.587c-.047.01-.188.079-.187.176l.078 6.504c.002.097.066.197.187.175l3.125-.558c.268-.037.235-.145.187-.175l-.078-6.472s-.093-.131-.187-.175z" transform="translate(49.893 11.469) scale(.74296)"/><g><path style="fill:none;stroke:#000;stroke-width:.198437;stroke-linecap:square;stroke-linejoin:bevel;stroke-miterlimit:0;stroke-dasharray:none;paint-order:markers fill stroke" d="m32.117 34.19-2.993.587c-.047.01-.187.078-.186.175l.066 6.434c0 .098.066.197.187.176l3.125-.559c.267-.037.234-.145.186-.175l-.066-6.401s-.092-.132-.186-.176z" transform="translate(49.893 .46) scale(.74296)"/><path style="fill:none;stroke:#000;stroke-width:.396875;stroke-linecap:square;stroke-linejoin:bevel;stroke-miterlimit:0;stroke-dasharray:none;paint-order:markers fill stroke" d="m29.179 34.794 9.727-1.956c.101-.02.187.084.187.188v6.386c0 .104-.086.167-.187.188l-9.727 1.956c-.102.02-.188-.084-.188-.188v-6.386c0-.104.086-.167.188-.188z" transform="translate(49.893 .46) scale(.74296)"/><path style="fill:none;stroke:#000;stroke-width:.198437;stroke-linecap:square;stroke-linejoin:bevel;stroke-miterlimit:0;stroke-dasharray:none;paint-order:markers fill stroke" d="m38.782 32.754-2.992.587c-.047.01-.188.079-.187.176l.078 6.504c.002.097.066.197.187.175l3.125-.558c.268-.037.235-.145.187-.175l-.078-6.472s-.093-.131-.187-.175z" transform="translate(49.893 .46) scale(.74296)"/></g><g><path style="fill:none;stroke:#000;stroke-width:.198437;stroke-linecap:square;stroke-linejoin:bevel;stroke-miterlimit:0;stroke-dasharray:none;paint-order:markers fill stroke" d="m32.117 34.19-2.993.587c-.047.01-.187.078-.186.175l.066 6.434c0 .098.066.197.187.176l3.125-.559c.267-.037.234-.145.186-.175l-.066-6.401s-.092-.132-.186-.176z" transform="translate(49.893 -10.548) scale(.74296)"/><path style="fill:none;stroke:#000;stroke-width:.396875;stroke-linecap:square;stroke-linejoin:bevel;stroke-miterlimit:0;stroke-dasharray:none;paint-order:markers fill stroke" d="m29.179 34.794 9.727-1.956c.101-.02.187.084.187.188v6.386c0 .104-.086.167-.187.188l-9.727 1.956c-.102.02-.188-.084-.188-.188v-6.386c0-.104.086-.167.188-.188z" transform="translate(49.893 -10.548) scale(.74296)"/><path style="fill:none;stroke:#000;stroke-width:.198437;stroke-linecap:square;stroke-linejoin:bevel;stroke-miterlimit:0;stroke-dasharray:none;paint-order:markers fill stroke" d="m38.782 32.754-2.992.587c-.047.01-.188.079-.187.176l.078 6.504c.002.097.066.197.187.175l3.125-.558c.268-.037.235-.145.187-.175l-.078-6.472s-.093-.131-.187-.175z" transform="translate(49.893 -10.548) scale(.74296)"/></g><path style="fill:none;stroke:#3454b4;stroke-width:1.183;stroke-linecap:square;stroke-linejoin:bevel;stroke-miterlimit:0;stroke-dasharray:none;stroke-opacity:1;marker-end:url(#a);paint-order:markers fill stroke" d="m22.867 13.822.079 30.645" transform="translate(43.789)"/><path style="fill:none;stroke:#000;stroke-width:.604233;stroke-linecap:square;stroke-linejoin:bevel;stroke-miterlimit:0;paint-order:markers fill stroke" d="m39.136 9.473-8.465-4.47c-.15-.08-.339-.155-.503-.112l-15.56 4.047c-.164.043-.133-.011.017.066l7.925 4.09c.438.197.388.438.38.112l16.413-3.28c.167-.033-.057-.374-.207-.453z" transform="translate(43.789)"/></g><g><path style="fill:none;stroke:#000;stroke-width:1.19062;stroke-linecap:square;stroke-linejoin:round;stroke-miterlimit:0;stroke-dasharray:none;paint-order:markers fill stroke" d="m-14.807 33.588-33.812.145-.136-19.683 17.008-10.663 17.003 11.015z"/><path style="fill:none;stroke:#3454b4;stroke-width:.92604167;stroke-linecap:square;stroke-linejoin:round;stroke-miterlimit:0;stroke-dasharray:none;stroke-opacity:1;marker-end:url(#b);paint-order:markers fill stroke" d="m-31.777 3.592-.032 26.247"/><rect style="fill:none;stroke:#000;stroke-width:.500457;stroke-linecap:square;stroke-linejoin:bevel;stroke-miterlimit:0;stroke-dasharray:none;stroke-opacity:1;paint-order:markers fill stroke" width="9.687" height="7.653" x="-45.477" y="14.625" ry=".387"/><rect style="fill:none;stroke:#000;stroke-width:.363019;stroke-linecap:square;stroke-linejoin:bevel;stroke-miterlimit:0;stroke-dasharray:none;stroke-opacity:1;paint-order:markers fill stroke" width="5.007" height="7.79" x="-45.546" y="14.557" ry=".394"/><rect style="fill:none;stroke:#000;stroke-width:.360333;stroke-linecap:square;stroke-linejoin:bevel;stroke-miterlimit:0;stroke-dasharray:none;stroke-opacity:1;paint-order:markers fill stroke" width="9.827" height="3.911" x="-45.547" y="14.555" ry=".198"/><g transform="translate(17.463)"><rect style="fill:none;stroke:#000;stroke-width:.500457;stroke-linecap:square;stroke-linejoin:bevel;stroke-miterlimit:0;stroke-dasharray:none;stroke-opacity:1;paint-order:markers fill stroke" width="9.687" height="7.653" x="-45.477" y="14.625" ry=".387"/><rect style="fill:none;stroke:#000;stroke-width:.363019;stroke-linecap:square;stroke-linejoin:bevel;stroke-miterlimit:0;stroke-dasharray:none;stroke-opacity:1;paint-order:markers fill stroke" width="5.007" height="7.79" x="-45.546" y="14.557" ry=".394"/><rect style="fill:none;stroke:#000;stroke-width:.360333;stroke-linecap:square;stroke-linejoin:bevel;stroke-miterlimit:0;stroke-dasharray:none;stroke-opacity:1;paint-order:markers fill stroke" width="9.827" height="3.911" x="-45.547" y="14.555" ry=".198"/></g></g><g><path style="fill:none;stroke:#000;stroke-width:1.19062;stroke-linecap:square;stroke-linejoin:round;stroke-miterlimit:0;stroke-dasharray:none;paint-order:markers fill stroke" d="m-14.807 73.276-33.812.145-.136-19.684 17.008-10.663 17.003 11.015z"/><path style="fill:none;stroke:#000;stroke-width:.926042;stroke-linecap:square;stroke-linejoin:round;stroke-miterlimit:0;stroke-dasharray:none;stroke-opacity:1;marker-end:url(#b);paint-order:markers fill stroke" d="m-31.777 43.28-.032 26.246"/></g><g><path style="fill:none;stroke:#3454b4;stroke-width:.926042;stroke-linecap:square;stroke-linejoin:round;stroke-miterlimit:0;stroke-dasharray:none;stroke-opacity:1;marker-end:url(#b);paint-order:markers fill stroke" d="M9.498 63.123 9.466 89.37"/><path style="fill:none;stroke:#000;stroke-width:1.19062;stroke-linecap:square;stroke-linejoin:round;stroke-miterlimit:0;stroke-dasharray:none;paint-order:markers fill stroke" d="m26.468 93.12-33.812.145-.136-19.684L9.528 62.918 26.53 73.933z"/><g transform="matrix(-1 -.2281 0 1 -39.727 50.362)"><rect style="fill:none;stroke:#000;stroke-width:.500457;stroke-linecap:square;stroke-linejoin:bevel;stroke-miterlimit:0;stroke-dasharray:none;stroke-opacity:1;paint-order:markers fill stroke" width="9.687" height="7.653" x="-45.477" y="14.625" ry=".387"/><rect style="fill:none;stroke:#000;stroke-width:.363019;stroke-linecap:square;stroke-linejoin:bevel;stroke-miterlimit:0;stroke-dasharray:none;stroke-opacity:1;paint-order:markers fill stroke" width="5.007" height="7.79" x="-45.546" y="14.557" ry=".394"/><rect style="fill:none;stroke:#000;stroke-width:.360333;stroke-linecap:square;stroke-linejoin:bevel;stroke-miterlimit:0;stroke-dasharray:none;stroke-opacity:1;paint-order:markers fill stroke" width="9.827" height="3.911" x="-45.547" y="14.555" ry=".198"/></g><g transform="matrix(1 -.2281 0 1 58.473 50.362)"><rect style="fill:none;stroke:#000;stroke-width:.500457;stroke-linecap:square;stroke-linejoin:bevel;stroke-miterlimit:0;stroke-dasharray:none;stroke-opacity:1;paint-order:markers fill stroke" width="9.687" height="7.653" x="-45.477" y="14.625" ry=".387"/><rect style="fill:none;stroke:#000;stroke-width:.363019;stroke-linecap:square;stroke-linejoin:bevel;stroke-miterlimit:0;stroke-dasharray:none;stroke-opacity:1;paint-order:markers fill stroke" width="5.007" height="7.79" x="-45.546" y="14.557" ry=".394"/><rect style="fill:none;stroke:#000;stroke-width:.360333;stroke-linecap:square;stroke-linejoin:bevel;stroke-miterlimit:0;stroke-dasharray:none;stroke-opacity:1;paint-order:markers fill stroke" width="9.827" height="3.911" x="-45.547" y="14.555" ry=".198"/></g></g><g><path style="fill:none;stroke:#3454b4;stroke-width:.926042;stroke-linecap:square;stroke-linejoin:round;stroke-miterlimit:0;stroke-dasharray:none;stroke-opacity:1;marker-end:url(#b);paint-order:markers fill stroke" d="m51.302 63.123-.031 26.247"/><path style="fill:none;stroke:#000;stroke-width:1.19062;stroke-linecap:square;stroke-linejoin:round;stroke-miterlimit:0;stroke-dasharray:none;paint-order:markers fill stroke" d="m68.273 93.12-33.813.145-.136-19.684 17.008-10.663 17.003 11.015z"/><g transform="matrix(1 -.2281 0 1 83.344 50.362)"><rect style="fill:none;stroke:#000;stroke-width:.500457;stroke-linecap:square;stroke-linejoin:bevel;stroke-miterlimit:0;stroke-dasharray:none;stroke-opacity:1;paint-order:markers fill stroke" width="9.687" height="7.653" x="-45.477" y="14.625" ry=".387"/><rect style="fill:none;stroke:#000;stroke-width:.363019;stroke-linecap:square;stroke-linejoin:bevel;stroke-miterlimit:0;stroke-dasharray:none;stroke-opacity:1;paint-order:markers fill stroke" width="5.007" height="7.79" x="-45.546" y="14.557" ry=".394"/><rect style="fill:none;stroke:#000;stroke-width:.360333;stroke-linecap:square;stroke-linejoin:bevel;stroke-miterlimit:0;stroke-dasharray:none;stroke-opacity:1;paint-order:markers fill stroke" width="9.827" height="3.911" x="-45.547" y="14.555" ry=".198"/></g><g transform="matrix(-1 -.2281 0 1 19.01 50.362)"><rect style="fill:none;stroke:#000;stroke-width:.500457;stroke-linecap:square;stroke-linejoin:bevel;stroke-miterlimit:0;stroke-dasharray:none;stroke-opacity:1;paint-order:markers fill stroke" width="9.687" height="7.653" x="-45.477" y="14.625" ry=".387"/><rect style="fill:none;stroke:#000;stroke-width:.363019;stroke-linecap:square;stroke-linejoin:bevel;stroke-miterlimit:0;stroke-dasharray:none;stroke-opacity:1;paint-order:markers fill stroke" width="5.007" height="7.79" x="-45.546" y="14.557" ry=".394"/><rect style="fill:none;stroke:#000;stroke-width:.360333;stroke-linecap:square;stroke-linejoin:bevel;stroke-miterlimit:0;stroke-dasharray:none;stroke-opacity:1;paint-order:markers fill stroke" width="9.827" height="3.911" x="-45.547" y="14.555" ry=".198"/></g></g><g><path style="fill:none;stroke:#000;stroke-width:.813277;stroke-linecap:square;stroke-linejoin:bevel;stroke-miterlimit:0;paint-order:markers fill stroke" d="m22.978 17.075 21.38-4.3c.225-.044.413.185.413.413v14.04c0 .227-.188.366-.412.411l-21.381 4.3c-.224.045-.413-.184-.413-.412v-14.04c0-.228.189-.367.413-.412z" transform="translate(80.056 11.469) scale(.74296)"/><path style="fill:none;stroke:#000;stroke-width:.813277;stroke-linecap:square;stroke-linejoin:bevel;stroke-miterlimit:0;paint-order:markers fill stroke" d="m22.134 16.958-10.666-5.505c-.203-.105-.412.184-.412.412v14.04c0 .227.21.307.412.411l10.666 5.506c.59.264.424.026.412-.412V17.37c0-.228-.21-.307-.412-.412z" transform="translate(80.056 11.469) scale(.74296)"/><path style="fill:none;stroke:#000;stroke-width:.604233;stroke-linecap:square;stroke-linejoin:bevel;stroke-miterlimit:0;paint-order:markers fill stroke" d="m22.55 13.06-7.925-4.09c-.15-.078-.306.136-.306.306v10.43c0 .17.156.229.306.307l7.925 4.09c.438.196.314.02.306-.306v-10.43c0-.17-.156-.229-.306-.307z" transform="translate(73.951)"/><path style="fill:none;stroke:#000;stroke-width:.604233;stroke-linecap:square;stroke-linejoin:bevel;stroke-miterlimit:0;paint-order:markers fill stroke" d="m23.176 13.147 15.886-3.194c.166-.034.306.136.306.306v10.43c0 .17-.14.273-.306.307L23.176 24.19c-.166.033-.306-.137-.306-.306v-10.43c0-.17.14-.274.306-.307z" transform="translate(73.951)"/><path style="fill:none;stroke:#000;stroke-width:.604233;stroke-linecap:square;stroke-linejoin:bevel;stroke-miterlimit:0;stroke-dasharray:none;paint-order:markers fill stroke" d="m22.55 35.077-7.925-4.09c-.15-.079-.306.136-.306.305v10.43c0 .17.156.23.306.307l7.925 4.09c.438.196.314.02.306-.306v-10.43c0-.17-.156-.229-.306-.306z" transform="translate(73.951)"/><path style="fill:none;stroke:#000;stroke-width:.604233;stroke-linecap:square;stroke-linejoin:bevel;stroke-miterlimit:0;paint-order:markers fill stroke" d="m23.176 35.163 15.886-3.194c.166-.033.306.137.306.306v10.43c0 .17-.14.274-.306.307l-15.886 3.194c-.166.034-.306-.136-.306-.306V35.47c0-.17.14-.273.306-.307z" transform="translate(73.951)"/><path style="fill:none;stroke:#000;stroke-width:.294863;stroke-linecap:square;stroke-linejoin:bevel;stroke-miterlimit:0;stroke-dasharray:none;paint-order:markers fill stroke" d="M19.886 37.012 16.763 35.4c-.06-.03-.12.054-.12.12v4.112c0 .067.06.09.12.12l3.123 1.613c.173.077.124.007.12-.121v-4.111c0-.067-.06-.09-.12-.12z" transform="translate(73.951)"/><path style="fill:none;stroke:#000;stroke-width:.147431;stroke-linecap:square;stroke-linejoin:bevel;stroke-miterlimit:0;stroke-dasharray:none;paint-order:markers fill stroke" d="m18.237 36.12-1.577-.762c-.038-.019-.06.054-.06.122v4.17c0 .067.022.102.06.122l1.62.805c.087.079.062.008.06-.122v-4.17c0-.067-.03-.091-.06-.122z" transform="translate(73.951)"/><path style="fill:none;stroke:#000;stroke-width:.396875;stroke-linecap:square;stroke-linejoin:bevel;stroke-miterlimit:0;stroke-dasharray:none;paint-order:markers fill stroke" d="m18.549 34.38-4.204-2.17c-.08-.04-.162.073-.162.163v5.533c0 .09.082.121.162.163l4.204 2.17c.233.103.167.01.162-.163v-5.533c0-.09-.082-.121-.162-.162z" transform="translate(80.056 .46) scale(.74296)"/><path style="fill:none;stroke:#000;stroke-width:.198437;stroke-linecap:square;stroke-linejoin:bevel;stroke-miterlimit:0;stroke-dasharray:none;paint-order:markers fill stroke" d="m16.33 33.18-2.123-1.026c-.052-.026-.081.073-.081.164v5.612c0 .091.03.139.081.165l2.18 1.084c.117.105.084.01.082-.165v-5.611c0-.092-.04-.124-.081-.165z" transform="translate(80.056 .46) scale(.74296)"/><path style="fill:none;stroke:#000;stroke-width:.396875;stroke-linecap:square;stroke-linejoin:bevel;stroke-miterlimit:0;stroke-dasharray:none;paint-order:markers fill stroke" d="m18.549 34.38-4.204-2.17c-.08-.04-.162.073-.162.163v5.533c0 .09.082.121.162.163l4.204 2.17c.233.103.167.01.162-.163v-5.533c0-.09-.082-.121-.162-.162z" transform="translate(80.056 -10.548) scale(.74296)"/><path style="fill:none;stroke:#000;stroke-width:.198437;stroke-linecap:square;stroke-linejoin:bevel;stroke-miterlimit:0;stroke-dasharray:none;paint-order:markers fill stroke" d="m16.33 33.18-2.123-1.026c-.052-.026-.081.073-.081.164v5.612c0 .091.03.139.081.165l2.18 1.084c.117.105.084.01.082-.165v-5.611c0-.092-.04-.124-.081-.165z" transform="translate(80.056 -10.548) scale(.74296)"/><path style="fill:none;stroke:#000;stroke-width:.198437;stroke-linecap:square;stroke-linejoin:bevel;stroke-miterlimit:0;stroke-dasharray:none;paint-order:markers fill stroke" d="m32.117 34.19-2.993.587c-.047.01-.187.078-.186.175l.066 6.434c0 .098.066.197.187.176l3.125-.559c.267-.037.234-.145.186-.175l-.066-6.401s-.092-.132-.186-.176z" transform="translate(80.056 11.469) scale(.74296)"/><path style="fill:none;stroke:#000;stroke-width:.396875;stroke-linecap:square;stroke-linejoin:bevel;stroke-miterlimit:0;stroke-dasharray:none;paint-order:markers fill stroke" d="m29.179 34.794 9.727-1.956c.101-.02.187.084.187.188v6.386c0 .104-.086.167-.187.188l-9.727 1.956c-.102.02-.188-.084-.188-.188v-6.386c0-.104.086-.167.188-.188z" transform="translate(80.056 11.469) scale(.74296)"/><path style="fill:none;stroke:#000;stroke-width:.198437;stroke-linecap:square;stroke-linejoin:bevel;stroke-miterlimit:0;stroke-dasharray:none;paint-order:markers fill stroke" d="m38.782 32.754-2.992.587c-.047.01-.188.079-.187.176l.078 6.504c.002.097.066.197.187.175l3.125-.558c.268-.037.235-.145.187-.175l-.078-6.472s-.093-.131-.187-.175z" transform="translate(80.056 11.469) scale(.74296)"/><g><path style="fill:none;stroke:#000;stroke-width:.198437;stroke-linecap:square;stroke-linejoin:bevel;stroke-miterlimit:0;stroke-dasharray:none;paint-order:markers fill stroke" d="m32.117 34.19-2.993.587c-.047.01-.187.078-.186.175l.066 6.434c0 .098.066.197.187.176l3.125-.559c.267-.037.234-.145.186-.175l-.066-6.401s-.092-.132-.186-.176z" transform="translate(80.056 .46) scale(.74296)"/><path style="fill:none;stroke:#000;stroke-width:.396875;stroke-linecap:square;stroke-linejoin:bevel;stroke-miterlimit:0;stroke-dasharray:none;paint-order:markers fill stroke" d="m29.179 34.794 9.727-1.956c.101-.02.187.084.187.188v6.386c0 .104-.086.167-.187.188l-9.727 1.956c-.102.02-.188-.084-.188-.188v-6.386c0-.104.086-.167.188-.188z" transform="translate(80.056 .46) scale(.74296)"/><path style="fill:none;stroke:#000;stroke-width:.198437;stroke-linecap:square;stroke-linejoin:bevel;stroke-miterlimit:0;stroke-dasharray:none;paint-order:markers fill stroke" d="m38.782 32.754-2.992.587c-.047.01-.188.079-.187.176l.078 6.504c.002.097.066.197.187.175l3.125-.558c.268-.037.235-.145.187-.175l-.078-6.472s-.093-.131-.187-.175z" transform="translate(80.056 .46) scale(.74296)"/></g><g><path style="fill:none;stroke:#000;stroke-width:.198437;stroke-linecap:square;stroke-linejoin:bevel;stroke-miterlimit:0;stroke-dasharray:none;paint-order:markers fill stroke" d="m32.117 34.19-2.993.587c-.047.01-.187.078-.186.175l.066 6.434c0 .098.066.197.187.176l3.125-.559c.267-.037.234-.145.186-.175l-.066-6.401s-.092-.132-.186-.176z" transform="translate(80.056 -10.548) scale(.74296)"/><path style="fill:none;stroke:#000;stroke-width:.396875;stroke-linecap:square;stroke-linejoin:bevel;stroke-miterlimit:0;stroke-dasharray:none;paint-order:markers fill stroke" d="m29.179 34.794 9.727-1.956c.101-.02.187.084.187.188v6.386c0 .104-.086.167-.187.188l-9.727 1.956c-.102.02-.188-.084-.188-.188v-6.386c0-.104.086-.167.188-.188z" transform="translate(80.056 -10.548) scale(.74296)"/><path style="fill:none;stroke:#000;stroke-width:.198437;stroke-linecap:square;stroke-linejoin:bevel;stroke-miterlimit:0;stroke-dasharray:none;paint-order:markers fill stroke" d="m38.782 32.754-2.992.587c-.047.01-.188.079-.187.176l.078 6.504c.002.097.066.197.187.175l3.125-.558c.268-.037.235-.145.187-.175l-.078-6.472s-.093-.131-.187-.175z" transform="translate(80.056 -10.548) scale(.74296)"/></g><path style="fill:none;stroke:#3454b4;stroke-width:1.183;stroke-linecap:square;stroke-linejoin:bevel;stroke-miterlimit:0;stroke-dasharray:none;stroke-opacity:1;marker-end:url(#a);paint-order:markers fill stroke" d="m22.867 13.822.013 19.532" transform="translate(73.951)"/><path style="fill:none;stroke:#000;stroke-width:.604233;stroke-linecap:square;stroke-linejoin:bevel;stroke-miterlimit:0;paint-order:markers fill stroke" d="m39.136 9.473-8.465-4.47c-.15-.08-.339-.155-.503-.112l-15.56 4.047c-.164.043-.133-.011.017.066l7.925 4.09c.438.197.388.438.38.112l16.413-3.28c.167-.033-.057-.374-.207-.453z" transform="translate(73.951)"/></g></svg>