<svg width="150" height="150" viewBox="0 0 39.687 39.688" xml:space="preserve" xmlns="http://www.w3.org/2000/svg"><path style="opacity:1;fill:none;stroke:#000;stroke-width:1.05833;stroke-linecap:round;stroke-linejoin:round;stroke-miterlimit:5.8;paint-order:markers fill stroke" d="m11.815 10.679 1.59.045c.568.016.627.49.682.818l1.772 10.678c.194 1.174 1.024 1.908 2.213 1.903l9.556-.04c.518-.002 1.633-.022 1.863-1.408l1.181-7.134c.105-.63-.026-1.498-.772-1.5l-15.404-.045" transform="matrix(1.86 0 0 1.86 -19.975 -17.726)"/><path style="opacity:1;fill:none;stroke:#000;stroke-width:.813541;stroke-linecap:round;stroke-linejoin:round;stroke-miterlimit:5.8;paint-order:markers fill stroke" d="M20.672 27.853a1.692 1.729 0 0 1-1.504 1.852 1.692 1.729 0 0 1-1.859-1.479 1.692 1.729 0 0 1 1.39-1.944 1.692 1.729 0 0 1 1.944 1.36M27.326 27.853a1.692 1.729 0 0 1-1.504 1.852 1.692 1.729 0 0 1-1.859-1.479 1.692 1.729 0 0 1 1.39-1.944 1.692 1.729 0 0 1 1.944 1.36" transform="matrix(1.86 0 0 1.86 -19.975 -17.726)"/></svg>