<svg width="210" height="150" viewBox="0 0 55.562 39.688" xml:space="preserve" xmlns="http://www.w3.org/2000/svg"><path style="fill:none;stroke:#000;stroke-width:1.05527;stroke-linecap:round;stroke-linejoin:round;stroke-miterlimit:5.8;stroke-dasharray:none;paint-order:markers fill stroke" d="M28.246 22.13a6.477 1.603 0 0 1-5.898 1.722 6.477 1.603 0 0 1-7.007-1.445 6.477 1.603 0 0 1 5.772-1.747 6.477 1.603 0 0 1 7.11 1.413M15.372 15.154a6.477 1.603 0 0 1 6.692-1.495 6.477 1.603 0 0 1 6.247 1.609" transform="matrix(2.09438 0 0 2.09438 -17.872 -14.358)"/><path style="fill:none;stroke:#000;stroke-width:1.05833;stroke-linecap:round;stroke-linejoin:round;stroke-miterlimit:5.8;stroke-dasharray:none;paint-order:markers fill stroke" d="m15.359 15.268-.046 6.93M28.332 15.382l-.045 6.907M15.188 16.541l-5.62-2.708L21.71 8.25l12.248 5.66-5.372 2.534M11.988 15.113l.032 6.025-1.27.627-.048 2.618 2.635-.048v-2.587l-1.301-.722" transform="matrix(2.09438 0 0 2.09438 -17.872 -14.358)"/></svg>