<svg width="150" height="150" viewBox="0 0 39.687 39.688" xml:space="preserve" xmlns="http://www.w3.org/2000/svg"><g transform="translate(-7.784 -6.519) scale(1.41147)"><rect style="opacity:1;fill:none;stroke:#000;stroke-width:1.058;stroke-linecap:round;stroke-linejoin:round;stroke-miterlimit:5.8;paint-order:markers fill stroke" width="21.493" height="22.584" x="8.89" y="5.907" rx="1.028" ry="1.106"/><rect style="opacity:1;fill:none;stroke:#000;stroke-width:.969968;stroke-linecap:round;stroke-linejoin:round;stroke-miterlimit:5.8;paint-order:markers fill stroke" width="1.997" height="7.177" x="6.908" y="10.135" rx="0" ry=".473"/><rect style="opacity:1;fill:none;stroke:#000;stroke-width:.969968;stroke-linecap:round;stroke-linejoin:round;stroke-miterlimit:5.8;paint-order:markers fill stroke" width="1.997" height="7.177" x="30.357" y="10.135" rx="0" ry=".473"/><path style="opacity:1;fill:none;stroke:#000;stroke-width:1.058;stroke-linecap:round;stroke-linejoin:round;stroke-miterlimit:5.8;paint-order:markers fill stroke" d="m8.952 10.315 21.448-.09M14.86 7.998l9.587.045M8.952 21.357l21.266-.045M14.764 24.838a1.409 1.409 0 0 1-1.252 1.51 1.409 1.409 0 0 1-1.547-1.206 1.409 1.409 0 0 1 1.156-1.583 1.409 1.409 0 0 1 1.619 1.107M27.464 24.838a1.409 1.409 0 0 1-1.252 1.51 1.409 1.409 0 0 1-1.547-1.206 1.409 1.409 0 0 1 1.156-1.583 1.409 1.409 0 0 1 1.619 1.107M17.54 24.947h4.317"/><rect style="opacity:1;fill:none;stroke:#000;stroke-width:1.058;stroke-linecap:round;stroke-linejoin:round;stroke-miterlimit:5.8;paint-order:markers fill stroke" width="4.59" height="2.954" x="10.27" y="28.446" rx="1.028" ry=".515"/><rect style="opacity:1;fill:none;stroke:#000;stroke-width:1.058;stroke-linecap:round;stroke-linejoin:round;stroke-miterlimit:5.8;paint-order:markers fill stroke" width="4.59" height="2.954" x="24.557" y="28.446" rx="1.028" ry=".515"/></g></svg>