<svg width="200" height="150" viewBox="0 0 52.917 39.688" xml:space="preserve" xmlns="http://www.w3.org/2000/svg"><g transform="matrix(1.84003 0 0 1.84003 -10.403 -15.835)"><rect style="fill:none;stroke:#000;stroke-width:1.03434;stroke-linecap:round;stroke-linejoin:round;stroke-miterlimit:0;stroke-dasharray:none;paint-order:markers fill stroke" width="26.429" height="2.346" x="6.552" y="15.231" ry="1.173"/><path style="opacity:1;fill:none;stroke:#000;stroke-width:1.05833;stroke-linecap:round;stroke-linejoin:round;stroke-miterlimit:0;stroke-dasharray:none;paint-order:markers fill stroke" d="M7.907 17.54c-.69 4.321 1.945 8.588 5.18 8.588h13.905c2.668 0 5.793-4.395 4.59-8.588z"/><path style="opacity:1;fill:none;stroke:#000;stroke-width:1.05833;stroke-linecap:round;stroke-linejoin:round;stroke-miterlimit:0;stroke-dasharray:none;paint-order:markers fill stroke" d="M11.042 25.492v3.59l1.454-.045 1.09-2.727M28.933 25.492v3.59l-1.455-.045-1.09-2.727"/></g><path style="fill:none;stroke:#000;stroke-width:1.94736;stroke-linecap:round;stroke-linejoin:round;stroke-miterlimit:0;stroke-dasharray:none;paint-order:markers fill stroke" d="M39.68 6.071c.009-2.932.96-4.23 3.47-4.264 2.123-.03 3.148 2.089 2.969 4.013-.005.05.043.147.043.147l-.127 6.124"/></svg>