<svg width="443" height="378" viewBox="0 0 117.211 100.013" xml:space="preserve" xmlns="http://www.w3.org/2000/svg"><path style="opacity:1;fill:none;fill-opacity:1;stroke:#737373;stroke-width:.211667;stroke-linecap:butt;stroke-linejoin:round;stroke-miterlimit:5.8;stroke-dasharray:.846664,.211667;stroke-dashoffset:0;stroke-opacity:1;paint-order:markers fill stroke" d="M93.805 47.947 75.606 25.88M84.977 56.724s-1.14 1.012-1.822.948c-.216-.02-.36-.245-.51-.4-.842-.868-2.152-2.917-2.152-2.917M92.815 50.163l-2.479-3.464-8.056-8.858.802-.62M105.2 41.683l-1.135-1.444" transform="translate(-8.249 -27.634)"/><path style="fill:none;fill-opacity:1;stroke:#737373;stroke-width:.211667;stroke-linecap:butt;stroke-linejoin:round;stroke-miterlimit:5.8;stroke-dasharray:.846664,.211667;stroke-dashoffset:0;stroke-opacity:1;paint-order:markers fill stroke" d="M84.9 63.194c.553 1.534 2.049 5.246 2.049 5.246l-1.83 1.005-8.726.116" transform="translate(-8.249 -27.634)"/><path style="fill:none;fill-opacity:1;stroke:#737373;stroke-width:.211667;stroke-linecap:butt;stroke-linejoin:round;stroke-miterlimit:5.8;stroke-dasharray:.846664,.211667;stroke-dashoffset:0;stroke-opacity:1;paint-order:markers fill stroke" d="m92.697 79.035-3.12 1.366s-.937-.04-1.314-.284c-1.006-.649-2.14-2.887-2.14-2.887l-2.758 2.45-7.088-9.9-6.935-5.8-4.253-.128" transform="translate(-8.249 -27.634)"/><path style="fill:none;fill-opacity:1;stroke:#737373;stroke-width:.211667;stroke-linecap:butt;stroke-linejoin:round;stroke-miterlimit:5.8;stroke-dasharray:.846664,.211667;stroke-dashoffset:0;stroke-opacity:1;paint-order:markers fill stroke" d="m83.365 79.653.078.903-5.388 4.949-5.98-6.032 7.114-5.748M90.441 85.937l-5.967-7.16M91.91 66.468l6.497-3.196M109.22 53.644l7.553-.155 5.079-4.305-2.99-3.815-3.068 2.655-3.248-4.15s-.457-.322-.722-.335c-.209-.01-.593.206-.593.206l-2.655 2.165-3.48-4.305M89.024 59.908l7.114-3.339s-1.233-1.978-1.276-3.093c-.008-.208.053-.44.194-.593.81-.886 2.197-.971 3.312-1.418 1.618-.648 4.898-1.83 4.898-1.83l2.307 6.058M72.017 79.418l-.09 11.757 6.124-5.67" transform="translate(-8.249 -27.634)"/><path style="fill:none;fill-opacity:1;stroke:#737373;stroke-width:.211667;stroke-linecap:butt;stroke-linejoin:round;stroke-miterlimit:5.8;stroke-dasharray:.846664,.211667;stroke-dashoffset:0;stroke-opacity:1;paint-order:markers fill stroke" d="M72.364 83.993c.4.365 1.645 2.223 2.533 3.281.963 1.146 3.026 3.317 3.026 3.317l2.68-2.314-2.516-2.771M85.325 99.245l-3.97-4.744 8.97-7.011s.393-.453.41-.693c.018-.276-.306-.854-.306-.854l.902-.618 2.861-5.053M72.054 84.048l3.645-.912M72 86.91l6.014-1.386M77.85 90.464l3.591 4.101M80.694 93.617l-.42-5.067M80.62 88.295l3.482 3.955M81.386 94.456l-8.33 5.723M86.124 77.308l1.856-1.676 6.908-2.964.413.837M95.172 52.806l-.18-2.63M96.125 56.556l2.462 5.89M88.418 60.075s-2.565 1.173-2.642 1.276c-.078.103-.928 1.985-.928 1.985l-.297 4.782 3.364 7.463M104.503 52.56l2.939-2.474M106.875 50.576l2.371 3.12.13.72" transform="translate(-8.249 -27.634)"/><path style="fill:none;stroke:#000;stroke-width:.79375;stroke-linecap:round;stroke-linejoin:round;stroke-miterlimit:5.8;stroke-dasharray:none;stroke-opacity:1;paint-order:markers fill stroke" d="M121.128 69.887 66.371 114.84l-12.96 10.782" transform="translate(-8.249 -27.634)"/><path style="opacity:1;fill:none;fill-opacity:1;stroke:#737373;stroke-width:.211667;stroke-linecap:butt;stroke-linejoin:round;stroke-miterlimit:5.8;stroke-dasharray:.846664,.211667;stroke-dashoffset:0;stroke-opacity:1;paint-order:markers fill stroke" d="m65.45 60.268-55.01-2.062-.31-.283-.283-.258.206-27.325-.618-2.423.232-14.667L9.306.722" transform="translate(-8.249 -27.634)"/><path style="fill:none;stroke:#000;stroke-width:.79375;stroke-linecap:round;stroke-linejoin:round;stroke-miterlimit:5.8;stroke-dasharray:none;stroke-opacity:1;paint-order:markers fill stroke" d="m11.882 75.475-.82-75.26M7.179 69.39s2.727 1.627 4.567-1.938" transform="translate(-8.249 -27.634)"/><path style="opacity:1;fill:none;stroke:#deb522;stroke-width:1.29646;stroke-linecap:round;stroke-linejoin:round;stroke-miterlimit:5.8;stroke-dasharray:none;stroke-opacity:1;paint-order:markers fill stroke" d="m2.103 63.542 59.73 72.135M-.035 64.564l63.631 77.578" transform="translate(-8.249 -27.634)"/><path style="fill:none;stroke:#000;stroke-width:.79375;stroke-linecap:round;stroke-linejoin:round;stroke-miterlimit:5.8;stroke-dasharray:none;stroke-opacity:1;paint-order:markers fill stroke" d="m11.784 67.628 44.863 55.157" transform="translate(-8.249 -27.634)"/><path style="opacity:1;fill:none;fill-opacity:1;stroke:#737373;stroke-width:.211667;stroke-linecap:butt;stroke-linejoin:round;stroke-miterlimit:5.8;stroke-dasharray:.846664,.211667;stroke-dashoffset:0;stroke-opacity:1;paint-order:markers fill stroke" d="m14.461 60.449-.18 7.192 11.96 13.817 32.326 39.955M24.695 82.773l4.228-3.66M35.831 88.16l-8.61-11.42.026-4.588-.18-.438-.542-.077" transform="translate(-8.249 -27.634)"/><path style="opacity:1;fill:none;fill-opacity:1;stroke:#737373;stroke-width:.211667;stroke-linecap:butt;stroke-linejoin:round;stroke-miterlimit:5.8;stroke-dasharray:.846664,.211667;stroke-dashoffset:0;stroke-opacity:1;paint-order:markers fill stroke" d="m22.504 77.05-.077-14.487.541-.954L58 62.82" transform="translate(-8.249 -27.634)"/><path style="fill:none;stroke:#000;stroke-width:.79375;stroke-linecap:round;stroke-linejoin:round;stroke-miterlimit:5.8;stroke-dasharray:none;stroke-opacity:1;paint-order:markers fill stroke" d="m11.696 59.994 54.54 1.84c.485-.008.627-.282.723-.592l1.248-42.53 2.76-12.667.46-5.98" transform="translate(-8.249 -27.634)"/><path style="fill:none;stroke:#000;stroke-width:.555625;stroke-linecap:round;stroke-linejoin:round;stroke-miterlimit:5.8;stroke-dasharray:none;stroke-opacity:1;paint-order:markers fill stroke" d="m11.755 63.517 6.656.162s.895.105.918.813c.023.71-.046 6.738-.046 6.738l1.719 2.207 1.766-1.348 3.74-.441-.163-7.434s.093-.697.837-.72c.743-.024 15.588-.186 15.588-.186l1.487.51.07-2.74M18.26 75.551l3.044-2.344" transform="translate(-8.249 -27.634)"/><path style="fill:none;stroke:#000;stroke-width:.555625;stroke-linecap:round;stroke-linejoin:round;stroke-miterlimit:5.8;stroke-dasharray:none;stroke-opacity:1;paint-order:markers fill stroke" d="M44.272 63.673v4.206l-1.708 2.448.805 11.713-9.692 8.246-2.251 1.61M66.006 61.702l.362 12.912.328 13.34.592 8.016.23 3.056 1.97 3.318 4.535 6.21" transform="translate(-8.249 -27.634)"/><path style="fill:none;stroke:#000;stroke-width:.79375;stroke-linecap:round;stroke-linejoin:round;stroke-miterlimit:5.8;stroke-dasharray:none;stroke-opacity:1;paint-order:markers fill stroke" d="m131.304 56.808-10.932 8.087c-1.287.93-1.317 1.973-.562 3.088l10.655 13.669" transform="translate(-8.249 -27.634)"/><path style="fill:none;stroke:#000;stroke-width:.555625;stroke-linecap:round;stroke-linejoin:round;stroke-miterlimit:5.8;stroke-dasharray:none;stroke-opacity:1;paint-order:markers fill stroke" d="m67.28 95.81 5.6 2.892c.494.527.29.97.023 1.405l-3.38 2.173" transform="translate(-8.249 -27.634)"/><path style="opacity:1;fill:none;fill-opacity:1;stroke:#737373;stroke-width:.211667;stroke-linecap:butt;stroke-linejoin:round;stroke-miterlimit:5.8;stroke-dasharray:.846664,.211667;stroke-dashoffset:0;stroke-opacity:1;paint-order:markers fill stroke" d="m65.424 61.557.412-8.61.052-18.508-.825-.825" transform="translate(-8.249 -27.634)"/><path style="fill:none;stroke:#000;stroke-width:.555625;stroke-linecap:round;stroke-linejoin:round;stroke-miterlimit:5.8;stroke-dasharray:none;stroke-opacity:1;paint-order:markers fill stroke" d="m58.104 61.542-.093 5.46c.03.556.29.982 1.185 1.045h1.347c.417-.018.51.373.465.94l.093 6.006c.047.35.126.681.72.697l2.741-.07s.488.047.465-.464c-.023-.511.07-11.546.07-11.546s-.07-.465.302-.442c.371.023 6.737-.07 6.737-.07l5.738-.836M66.583 61.844l12.773.195c.157.135 5.081-2.483 5.081-2.483l2.324-1.87 7.976-7.546 8.279-6.946 7.483-6.525 4.28 1.708 5.215 6.641 2.222 2.245 1.987 2.643 2.994 3.204s1.24 1.192 3.484.655" transform="translate(-8.249 -27.634)"/><path style="fill:none;stroke:#000;stroke-width:.555625;stroke-linecap:round;stroke-linejoin:round;stroke-miterlimit:5.8;stroke-dasharray:none;stroke-opacity:1;paint-order:markers fill stroke" d="m124.203 49.812-5.659 4.49-11.038.328-8.185 5.73-5.332 18.054.21 1.8 2.198-.842s.702-.327 1.24.375c.538.701 4.326 5.706 4.326 5.706M92.773 78.905l1.232-.18" transform="translate(-8.249 -27.634)"/><path style="opacity:1;fill:none;fill-opacity:1;stroke:#737373;stroke-width:.211667;stroke-linecap:butt;stroke-linejoin:round;stroke-miterlimit:5.8;stroke-dasharray:.846664,.211667;stroke-dashoffset:0;stroke-opacity:1;paint-order:markers fill stroke" d="m92.285 49.313 1.65-1.47 11.47-8.764 4.46-3.815.155-.98-.774-1.881-3.17-4.047.335-.387" transform="translate(-8.249 -27.634)"/><path style="fill:none;stroke:#000;stroke-width:.555625;stroke-linecap:round;stroke-linejoin:round;stroke-miterlimit:5.8;stroke-dasharray:none;stroke-opacity:1;paint-order:markers fill stroke" d="m79.045 61.926 14.967-12.535L76.66 29.513v-.561l-3.532-3.438s-4.326-1.076-5.145-.725M93.919 49.274l.771.842M76.671 29.396l-.947 12.138" transform="translate(-8.249 -27.634)"/><path style="fill:none;stroke:#000;stroke-width:.555625;stroke-linecap:round;stroke-linejoin:round;stroke-miterlimit:5.8;stroke-dasharray:none;stroke-opacity:1;paint-order:markers fill stroke" d="m67.436 43.425 8.797.198 1.82-1.72s.627-.529 1.355.397 4.167 5.16 4.167 5.16.695.959 1.522.231c.826-.727 3.704-2.811 3.704-2.811" transform="translate(-8.249 -27.634)"/><path style="fill:none;stroke:#000;stroke-width:.555625;stroke-linecap:round;stroke-linejoin:round;stroke-miterlimit:5.8;stroke-dasharray:none;stroke-opacity:1;paint-order:markers fill stroke" d="m70.445 43.524-.132 10.021s-.165.926.926.926h4.035s.53-.066.595-.728c.066-.661.265-9.954.265-9.954M110.523 36.646l.514-.982.024-1.333-.492-1.497-11.576-13.798-6.364-7.733-6.732 5.278-5.893 5.051-4.49 4.093M92.305 11.6 83.582 1.051M64.475 52.747l2.69-.023M67.118 51.824l-5.53-.152-1.908-2.261.215-7.623" transform="translate(-8.249 -27.634)"/><path style="fill:none;stroke:#000;stroke-width:.555625;stroke-linecap:round;stroke-linejoin:round;stroke-miterlimit:5.8;stroke-dasharray:none;stroke-opacity:1;paint-order:markers fill stroke" d="m59.713 49.41-3.936-4.365-4.712 4.3 4.723 5.121 8.185.456" transform="translate(-8.249 -27.634)"/><path style="fill:none;stroke:#000;stroke-width:.555625;stroke-linecap:round;stroke-linejoin:round;stroke-miterlimit:5.8;stroke-dasharray:none;stroke-opacity:1;paint-order:markers fill stroke" d="m55.8 45.147-.013-1.719s.55-.865.14-1.52c-.408-.655-3.238-3.602-3.238-3.602l1.052-.631 1.894 2.058M53.741 37.675l1.544.164 1.637.35 8.395.328" transform="translate(-8.249 -27.634)"/><path style="fill:none;stroke:#000;stroke-width:.555625;stroke-linecap:round;stroke-linejoin:round;stroke-miterlimit:5.8;stroke-dasharray:none;stroke-opacity:1;paint-order:markers fill stroke" d="m52.8 38.332-9.276 8.433-.281 14.172" transform="translate(-8.249 -27.634)"/><path style="fill:none;stroke:#000;stroke-width:.555625;stroke-linecap:round;stroke-linejoin:round;stroke-miterlimit:5.8;stroke-dasharray:none;stroke-opacity:1;paint-order:markers fill stroke" d="m43.408 51.048.629-.016 5.457 5.622s1.835 1.075 2.15 1.786M52.923 38.47 45.65 30.45s-.795-.585.117-1.474c.912-.888 2.595-2.362 2.595-2.362s1.684-.327 2.362.515c.679.842 4.748 4.817 4.748 4.817M72.684 106.898l-2.783 2.69-8.978 7.29" transform="translate(-8.249 -27.634)"/><path style="fill:none;stroke:#000;stroke-width:.555625;stroke-linecap:round;stroke-linejoin:round;stroke-miterlimit:5.8;stroke-dasharray:none;stroke-opacity:1;paint-order:markers fill stroke" d="m58.241 110.1 1.323 1.918.629 1.687c.018.632.028 1.266-.298 1.984l2.084 2.91M67.212 103.133l-11.483 8.886s-.772.655-1.543.117c-.772-.538-2.691-3.293-2.691-3.293s.33-.496 1.52-.595c1.192-.1 6.07-.199 6.07-.199s1.058.116 1.323.347" transform="translate(-8.249 -27.634)"/><path style="fill:none;stroke:#000;stroke-width:.555625;stroke-linecap:round;stroke-linejoin:round;stroke-miterlimit:5.8;stroke-dasharray:none;stroke-opacity:1;paint-order:markers fill stroke" d="m51.493 108.85-2.148-2.7 14.616-.585-.722-2.623s-.164-.795-1.24-.749c-1.075.047-14.08.706-14.08.706l-.96.49 2.432 2.807M61.912 85.626l3.308 4.696.33 4.432s-.033.926-.694 1.058c-.661.133-19.215.662-19.215.662l-2.646 1.819 1.918 2.58 1.488-.86 18.587-.794M44.814 100.74l2.232 2.737" transform="translate(-8.249 -27.634)"/><g style="fill:#9c9dcd;fill-opacity:1;stroke:#6061ae;stroke-opacity:1"><path style="fill:#9c9dcd;fill-opacity:1;stroke:#6061ae;stroke-width:.264583;stroke-linecap:round;stroke-linejoin:round;stroke-miterlimit:5.8;stroke-dasharray:none;stroke-opacity:1;paint-order:markers fill stroke" d="M80.787 80.776c.094 0-3.122 1.929-3.122 1.929L75.268 79.7" transform="translate(-11.703 -33.46)"/><path style="fill:#9c9dcd;fill-opacity:1;stroke:#6061ae;stroke-width:.264583;stroke-linecap:round;stroke-linejoin:round;stroke-miterlimit:5.8;stroke-dasharray:none;stroke-opacity:1;paint-order:markers fill stroke" d="m75.256 79.723.012-5.315 2.397 3.005s3.216-1.93 3.122-1.93l.024 5.316M77.671 77.434l-.006 5.262" transform="translate(-11.703 -33.46)"/><path style="fill:#9c9dcd;fill-opacity:1;stroke:#6061ae;stroke-width:.264583;stroke-linecap:round;stroke-linejoin:round;stroke-miterlimit:5.8;stroke-dasharray:none;stroke-opacity:1;paint-order:markers fill stroke" d="m80.79 75.487-2.5-3.022-3.017 1.94 2.396 2.993z" transform="translate(-11.703 -33.46)"/></g><g style="fill:#9c9dcd;fill-opacity:1;stroke:#6061ae;stroke-opacity:1"><path style="fill:#9c9dcd;fill-opacity:1;stroke:#6061ae;stroke-width:.264583;stroke-linecap:round;stroke-linejoin:round;stroke-miterlimit:5.8;stroke-dasharray:none;stroke-opacity:1;paint-order:markers fill stroke" d="M80.787 80.776c.094 0-3.122 1.929-3.122 1.929L75.268 79.7" transform="translate(-8.249 -27.634)"/><path style="fill:#9c9dcd;fill-opacity:1;stroke:#6061ae;stroke-width:.264583;stroke-linecap:round;stroke-linejoin:round;stroke-miterlimit:5.8;stroke-dasharray:none;stroke-opacity:1;paint-order:markers fill stroke" d="m75.256 79.723.012-5.315 2.397 3.005s3.216-1.93 3.122-1.93l.024 5.316M77.671 77.434l-.006 5.262" transform="translate(-8.249 -27.634)"/><path style="fill:#9c9dcd;fill-opacity:1;stroke:#6061ae;stroke-width:.264583;stroke-linecap:round;stroke-linejoin:round;stroke-miterlimit:5.8;stroke-dasharray:none;stroke-opacity:1;paint-order:markers fill stroke" d="m80.79 75.487-2.5-3.022-3.017 1.94 2.396 2.993z" transform="translate(-8.249 -27.634)"/></g><g style="fill:#9c9dcd;fill-opacity:1;stroke:#6061ae;stroke-opacity:1"><path style="fill:#9c9dcd;fill-opacity:1;stroke:#6061ae;stroke-width:.264583;stroke-linecap:round;stroke-linejoin:round;stroke-miterlimit:5.8;stroke-dasharray:none;stroke-opacity:1;paint-order:markers fill stroke" d="M80.787 80.776c.094 0-3.122 1.929-3.122 1.929L75.268 79.7" transform="translate(-.776 -21.254)"/><path style="fill:#9c9dcd;fill-opacity:1;stroke:#6061ae;stroke-width:.264583;stroke-linecap:round;stroke-linejoin:round;stroke-miterlimit:5.8;stroke-dasharray:none;stroke-opacity:1;paint-order:markers fill stroke" d="m75.256 79.723.012-5.315 2.397 3.005s3.216-1.93 3.122-1.93l.024 5.316M77.671 77.434l-.006 5.262" transform="translate(-.776 -21.254)"/><path style="fill:#9c9dcd;fill-opacity:1;stroke:#6061ae;stroke-width:.264583;stroke-linecap:round;stroke-linejoin:round;stroke-miterlimit:5.8;stroke-dasharray:none;stroke-opacity:1;paint-order:markers fill stroke" d="m80.79 75.487-2.5-3.022-3.017 1.94 2.396 2.993z" transform="translate(-.776 -21.254)"/></g><path style="fill:none;fill-opacity:1;stroke:#737373;stroke-width:.211667;stroke-linecap:butt;stroke-linejoin:round;stroke-miterlimit:5.8;stroke-dasharray:.846664,.211667;stroke-dashoffset:0;stroke-opacity:1;paint-order:markers fill stroke" d="m94.875 72.693-2.951-6.173-2.875-6.651-.67.258-1.52-2.333" transform="translate(-8.249 -27.634)"/><g style="fill:#9c9dcd;fill-opacity:1;stroke:#6068ae;stroke-opacity:1"><path style="fill:#9c9dcd;fill-opacity:1;stroke:#6068ae;stroke-width:.264583;stroke-linecap:round;stroke-linejoin:round;stroke-miterlimit:5.8;stroke-dasharray:none;stroke-opacity:1;paint-order:markers fill stroke" d="M80.787 80.776c.094 0-3.122 1.929-3.122 1.929L75.268 79.7" transform="translate(3.162 -36.31)"/><path style="fill:#9c9dcd;fill-opacity:1;stroke:#6068ae;stroke-width:.264583;stroke-linecap:round;stroke-linejoin:round;stroke-miterlimit:5.8;stroke-dasharray:none;stroke-opacity:1;paint-order:markers fill stroke" d="m75.256 79.723.012-5.315 2.397 3.005s3.216-1.93 3.122-1.93l.024 5.316M77.671 77.434l-.006 5.262" transform="translate(3.162 -36.31)"/><path style="fill:#9c9dcd;fill-opacity:1;stroke:#6068ae;stroke-width:.264583;stroke-linecap:round;stroke-linejoin:round;stroke-miterlimit:5.8;stroke-dasharray:none;stroke-opacity:1;paint-order:markers fill stroke" d="m80.79 75.487-2.5-3.022-3.017 1.94 2.396 2.993z" transform="translate(3.162 -36.31)"/></g><g style="fill:#9c9dcd;fill-opacity:1;stroke:#6061ae;stroke-opacity:1"><path style="fill:#9c9dcd;fill-opacity:1;stroke:#6061ae;stroke-width:.264583;stroke-linecap:round;stroke-linejoin:round;stroke-miterlimit:5.8;stroke-dasharray:none;stroke-opacity:1;paint-order:markers fill stroke" d="M80.787 80.776c.094 0-3.122 1.929-3.122 1.929L75.268 79.7" transform="translate(6.953 -45.861)"/><path style="fill:#9c9dcd;fill-opacity:1;stroke:#6061ae;stroke-width:.264583;stroke-linecap:round;stroke-linejoin:round;stroke-miterlimit:5.8;stroke-dasharray:none;stroke-opacity:1;paint-order:markers fill stroke" d="m75.256 79.723.012-5.315 2.397 3.005s3.216-1.93 3.122-1.93l.024 5.316M77.671 77.434l-.006 5.262" transform="translate(6.953 -45.861)"/><path style="fill:#9c9dcd;fill-opacity:1;stroke:#6061ae;stroke-width:.264583;stroke-linecap:round;stroke-linejoin:round;stroke-miterlimit:5.8;stroke-dasharray:none;stroke-opacity:1;paint-order:markers fill stroke" d="m80.79 75.487-2.5-3.022-3.017 1.94 2.396 2.993z" transform="translate(6.953 -45.861)"/></g><g style="fill:#9c9dcd;fill-opacity:1;stroke:#6061ae;stroke-opacity:1"><path style="fill:#9c9dcd;fill-opacity:1;stroke:#6061ae;stroke-width:.264583;stroke-linecap:round;stroke-linejoin:round;stroke-miterlimit:5.8;stroke-dasharray:none;stroke-opacity:1;paint-order:markers fill stroke" d="M80.787 80.776c.094 0-3.122 1.929-3.122 1.929L75.268 79.7" transform="translate(15.483 -53.116)"/><path style="fill:#9c9dcd;fill-opacity:1;stroke:#6061ae;stroke-width:.264583;stroke-linecap:round;stroke-linejoin:round;stroke-miterlimit:5.8;stroke-dasharray:none;stroke-opacity:1;paint-order:markers fill stroke" d="m75.256 79.723.012-5.315 2.397 3.005s3.216-1.93 3.122-1.93l.024 5.316M77.671 77.434l-.006 5.262" transform="translate(15.483 -53.116)"/><path style="fill:#9c9dcd;fill-opacity:1;stroke:#6061ae;stroke-width:.264583;stroke-linecap:round;stroke-linejoin:round;stroke-miterlimit:5.8;stroke-dasharray:none;stroke-opacity:1;paint-order:markers fill stroke" d="m80.79 75.487-2.5-3.022-3.017 1.94 2.396 2.993z" transform="translate(15.483 -53.116)"/></g><g style="fill:#abf6aa;fill-opacity:1"><path style="fill:#abf6aa;fill-opacity:1;stroke:#2cea26;stroke-width:.370417;stroke-linecap:round;stroke-linejoin:round;stroke-miterlimit:5.8;stroke-opacity:1;paint-order:markers fill stroke" d="m78.107 92.713-2.14 1.264-5.13-2.346.13-11.91 3.247-2.784-2.345-2.242-3.094 2.346-.825 2.088-.154 14.667 8.61 3.815 3.299-3.067z" transform="translate(-8.249 -27.634)"/><path style="fill:#abf6aa;fill-opacity:1;stroke:#2cea26;stroke-width:.370417;stroke-linecap:round;stroke-linejoin:round;stroke-miterlimit:5.8;stroke-opacity:1;paint-order:markers fill stroke" d="m78.107 90.068-2.14 1.263-5.13-2.346.13-11.91 3.247-2.783-2.345-2.243-3.094 2.346-.825 2.088-.154 14.667 8.61 3.815 3.299-3.067zM67.796 93.702v-2.575" transform="translate(-8.249 -27.634)"/><path style="fill:#abf6aa;fill-opacity:1;stroke:#2cea26;stroke-width:.370417;stroke-linecap:round;stroke-linejoin:round;stroke-miterlimit:5.8;stroke-opacity:1;paint-order:markers fill stroke" d="m76.354 94.965 3.351-3.048v2.617l-3.306 3.08zM70.942 77.067l3.263-2.771.009 2.625-3.245 2.78z" transform="translate(-8.249 -27.634)"/></g><g style="fill:#abf6aa;fill-opacity:1"><path style="fill:#abf6aa;fill-opacity:1;stroke:#2cea26;stroke-width:.37;stroke-linecap:round;stroke-linejoin:round;stroke-miterlimit:5.8;stroke-dasharray:none;stroke-opacity:1;paint-order:markers fill stroke" d="m107.908 46.264-2.224 1.64 4.046 4.85 6.125-.074 4.885-3.427-1.713-2.296-4.047 3.244-4.265-.073z" transform="translate(-8.249 -27.634)"/><path style="fill:#abf6aa;fill-opacity:1;stroke:#2cea26;stroke-width:.37;stroke-linecap:round;stroke-linejoin:round;stroke-miterlimit:5.8;stroke-dasharray:none;stroke-opacity:1;paint-order:markers fill stroke" d="m107.908 44.147-2.224 1.64 4.046 4.85 6.125-.073 4.885-3.427-1.713-2.297-4.047 3.245-4.265-.073z" transform="translate(-8.249 -27.634)"/><path style="fill:#abf6aa;fill-opacity:1;stroke:#2cea26;stroke-width:.370001;stroke-linecap:round;stroke-linejoin:round;stroke-miterlimit:5.8;stroke-dasharray:none;stroke-opacity:1;paint-order:markers fill stroke" d="m105.692 45.857.015 2.079 3.952 4.78.077-2.114zM115.928 50.527l4.803-3.336v2.097l-4.803 3.363z" transform="translate(-8.249 -27.634)"/></g><g><path style="opacity:1;fill:#abf6aa;fill-opacity:1;stroke:none;stroke-width:.211667;stroke-linecap:butt;stroke-linejoin:round;stroke-miterlimit:5.8;stroke-dasharray:.846664,.211667;stroke-dashoffset:0;stroke-opacity:1;paint-order:markers fill stroke" d="M31.825 70.632h6.298v3.172h-6.298z" transform="translate(-8.249 -27.634)"/><g style="opacity:1;fill:#abf6aa;fill-opacity:1;stroke:#3fe03e;stroke-opacity:1"><g style="fill:#abf6aa;fill-opacity:1;stroke:#3fe03e;stroke-opacity:1"><path style="fill:#abf6aa;fill-opacity:1;stroke:#3fe03e;stroke-width:1.05527;stroke-linecap:round;stroke-linejoin:round;stroke-miterlimit:5.8;stroke-dasharray:none;stroke-opacity:1;paint-order:markers fill stroke" d="M28.246 22.13a6.477 1.603 0 0 1-5.898 1.722 6.477 1.603 0 0 1-7.007-1.445 6.477 1.603 0 0 1 5.772-1.747 6.477 1.603 0 0 1 7.11 1.413M15.372 15.154a6.477 1.603 0 0 1 6.692-1.495 6.477 1.603 0 0 1 6.247 1.609" transform="translate(16.628 35.952) scale(.4643)"/><path style="fill:#abf6aa;fill-opacity:1;stroke:#3fe03e;stroke-width:1.05833;stroke-linecap:round;stroke-linejoin:round;stroke-miterlimit:5.8;stroke-dasharray:none;stroke-opacity:1;paint-order:markers fill stroke" d="m15.359 15.268-.046 6.93M28.332 15.382l-.045 6.907M15.345 16.561l-5.778-2.728L21.711 8.25l12.248 5.66-5.627 2.593" transform="translate(16.628 35.952) scale(.4643)"/><path style="fill:#abf6aa;fill-opacity:1;stroke:#3fe03e;stroke-width:1.05527;stroke-linecap:round;stroke-linejoin:round;stroke-miterlimit:5.8;stroke-dasharray:none;stroke-opacity:1;paint-order:markers fill stroke" d="M28.246 22.13a6.477 1.603 0 0 1-5.898 1.722 6.477 1.603 0 0 1-7.007-1.445 6.477 1.603 0 0 1 5.772-1.747 6.477 1.603 0 0 1 7.11 1.413M15.424 16.613a6.477 1.603 0 0 1 6.065-1.622 6.477 1.603 0 0 1 6.846 1.419" transform="translate(16.628 35.952) scale(.4643)"/></g><path style="fill:#abf6aa;fill-opacity:1;stroke:#3fe03e;stroke-width:1.05833;stroke-linecap:round;stroke-linejoin:round;stroke-miterlimit:5.8;stroke-dasharray:none;stroke-opacity:1;paint-order:markers fill stroke" d="m11.988 15.113.032 6.025-1.27.627-.048 2.618 2.635-.048v-2.587l-1.301-.722" transform="translate(16.628 35.952) scale(.4643)"/></g></g><path style="opacity:1;fill:none;fill-opacity:1;stroke:#737373;stroke-width:.211667;stroke-linecap:butt;stroke-linejoin:round;stroke-miterlimit:5.8;stroke-dasharray:.846664,.211667;stroke-dashoffset:0;stroke-opacity:1;paint-order:markers fill stroke" d="m14.51 59.696.39-41.755-1.083-1.134.515-.619M13.379 14.822l-.439-.541-1.314-.31.593.13-.052-12.915M105.509 39.105l-2.114-2.449 2.346-1.83" transform="translate(-8.249 -27.634)"/><path style="opacity:1;fill:#abf6aa;fill-opacity:1;stroke:#3fe03e;stroke-width:.212;stroke-linecap:round;stroke-linejoin:round;stroke-miterlimit:5.8;stroke-dasharray:none;stroke-dashoffset:0;stroke-opacity:1;paint-order:markers fill stroke" d="m105.611 32.647 1.677-1.385 2.114 2.443-.218 3.28-2.48 1.277-1.458-1.604z" transform="translate(-8.249 -27.634)"/><g><path style="opacity:1;fill:#abf6aa;fill-opacity:1;stroke:#3fe03e;stroke-width:.212;stroke-linecap:round;stroke-linejoin:round;stroke-miterlimit:5.8;stroke-dasharray:none;stroke-dashoffset:0;stroke-opacity:1;paint-order:markers fill stroke" d="m105.611 31.06 1.677-1.385 2.114 2.442-.218 3.281-2.48 1.276-1.458-1.604z" transform="translate(-8.249 -27.634)"/><path style="opacity:1;fill:#abf6aa;fill-opacity:1;stroke:#3fe03e;stroke-width:.212;stroke-linecap:round;stroke-linejoin:round;stroke-miterlimit:5.8;stroke-dasharray:none;stroke-dashoffset:0;stroke-opacity:1;paint-order:markers fill stroke" d="m106.686 38.25.073-1.594-1.503-1.632-.028 1.65z" transform="translate(-8.249 -27.634)"/><path style="opacity:1;fill:#abf6aa;fill-opacity:1;stroke:#3fe03e;stroke-width:.212;stroke-linecap:round;stroke-linejoin:round;stroke-miterlimit:5.8;stroke-dasharray:none;stroke-dashoffset:0;stroke-opacity:1;paint-order:markers fill stroke" d="m106.732 36.638 2.561-1.34-.11 1.668-2.47 1.294z" transform="translate(-8.249 -27.634)"/></g><g><g transform="translate(-8.32 -29.265)" style="fill:#91f48f;fill-opacity:1;stroke:#24b523;stroke-opacity:1"><rect style="fill:#91f48f;fill-opacity:1;stroke:#24b523;stroke-width:.171453;stroke-linecap:round;stroke-linejoin:round;stroke-miterlimit:5.8;stroke-dasharray:none;stroke-opacity:1;paint-order:markers fill stroke" width=".739" height="1.89" x="104.867" y="33.685" rx=".16" ry=".187"/><rect style="fill:#91f48f;fill-opacity:1;stroke:#24b523;stroke-width:.172216;stroke-linecap:round;stroke-linejoin:round;stroke-miterlimit:5.8;stroke-dasharray:none;stroke-opacity:1;paint-order:markers fill stroke" width=".746" height="1.889" x="109.242" y="33.693" rx=".161" ry=".187"/><path style="opacity:1;fill:#91f48f;fill-opacity:1;stroke:#24b523;stroke-width:.211667;stroke-linecap:butt;stroke-linejoin:round;stroke-miterlimit:5.8;stroke-dasharray:.846664,.211667;stroke-dashoffset:0;stroke-opacity:1;paint-order:markers fill stroke" d="M106.317 34.259h2.23v.786h-2.23z"/><rect style="fill:#91f48f;fill-opacity:1;stroke:#24b523;stroke-width:.1624;stroke-linecap:round;stroke-linejoin:round;stroke-miterlimit:5.8;stroke-dasharray:none;stroke-opacity:1;paint-order:markers fill stroke" width=".728" height="3.368" x="105.609" y="32.936" rx=".143" ry=".187"/><rect style="fill:#91f48f;fill-opacity:1;stroke:#24b523;stroke-width:.1624;stroke-linecap:round;stroke-linejoin:round;stroke-miterlimit:5.8;stroke-dasharray:none;stroke-opacity:1;paint-order:markers fill stroke" width=".728" height="3.368" x="108.504" y="32.943" rx=".143" ry=".187"/><path style="fill:#91f48f;fill-opacity:1;stroke:#24b523;stroke-width:.178199;stroke-linecap:round;stroke-linejoin:round;stroke-miterlimit:5.8;stroke-dasharray:none;stroke-opacity:1;paint-order:markers fill stroke" d="m106.344 34.275 2.143.004M106.37 35.006l2.12.008"/></g></g><g style="fill:#abf6aa;fill-opacity:1;stroke:#3fe03e;stroke-opacity:1"><path style="opacity:1;fill:#abf6aa;fill-opacity:1;stroke:#3fe03e;stroke-width:1.05833;stroke-linecap:round;stroke-linejoin:round;stroke-miterlimit:5.8;stroke-opacity:1;paint-order:markers fill stroke" d="m11.815 10.679 1.59.045c.568.016.627.49.682.818l1.772 10.678c.194 1.174 1.024 1.908 2.213 1.903l9.556-.04c.518-.002 1.633-.022 1.863-1.408l1.181-7.134c.105-.63-.026-1.498-.772-1.5l-15.404-.045" transform="matrix(.3673 0 0 .3673 65.002 17.406)"/><path style="opacity:1;fill:#abf6aa;fill-opacity:1;stroke:#3fe03e;stroke-width:.813541;stroke-linecap:round;stroke-linejoin:round;stroke-miterlimit:5.8;stroke-opacity:1;paint-order:markers fill stroke" d="M20.672 27.853a1.692 1.729 0 0 1-1.504 1.852 1.692 1.729 0 0 1-1.859-1.479 1.692 1.729 0 0 1 1.39-1.944 1.692 1.729 0 0 1 1.944 1.36M27.326 27.853a1.692 1.729 0 0 1-1.504 1.852 1.692 1.729 0 0 1-1.859-1.479 1.692 1.729 0 0 1 1.39-1.944 1.692 1.729 0 0 1 1.944 1.36" transform="matrix(.3673 0 0 .3673 65.002 17.406)"/></g><path style="opacity:1;fill:#91f390;fill-opacity:1;stroke:none;stroke-width:.216618;stroke-linecap:butt;stroke-linejoin:round;stroke-miterlimit:5.8;stroke-dasharray:.866467,.216618;stroke-dashoffset:0;stroke-opacity:1;paint-order:markers fill stroke" d="M54.568 79.112a6.653 12.814 0 0 1-6.11 13.765 6.653 12.814 0 0 1-7.155-11.752 6.653 12.814 0 0 1 6.092-13.795 6.653 12.814 0 0 1 7.17 11.716" transform="rotate(-3.038 -525.192 141.726)"/><g transform="matrix(.104 0 0 .104 39.376 31.322)" style="fill:#abf6aa;fill-opacity:1;stroke:#3fe03e;stroke-opacity:1"><rect style="opacity:1;fill:#abf6aa;fill-opacity:1;stroke:#3fe03e;stroke-width:1.058;stroke-linecap:round;stroke-linejoin:round;stroke-miterlimit:5.8;stroke-opacity:1;paint-order:markers fill stroke" width="21.493" height="22.584" x="8.89" y="5.907" rx="1.028" ry="1.106"/><rect style="opacity:1;fill:#abf6aa;fill-opacity:1;stroke:#3fe03e;stroke-width:.969968;stroke-linecap:round;stroke-linejoin:round;stroke-miterlimit:5.8;stroke-opacity:1;paint-order:markers fill stroke" width="1.997" height="7.177" x="6.908" y="10.135" rx="0" ry=".473"/><rect style="opacity:1;fill:#abf6aa;fill-opacity:1;stroke:#3fe03e;stroke-width:.969968;stroke-linecap:round;stroke-linejoin:round;stroke-miterlimit:5.8;stroke-opacity:1;paint-order:markers fill stroke" width="1.997" height="7.177" x="30.357" y="10.135" rx="0" ry=".473"/><path style="opacity:1;fill:#abf6aa;fill-opacity:1;stroke:#3fe03e;stroke-width:1.058;stroke-linecap:round;stroke-linejoin:round;stroke-miterlimit:5.8;stroke-opacity:1;paint-order:markers fill stroke" d="m8.952 10.315 21.448-.09M14.86 7.998l9.587.045M8.952 21.357l21.266-.045M14.764 24.838a1.409 1.409 0 0 1-1.252 1.51 1.409 1.409 0 0 1-1.547-1.206 1.409 1.409 0 0 1 1.156-1.583 1.409 1.409 0 0 1 1.619 1.107M27.464 24.838a1.409 1.409 0 0 1-1.252 1.51 1.409 1.409 0 0 1-1.547-1.206 1.409 1.409 0 0 1 1.156-1.583 1.409 1.409 0 0 1 1.619 1.107M17.54 24.947h4.317"/><rect style="opacity:1;fill:#abf6aa;fill-opacity:1;stroke:#3fe03e;stroke-width:1.058;stroke-linecap:round;stroke-linejoin:round;stroke-miterlimit:5.8;stroke-opacity:1;paint-order:markers fill stroke" width="4.59" height="2.954" x="10.27" y="28.446" rx="1.028" ry=".515"/><rect style="opacity:1;fill:#abf6aa;fill-opacity:1;stroke:#3fe03e;stroke-width:1.058;stroke-linecap:round;stroke-linejoin:round;stroke-miterlimit:5.8;stroke-opacity:1;paint-order:markers fill stroke" width="4.59" height="2.954" x="24.557" y="28.446" rx="1.028" ry=".515"/></g><g transform="matrix(.104 0 0 .104 57.008 20.238)" style="fill:#abf6aa;fill-opacity:1;stroke:#3fe03e;stroke-opacity:1"><rect style="opacity:1;fill:#abf6aa;fill-opacity:1;stroke:#3fe03e;stroke-width:1.058;stroke-linecap:round;stroke-linejoin:round;stroke-miterlimit:5.8;stroke-opacity:1;paint-order:markers fill stroke" width="21.493" height="22.584" x="8.89" y="5.907" rx="1.028" ry="1.106"/><rect style="opacity:1;fill:#abf6aa;fill-opacity:1;stroke:#3fe03e;stroke-width:.969968;stroke-linecap:round;stroke-linejoin:round;stroke-miterlimit:5.8;stroke-opacity:1;paint-order:markers fill stroke" width="1.997" height="7.177" x="6.908" y="10.135" rx="0" ry=".473"/><rect style="opacity:1;fill:#abf6aa;fill-opacity:1;stroke:#3fe03e;stroke-width:.969968;stroke-linecap:round;stroke-linejoin:round;stroke-miterlimit:5.8;stroke-opacity:1;paint-order:markers fill stroke" width="1.997" height="7.177" x="30.357" y="10.135" rx="0" ry=".473"/><path style="opacity:1;fill:#abf6aa;fill-opacity:1;stroke:#3fe03e;stroke-width:1.058;stroke-linecap:round;stroke-linejoin:round;stroke-miterlimit:5.8;stroke-opacity:1;paint-order:markers fill stroke" d="m8.952 10.315 21.448-.09M14.86 7.998l9.587.045M8.952 21.357l21.266-.045M14.764 24.838a1.409 1.409 0 0 1-1.252 1.51 1.409 1.409 0 0 1-1.547-1.206 1.409 1.409 0 0 1 1.156-1.583 1.409 1.409 0 0 1 1.619 1.107M27.464 24.838a1.409 1.409 0 0 1-1.252 1.51 1.409 1.409 0 0 1-1.547-1.206 1.409 1.409 0 0 1 1.156-1.583 1.409 1.409 0 0 1 1.619 1.107M17.54 24.947h4.317"/><rect style="opacity:1;fill:#abf6aa;fill-opacity:1;stroke:#3fe03e;stroke-width:1.058;stroke-linecap:round;stroke-linejoin:round;stroke-miterlimit:5.8;stroke-opacity:1;paint-order:markers fill stroke" width="4.59" height="2.954" x="10.27" y="28.446" rx="1.028" ry=".515"/><rect style="opacity:1;fill:#abf6aa;fill-opacity:1;stroke:#3fe03e;stroke-width:1.058;stroke-linecap:round;stroke-linejoin:round;stroke-miterlimit:5.8;stroke-opacity:1;paint-order:markers fill stroke" width="4.59" height="2.954" x="24.557" y="28.446" rx="1.028" ry=".515"/></g><g transform="matrix(.104 0 0 .104 21.538 69.215)" style="fill:#abf6aa;fill-opacity:1;stroke:#3fe03e;stroke-opacity:1"><rect style="opacity:1;fill:#abf6aa;fill-opacity:1;stroke:#3fe03e;stroke-width:1.058;stroke-linecap:round;stroke-linejoin:round;stroke-miterlimit:5.8;stroke-opacity:1;paint-order:markers fill stroke" width="21.493" height="22.584" x="8.89" y="5.907" rx="1.028" ry="1.106"/><rect style="opacity:1;fill:#abf6aa;fill-opacity:1;stroke:#3fe03e;stroke-width:.969968;stroke-linecap:round;stroke-linejoin:round;stroke-miterlimit:5.8;stroke-opacity:1;paint-order:markers fill stroke" width="1.997" height="7.177" x="6.908" y="10.135" rx="0" ry=".473"/><rect style="opacity:1;fill:#abf6aa;fill-opacity:1;stroke:#3fe03e;stroke-width:.969968;stroke-linecap:round;stroke-linejoin:round;stroke-miterlimit:5.8;stroke-opacity:1;paint-order:markers fill stroke" width="1.997" height="7.177" x="30.357" y="10.135" rx="0" ry=".473"/><path style="opacity:1;fill:#abf6aa;fill-opacity:1;stroke:#3fe03e;stroke-width:1.058;stroke-linecap:round;stroke-linejoin:round;stroke-miterlimit:5.8;stroke-opacity:1;paint-order:markers fill stroke" d="m8.952 10.315 21.448-.09M14.86 7.998l9.587.045M8.952 21.357l21.266-.045M14.764 24.838a1.409 1.409 0 0 1-1.252 1.51 1.409 1.409 0 0 1-1.547-1.206 1.409 1.409 0 0 1 1.156-1.583 1.409 1.409 0 0 1 1.619 1.107M27.464 24.838a1.409 1.409 0 0 1-1.252 1.51 1.409 1.409 0 0 1-1.547-1.206 1.409 1.409 0 0 1 1.156-1.583 1.409 1.409 0 0 1 1.619 1.107M17.54 24.947h4.317"/><rect style="opacity:1;fill:#abf6aa;fill-opacity:1;stroke:#3fe03e;stroke-width:1.058;stroke-linecap:round;stroke-linejoin:round;stroke-miterlimit:5.8;stroke-opacity:1;paint-order:markers fill stroke" width="4.59" height="2.954" x="10.27" y="28.446" rx="1.028" ry=".515"/><rect style="opacity:1;fill:#abf6aa;fill-opacity:1;stroke:#3fe03e;stroke-width:1.058;stroke-linecap:round;stroke-linejoin:round;stroke-miterlimit:5.8;stroke-opacity:1;paint-order:markers fill stroke" width="4.59" height="2.954" x="24.557" y="28.446" rx="1.028" ry=".515"/></g><g transform="matrix(.104 0 0 .104 24.168 77.825)" style="fill:#abf6aa;fill-opacity:1;stroke:#3fe03e;stroke-opacity:1"><rect style="opacity:1;fill:#abf6aa;fill-opacity:1;stroke:#3fe03e;stroke-width:1.058;stroke-linecap:round;stroke-linejoin:round;stroke-miterlimit:5.8;stroke-opacity:1;paint-order:markers fill stroke" width="21.493" height="22.584" x="8.89" y="5.907" rx="1.028" ry="1.106"/><rect style="opacity:1;fill:#abf6aa;fill-opacity:1;stroke:#3fe03e;stroke-width:.969968;stroke-linecap:round;stroke-linejoin:round;stroke-miterlimit:5.8;stroke-opacity:1;paint-order:markers fill stroke" width="1.997" height="7.177" x="6.908" y="10.135" rx="0" ry=".473"/><rect style="opacity:1;fill:#abf6aa;fill-opacity:1;stroke:#3fe03e;stroke-width:.969968;stroke-linecap:round;stroke-linejoin:round;stroke-miterlimit:5.8;stroke-opacity:1;paint-order:markers fill stroke" width="1.997" height="7.177" x="30.357" y="10.135" rx="0" ry=".473"/><path style="opacity:1;fill:#abf6aa;fill-opacity:1;stroke:#3fe03e;stroke-width:1.058;stroke-linecap:round;stroke-linejoin:round;stroke-miterlimit:5.8;stroke-opacity:1;paint-order:markers fill stroke" d="m8.952 10.315 21.448-.09M14.86 7.998l9.587.045M8.952 21.357l21.266-.045M14.764 24.838a1.409 1.409 0 0 1-1.252 1.51 1.409 1.409 0 0 1-1.547-1.206 1.409 1.409 0 0 1 1.156-1.583 1.409 1.409 0 0 1 1.619 1.107M27.464 24.838a1.409 1.409 0 0 1-1.252 1.51 1.409 1.409 0 0 1-1.547-1.206 1.409 1.409 0 0 1 1.156-1.583 1.409 1.409 0 0 1 1.619 1.107M17.54 24.947h4.317"/><rect style="opacity:1;fill:#abf6aa;fill-opacity:1;stroke:#3fe03e;stroke-width:1.058;stroke-linecap:round;stroke-linejoin:round;stroke-miterlimit:5.8;stroke-opacity:1;paint-order:markers fill stroke" width="4.59" height="2.954" x="10.27" y="28.446" rx="1.028" ry=".515"/><rect style="opacity:1;fill:#abf6aa;fill-opacity:1;stroke:#3fe03e;stroke-width:1.058;stroke-linecap:round;stroke-linejoin:round;stroke-miterlimit:5.8;stroke-opacity:1;paint-order:markers fill stroke" width="4.59" height="2.954" x="24.557" y="28.446" rx="1.028" ry=".515"/></g><g transform="matrix(.104 0 0 .104 59.277 -18.532)" style="fill:#abf6aa;fill-opacity:1;stroke:#3fe03e;stroke-opacity:1"><rect style="opacity:1;fill:#abf6aa;fill-opacity:1;stroke:#3fe03e;stroke-width:1.058;stroke-linecap:round;stroke-linejoin:round;stroke-miterlimit:5.8;stroke-opacity:1;paint-order:markers fill stroke" width="21.493" height="22.584" x="8.89" y="5.907" rx="1.028" ry="1.106"/><rect style="opacity:1;fill:#abf6aa;fill-opacity:1;stroke:#3fe03e;stroke-width:.969968;stroke-linecap:round;stroke-linejoin:round;stroke-miterlimit:5.8;stroke-opacity:1;paint-order:markers fill stroke" width="1.997" height="7.177" x="6.908" y="10.135" rx="0" ry=".473"/><rect style="opacity:1;fill:#abf6aa;fill-opacity:1;stroke:#3fe03e;stroke-width:.969968;stroke-linecap:round;stroke-linejoin:round;stroke-miterlimit:5.8;stroke-opacity:1;paint-order:markers fill stroke" width="1.997" height="7.177" x="30.357" y="10.135" rx="0" ry=".473"/><path style="opacity:1;fill:#abf6aa;fill-opacity:1;stroke:#3fe03e;stroke-width:1.058;stroke-linecap:round;stroke-linejoin:round;stroke-miterlimit:5.8;stroke-opacity:1;paint-order:markers fill stroke" d="m8.952 10.315 21.448-.09M14.86 7.998l9.587.045M8.952 21.357l21.266-.045M14.764 24.838a1.409 1.409 0 0 1-1.252 1.51 1.409 1.409 0 0 1-1.547-1.206 1.409 1.409 0 0 1 1.156-1.583 1.409 1.409 0 0 1 1.619 1.107M27.464 24.838a1.409 1.409 0 0 1-1.252 1.51 1.409 1.409 0 0 1-1.547-1.206 1.409 1.409 0 0 1 1.156-1.583 1.409 1.409 0 0 1 1.619 1.107M17.54 24.947h4.317"/><rect style="opacity:1;fill:#abf6aa;fill-opacity:1;stroke:#3fe03e;stroke-width:1.058;stroke-linecap:round;stroke-linejoin:round;stroke-miterlimit:5.8;stroke-opacity:1;paint-order:markers fill stroke" width="4.59" height="2.954" x="10.27" y="28.446" rx="1.028" ry=".515"/><rect style="opacity:1;fill:#abf6aa;fill-opacity:1;stroke:#3fe03e;stroke-width:1.058;stroke-linecap:round;stroke-linejoin:round;stroke-miterlimit:5.8;stroke-opacity:1;paint-order:markers fill stroke" width="4.59" height="2.954" x="24.557" y="28.446" rx="1.028" ry=".515"/></g><g transform="matrix(.104 0 0 .104 -.656 -14.45)" style="fill:#abf6aa;fill-opacity:1;stroke:#3fe03e;stroke-opacity:1"><rect style="opacity:1;fill:#abf6aa;fill-opacity:1;stroke:#3fe03e;stroke-width:1.058;stroke-linecap:round;stroke-linejoin:round;stroke-miterlimit:5.8;stroke-opacity:1;paint-order:markers fill stroke" width="21.493" height="22.584" x="8.89" y="5.907" rx="1.028" ry="1.106"/><rect style="opacity:1;fill:#abf6aa;fill-opacity:1;stroke:#3fe03e;stroke-width:.969968;stroke-linecap:round;stroke-linejoin:round;stroke-miterlimit:5.8;stroke-opacity:1;paint-order:markers fill stroke" width="1.997" height="7.177" x="6.908" y="10.135" rx="0" ry=".473"/><rect style="opacity:1;fill:#abf6aa;fill-opacity:1;stroke:#3fe03e;stroke-width:.969968;stroke-linecap:round;stroke-linejoin:round;stroke-miterlimit:5.8;stroke-opacity:1;paint-order:markers fill stroke" width="1.997" height="7.177" x="30.357" y="10.135" rx="0" ry=".473"/><path style="opacity:1;fill:#abf6aa;fill-opacity:1;stroke:#3fe03e;stroke-width:1.058;stroke-linecap:round;stroke-linejoin:round;stroke-miterlimit:5.8;stroke-opacity:1;paint-order:markers fill stroke" d="m8.952 10.315 21.448-.09M14.86 7.998l9.587.045M8.952 21.357l21.266-.045M14.764 24.838a1.409 1.409 0 0 1-1.252 1.51 1.409 1.409 0 0 1-1.547-1.206 1.409 1.409 0 0 1 1.156-1.583 1.409 1.409 0 0 1 1.619 1.107M27.464 24.838a1.409 1.409 0 0 1-1.252 1.51 1.409 1.409 0 0 1-1.547-1.206 1.409 1.409 0 0 1 1.156-1.583 1.409 1.409 0 0 1 1.619 1.107M17.54 24.947h4.317"/><rect style="opacity:1;fill:#abf6aa;fill-opacity:1;stroke:#3fe03e;stroke-width:1.058;stroke-linecap:round;stroke-linejoin:round;stroke-miterlimit:5.8;stroke-opacity:1;paint-order:markers fill stroke" width="4.59" height="2.954" x="10.27" y="28.446" rx="1.028" ry=".515"/><rect style="opacity:1;fill:#abf6aa;fill-opacity:1;stroke:#3fe03e;stroke-width:1.058;stroke-linecap:round;stroke-linejoin:round;stroke-miterlimit:5.8;stroke-opacity:1;paint-order:markers fill stroke" width="4.59" height="2.954" x="24.557" y="28.446" rx="1.028" ry=".515"/></g><g><path style="opacity:1;fill:#abf6aa;fill-opacity:1;stroke:#3fe03e;stroke-width:.212;stroke-linecap:round;stroke-linejoin:round;stroke-miterlimit:5.8;stroke-dasharray:none;stroke-dashoffset:0;stroke-opacity:1;paint-order:markers fill stroke" d="M94.037 47.293 76.921 25.691l8.146-7.166 3.557 4.692-2.353 1.85-1.662-1.774-3.409 2.81L96.512 45.54z" transform="translate(-8.249 -27.634)"/><path style="opacity:1;fill:#abf6aa;fill-opacity:1;stroke:#3fe03e;stroke-width:.212;stroke-linecap:round;stroke-linejoin:round;stroke-miterlimit:5.8;stroke-dasharray:none;stroke-dashoffset:0;stroke-opacity:1;paint-order:markers fill stroke" d="M94.037 44.647 76.921 23.045l8.036-6.51 3.667 4.036-2.353 1.85-1.735-1.92-3.336 2.957 15.312 19.436z" transform="translate(-8.249 -27.634)"/><path style="opacity:1;fill:#abf6aa;fill-opacity:1;stroke:#3fe03e;stroke-width:.212;stroke-linecap:round;stroke-linejoin:round;stroke-miterlimit:5.8;stroke-dasharray:none;stroke-dashoffset:0;stroke-opacity:1;paint-order:markers fill stroke" d="m76.93 23.076-.01 2.661 17.135 21.546 2.479-1.75-.019-2.625-2.424 1.677zM94.082 44.54l-.018 2.724M84.633 23.328l-.11-2.827M86.278 25.03v-2.642l2.34-1.81-.007 2.635z" transform="translate(-8.249 -27.634)"/></g><g><path style="opacity:1;fill:#abf6aa;fill-opacity:1;stroke:#3fe03e;stroke-width:.212;stroke-linecap:round;stroke-linejoin:round;stroke-miterlimit:5.8;stroke-dasharray:none;stroke-dashoffset:0;stroke-opacity:1;paint-order:markers fill stroke" d="m64.198 59.589-8.859-.292-2.88-1.421-6.124-6.49 1.786-2.04 6.161 6.853 9.952.583-.036 2.807z" transform="translate(-8.249 -27.634)"/><path style="fill:#abf6aa;fill-opacity:1;stroke:#3fe03e;stroke-width:.212;stroke-linecap:round;stroke-linejoin:round;stroke-miterlimit:5.8;stroke-dasharray:none;stroke-dashoffset:0;stroke-opacity:1;paint-order:markers fill stroke" d="m46.348 51.31.078-2.564 6.006 6.496.026 2.655 2.887 1.392v-2.63l8.842.258.038 2.643" transform="translate(-8.249 -27.634)"/><path style="fill:#abf6aa;fill-opacity:1;stroke:#3fe03e;stroke-width:.212;stroke-linecap:round;stroke-linejoin:round;stroke-miterlimit:5.8;stroke-dasharray:none;stroke-dashoffset:0;stroke-opacity:1;paint-order:markers fill stroke" d="m64.198 56.943-8.859-.291-2.88-1.422-6.124-6.49 1.786-2.04 6.161 6.853 9.952.583-.036 2.807z" transform="translate(-8.249 -27.634)"/></g><path style="opacity:1;fill:#91f48f;fill-opacity:1;stroke:#24b523;stroke-width:.212;stroke-linecap:round;stroke-linejoin:round;stroke-miterlimit:5.8;stroke-dasharray:none;stroke-dashoffset:0;stroke-opacity:1;paint-order:markers fill stroke" d="m41.915 57.948-26.087-1.392.36-24.334 25.881 9.899z" transform="translate(-8.249 -27.634)"/><path style="opacity:1;fill:#8ff4e9;fill-opacity:1;stroke:#23b5ab;stroke-width:.229259;stroke-linecap:round;stroke-linejoin:round;stroke-miterlimit:5.8;stroke-dasharray:none;stroke-dashoffset:0;stroke-opacity:1;paint-order:markers fill stroke" d="M32.924 47.46a3.652 3.262 0 0 1-3.354 3.503 3.652 3.262 0 0 1-3.927-2.991 3.652 3.262 0 0 1 3.344-3.512 3.652 3.262 0 0 1 3.936 2.982" transform="translate(-8.249 -27.634)"/><path style="fill:#9cc7ef;fill-opacity:1;stroke:#2178ce;stroke-width:.266987;stroke-linecap:round;stroke-linejoin:round;stroke-miterlimit:5.8;stroke-dasharray:none;stroke-dashoffset:0;stroke-opacity:1;paint-order:markers fill stroke" d="m105.509 71.778-.003-8.728s2.577-.733 3.741-.275c.953.374 2.005 1.23 2.09 2.25.08.968-.762 1.954-1.608 2.433-.79.447-2.722.118-2.722.118l-.003 4.29z" transform="translate(-8.249 -27.634)"/><path style="fill:#fff;fill-opacity:1;stroke:#3e8fe0;stroke-width:.266987;stroke-linecap:round;stroke-linejoin:round;stroke-miterlimit:5.8;stroke-dasharray:none;stroke-dashoffset:0;stroke-opacity:1;paint-order:markers fill stroke" d="M106.998 64.244s1.328-.455 1.952-.253c.52.169 1.193.578 1.193 1.125 0 .569-.698.997-1.24 1.17-.602.195-1.882-.252-1.882-.252z" transform="translate(-8.249 -27.634)"/></svg>