<svg xmlns="http://www.w3.org/2000/svg" width="200" height="200" viewBox="0 0 52.917 52.917"><defs><marker id="a" markerHeight=".75" markerWidth=".75" orient="auto-start-reverse" preserveAspectRatio="xMidYMid" refX="-1" refY="0" style="overflow:visible" viewBox="0 0 1 1"><path d="m1 0-3 3h-2l3-3-3-3h2z" style="fill:context-stroke;fill-rule:evenodd;stroke:none"/></marker></defs><path d="M18.63 14.738 5.101 7.756c-.257-.133-.523.233-.523.523v17.805c0 .29.266.39.523.523l13.527 6.982c.75.335.538.034.523-.522V15.26c0-.29-.266-.39-.523-.523z" style="fill:none;stroke:#000;stroke-width:1.03146;stroke-linecap:square;stroke-linejoin:bevel;stroke-miterlimit:0;paint-order:markers fill stroke"/><path d="m19.7 14.887 27.117-5.453c.283-.057.522.233.522.522v17.806c0 .29-.239.466-.522.523l-27.118 5.453c-.284.057-.522-.234-.522-.523V15.409c0-.29.238-.465.522-.522z" style="fill:none;stroke:#000;stroke-width:1.03146;stroke-linecap:square;stroke-linejoin:bevel;stroke-miterlimit:0;paint-order:markers fill stroke"/><path d="M18.63 33.352 5.101 26.37c-.257-.133-.523.233-.523.522v17.806c0 .29.266.39.523.522l13.527 6.983c.75.335.538.034.523-.523V33.875c0-.29-.266-.39-.523-.523z" style="fill:none;stroke:#000;stroke-width:1.03146;stroke-linecap:square;stroke-linejoin:bevel;stroke-miterlimit:0;stroke-dasharray:none;paint-order:markers fill stroke"/><path d="m19.7 33.5 27.117-5.453c.283-.057.522.234.522.523v17.806c0 .29-.239.465-.522.522l-27.118 5.453c-.284.057-.522-.233-.522-.522V34.023c0-.29.238-.466.522-.523z" style="fill:none;stroke:#000;stroke-width:1.03146;stroke-linecap:square;stroke-linejoin:bevel;stroke-miterlimit:0;paint-order:markers fill stroke"/><path d="m14.082 36.656-5.331-2.751c-.101-.053-.206.091-.206.206v7.017c0 .114.105.154.206.206l5.331 2.752c.295.132.212.013.206-.206v-7.018c0-.114-.104-.153-.206-.205z" style="fill:none;stroke:#000;stroke-width:.503348;stroke-linecap:square;stroke-linejoin:bevel;stroke-miterlimit:0;stroke-dasharray:none;paint-order:markers fill stroke"/><path d="m11.268 35.134-2.692-1.302c-.066-.032-.103.093-.103.21v7.116c0 .116.037.176.103.209l2.765 1.375c.148.134.106.014.104-.209v-7.117c0-.115-.052-.157-.104-.209z" style="fill:none;stroke:#000;stroke-width:.251673;stroke-linecap:square;stroke-linejoin:bevel;stroke-miterlimit:0;stroke-dasharray:none;paint-order:markers fill stroke"/><path d="m18.549 34.38-4.204-2.17c-.08-.04-.162.073-.162.163v5.533c0 .09.082.121.162.163l4.204 2.17c.233.103.167.01.162-.163v-5.533c0-.09-.082-.121-.162-.162z" style="fill:none;stroke:#000;stroke-width:.396875;stroke-linecap:square;stroke-linejoin:bevel;stroke-miterlimit:0;stroke-dasharray:none;paint-order:markers fill stroke" transform="translate(-9.443 -25.561) scale(1.2682772)"/><path d="m16.33 33.18-2.123-1.026c-.052-.026-.081.073-.081.164v5.612c0 .091.03.139.081.165l2.18 1.084c.117.105.084.01.082-.165v-5.611c0-.092-.04-.124-.081-.165z" style="fill:none;stroke:#000;stroke-width:.198437;stroke-linecap:square;stroke-linejoin:bevel;stroke-miterlimit:0;stroke-dasharray:none;paint-order:markers fill stroke" transform="translate(-9.443 -25.561) scale(1.2682772)"/><path d="m32.117 34.19-2.993.587c-.047.01-.187.078-.186.175l.066 6.434c0 .098.066.197.187.176l3.125-.559c.267-.037.234-.145.186-.175l-.066-6.401s-.092-.132-.186-.176z" style="fill:none;stroke:#000;stroke-width:.198437;stroke-linecap:square;stroke-linejoin:bevel;stroke-miterlimit:0;stroke-dasharray:none;paint-order:markers fill stroke" transform="translate(-9.443 -6.948) scale(1.2682772)"/><path d="m29.179 34.794 9.727-1.956c.101-.02.187.084.187.188v6.386c0 .104-.086.167-.187.188l-9.727 1.956c-.102.02-.188-.084-.188-.188v-6.386c0-.104.086-.167.188-.188z" style="fill:none;stroke:#000;stroke-width:.396875;stroke-linecap:square;stroke-linejoin:bevel;stroke-miterlimit:0;stroke-dasharray:none;paint-order:markers fill stroke" transform="translate(-9.443 -6.948) scale(1.2682772)"/><path d="m38.782 32.754-2.992.587c-.047.01-.188.079-.187.176l.078 6.504c.002.097.066.197.187.175l3.125-.558c.268-.037.235-.145.187-.175l-.078-6.472s-.093-.131-.187-.175z" style="fill:none;stroke:#000;stroke-width:.198437;stroke-linecap:square;stroke-linejoin:bevel;stroke-miterlimit:0;stroke-dasharray:none;paint-order:markers fill stroke" transform="translate(-9.443 -6.948) scale(1.2682772)"/><path d="m32.117 34.19-2.993.587c-.047.01-.187.078-.186.175l.066 6.434c0 .098.066.197.187.176l3.125-.559c.267-.037.234-.145.186-.175l-.066-6.401s-.092-.132-.186-.176z" style="fill:none;stroke:#000;stroke-width:.198437;stroke-linecap:square;stroke-linejoin:bevel;stroke-miterlimit:0;stroke-dasharray:none;paint-order:markers fill stroke" transform="translate(-9.443 -25.561) scale(1.2682772)"/><path d="m29.179 34.794 9.727-1.956c.101-.02.187.084.187.188v6.386c0 .104-.086.167-.187.188l-9.727 1.956c-.102.02-.188-.084-.188-.188v-6.386c0-.104.086-.167.188-.188z" style="fill:none;stroke:#000;stroke-width:.396875;stroke-linecap:square;stroke-linejoin:bevel;stroke-miterlimit:0;stroke-dasharray:none;paint-order:markers fill stroke" transform="translate(-9.443 -25.561) scale(1.2682772)"/><path d="m38.782 32.754-2.992.587c-.047.01-.188.079-.187.176l.078 6.504c.002.097.066.197.187.175l3.125-.558c.268-.037.235-.145.187-.175l-.078-6.472s-.093-.131-.187-.175z" style="fill:none;stroke:#000;stroke-width:.198437;stroke-linecap:square;stroke-linejoin:bevel;stroke-miterlimit:0;stroke-dasharray:none;paint-order:markers fill stroke" transform="translate(-9.443 -25.561) scale(1.2682772)"/><path d="m19.171 15.475.135 33.906" style="fill:none;stroke:#1f326b;stroke-width:2.01945;stroke-linecap:square;stroke-linejoin:bevel;stroke-miterlimit:0;stroke-dasharray:none;stroke-opacity:1;marker-end:url(#a);paint-order:markers fill stroke"/><path d="M46.942 8.614 32.492.984c-.255-.136-.577-.264-.858-.191L5.072 7.7c-.28.073-.227-.019.03.114l13.527 6.983c.75.334.663.746.649.19l28.02-5.6c.283-.056-.1-.638-.356-.774Z" style="fill:none;stroke:#000;stroke-width:1.03146;stroke-linecap:square;stroke-linejoin:bevel;stroke-miterlimit:0;paint-order:markers fill stroke"/></svg>