<svg width="285" height="202" viewBox="0 0 75.406 53.446" xml:space="preserve" xmlns="http://www.w3.org/2000/svg"><path style="fill:none;fill-opacity:1;stroke:#7f7f7f;stroke-width:.15875;stroke-linecap:butt;stroke-linejoin:round;stroke-miterlimit:5.8;stroke-dasharray:.635,.15875;stroke-dashoffset:0;stroke-opacity:1;paint-order:markers fill stroke" d="m28.57 5.266 14.38-.844.258-2.824 3.265-.22L50.215.276M12.374 17.589l1.868-.441s4.713-.307 7.082-.338c2.439-.03 4.911.117 7.342.156 2.801.045 5.542.22 8.38.26 1.573.022 3.26.089 4.824.259 1.093.119 2.179.365 3.217.726.943.328 2.698 1.297 2.698 1.297"/><path style="fill:none;fill-opacity:1;stroke:#000;stroke-width:.396875;stroke-linecap:round;stroke-linejoin:round;stroke-miterlimit:5.8;stroke-opacity:1;paint-order:markers fill stroke" d="M60.808 51.106s.565-4.361.26-6.512c-.059-.41-.394-.763-.394-1.177 0-.17.073-.426.16-.483.375-.247 1.22-.57 1.22-.57s-.176-.434-.13-.65c.037-.175.31-.44.31-.44l.727-.26"/><path style="fill:none;fill-opacity:1;stroke:#6187de;stroke-width:1.85208;stroke-linecap:round;stroke-linejoin:round;stroke-miterlimit:5.8;stroke-dasharray:none;stroke-opacity:1;paint-order:markers fill stroke" d="M89.184 25.225c-.495.045-1.008-.062-1.501 0-.187.023-.367.137-.546.182-.213.053-.86 0-1.092 0-.384 0-.761.083-1.137.136-.209.03-.524.035-.728 0-.193-.032-.351-.136-.546-.136-.227.182-.48.307-.707.488-.036.028-.06.07-.097.097-.162.12-.35.204-.515.321-.024.018-.038.049-.064.065-.084.05-.208.05-.29.096-.04.023-.059.07-.096.097-.156.111-.085.026-.225.096-.198.099-.387.212-.58.322-.087.05-.3.155-.385.193-.102.045-.192.015-.29.064-.082.041.033.039-.096.064-.185.037-.366.056-.547.13-.036.013-.06.05-.097.063-.17.069-.32.104-.482.193-.138.077-.307.204-.45.258-.052.019-.11.015-.161.032-.145.048-.281.134-.419.193-.131.056-.28.062-.418.097-.113.028-.212.097-.322.128-.03.009-.065-.009-.096 0-.07.02-.131.06-.193.097-.148.089-.303.168-.45.257-.216.13.042-.007-.258.193-.04.027-.09.036-.128.064-.049.037-.08.094-.13.13-.027.019-.067.012-.096.031-.038.026-.06.068-.096.097-.045.035-.116.06-.161.096-.024.02-.038.05-.064.065-.101.056-.23.059-.322.128-.02.015-.015.048-.032.065s-.045.018-.065.032c-.055.04-.099.098-.16.128-.07.035-.156.03-.226.065-.082.041-.146.113-.225.16a3.33 3.33 0 0 1-.321.162c-.02.006-.044-.007-.065 0-.144.048-.175.12-.321.193-.137.068-.313.085-.45.16-.09.049-.166.12-.258.161-.03.014-.066-.009-.097 0-.11.032-.187.117-.29.161-.144.062-.1.002-.224.064-.035.018-.062.047-.097.065-.03.015-.443.163-.482.193-.02.014-.012.052-.033.064-.038.023-.088.014-.128.032-.114.052-.207.144-.322.193-.04.018-.088.015-.129.032-.157.068-.296.181-.45.258-.172.086-.024-.038-.225.096-.025.017-.036.053-.065.065-.295.118.157-.19-.225.064-.025.017-.043.043-.064.064-.043.011-.091.01-.129.033-.104.064-.189.155-.29.225-.129.09-.307.192-.45.257-.145.066-.304.097-.45.16-.161.034-.274.16-.418.226-.15.068-.299.078-.45.129-.123.04-.234.112-.354.16-.055.023-.682.265-.772.29-.074.02-.154.008-.226.032-.12.04-.237.143-.354.193-.115.05-.167.019-.289.065-.036.013-.06.05-.097.064-.072.029-.151.038-.225.064-.314.113-.602.262-.933.322-.427.078-.83.257-1.254.354-.407.092-.84.179-1.255.225-.053.006-.107-.007-.16 0-.159.02-.377.13-.515.16-.085.02-.173.018-.258.033-.345.061-.676.129-1.03.129-.157 0-.361.038-.514 0-.155-.04-.26-.174-.386-.258-.072-.048-.15-.084-.225-.128-.066-.04-.17-.042-.225-.097-.028-.028-.129-.221-.129-.128"/><path style="fill:none;fill-opacity:1;stroke:#7f7f7f;stroke-width:.15875;stroke-linecap:butt;stroke-linejoin:round;stroke-miterlimit:5.8;stroke-dasharray:.635,.15875;stroke-dashoffset:0;stroke-opacity:1;paint-order:markers fill stroke" d="m19.269 36.8 1.064-2.055 1.578-1.725 2.293-1.265 1.889-.936"/><path style="fill:none;fill-opacity:1;stroke:#6187de;stroke-width:1.05833;stroke-linecap:round;stroke-linejoin:round;stroke-miterlimit:5.8;stroke-dasharray:none;stroke-opacity:1;paint-order:markers fill stroke" d="M58.768 34.195c-1.91-1.273.535.334-1.351-.837-.284-.175-.473-.452-.74-.643-.04-.028-.09-.037-.129-.065-.256-.182-.43-.484-.708-.643-.03-.017-.067-.014-.096-.032-.165-.103-.328-.238-.483-.354-.038-.029-.087-.04-.128-.064-.123-.07-.213-.144-.322-.225a2.554 2.554 0 0 0-.354-.226c-.071-.035-.16-.047-.225-.096-.037-.027-.056-.076-.097-.097-.03-.015-.07-.011-.096-.032-.06-.045-.103-.111-.161-.16-.072-.063-.183-.08-.257-.13-.343-.228.184.042-.226-.192-.222-.127.05.111-.225-.129-.097-.085-.198-.166-.29-.257-.037-.038-.058-.091-.096-.13-.038-.037-.09-.058-.128-.096-.038-.037-.057-.093-.097-.128-.047-.041-.111-.058-.16-.097-.154-.119-.304-.26-.451-.386-.157-.134-.25-.297-.386-.45l-.129-.129c-.032-.021-.07-.037-.096-.064-.045-.044-.058-.112-.097-.161l-.193-.225c-.032-.022-.07-.037-.096-.065-.091-.09-.133-.229-.226-.321-.12-.12-.284-.212-.386-.354-.028-.04-.033-.092-.064-.129-.035-.04-.09-.058-.129-.096-.115-.115-.213-.264-.321-.386-.07-.08-.164-.14-.226-.225-.027-.04-.036-.09-.064-.13-.026-.036-.07-.059-.096-.096-.028-.039-.038-.088-.065-.128-.107-.161-.225-.314-.321-.483-.114-.199-.067-.273-.097-.482-.027-.188-.096-.342-.16-.515-.067-.176-.096-.373-.162-.547-.022-.059-.068-.105-.096-.16-.082-.164-.137-.346-.257-.483-.562-.562.031.08-.194-.258-.025-.038-.07-.058-.096-.096-.019-.028-.017-.066-.032-.097-.034-.068-.125-.167-.161-.225-.17-.273.027.014-.097-.257-.024-.053-.16-.267-.193-.354-.116-.32-.257-.718-.257-1.062 0-.413-.262-.616-.547-.9-.129-.13-.232-.284-.386-.386-.106-.071-.266-.09-.386-.13-.15-.05-.483-.257-.611-.353-.084-.063-.141-.162-.225-.225-.039-.029-.092-.033-.129-.065-.04-.034-.056-.093-.096-.128-.13-.112-.419-.217-.58-.258-.1-.025-.58-.011-.675 0-.15.02-.321.15-.483.097-.036-.012-.06-.05-.096-.064-.204-.082-.598-.267-.804-.29-.124-.014-.263.02-.386 0-.14-.023-.278-.044-.418-.064-.055-.008-.161-.087-.161-.032 0 .015.021.021.032.032a14.16 14.16 0 0 1-1.383-.032c-.097-.008-.194.012-.29 0-.044-.006-.085-.028-.129-.033-.053-.005-.108.012-.16 0-.047-.01-.086-.042-.13-.064-.063-.021-.126-.05-.192-.064-.113-.025-.24.019-.354 0-.077-.013-.148-.052-.225-.065-.123-.02-.26 0-.386 0H34.062c-.125 0-.262.016-.386 0-.1 0-.192-.052-.29-.064-.147-.018-.302.015-.45 0-.27-.027-.542-.044-.804-.096-.122-.025-.26 0-.386 0-.284 0-.589-.035-.869 0-.102.012-.182.032-.29.032-1.378 0-2.74.032-4.117.032-.13 0-.227-.018-.354-.032-.03-.004-.245.003-.29 0a9.817 9.817 0 0 1-.643-.065c-.116-.014-.238.017-.354 0-.149-.02-.3-.042-.45-.064-.105-.015-.216.013-.322 0-.297-.037-.63-.066-.933-.032-.054.006-.106.026-.16.032-.149.017-.303-.018-.45 0-.214.027-.43.07-.644.097-.169.02-.345-.016-.515 0-.67.06.1 0-.29.064-.063.01-.129-.01-.192 0-.034.006-.063.029-.097.032-.277.025-.56-.004-.836.032-.098.013-.193.047-.29.065-.072.013-.479.03-.515.032-.36.024-.759.078-1.125.032-.044-.006-.085-.026-.13-.032-.063-.01-.129.01-.192 0-.108-.018-.214-.083-.322-.097-.114-.014-.24.02-.354 0-.138-.023-.276-.05-.418-.064-.085-.009-.173.014-.257 0a5.28 5.28 0 0 0-1.351-.032c-.35.031-.691-.049-1.03.064-.242.08-.512.015-.74.129-.025.013-.07-.013-.096 0-.027.013-.037.05-.064.064-.042.02-.065-.035-.065.032-.075-.053-.138-.13-.225-.16-.099-.036-.625-.011-.74 0-.292.026-.048.022-.257.064-.148.03-.37.048-.515.096-.599.2.156-.048-.257.129-.04.017-.09.011-.129.032-.029.016-.432.278-.482.322-.04.035-.053.097-.097.129-.036.025-.092.007-.129.032-.032.021-.037.069-.064.096-.151.151-.352.253-.515.386-.325.267-.564.649-.9.9-.44.33.203-.233-.258.162-.362.31-.702.65-1.061.965-.04.035-.091.058-.129.096-.091.092-.166.199-.257.29-.081.08-.177.144-.258.225-.017.017-.014.049-.032.064-.059.05-.138.074-.193.13-.034.033-.034.09-.064.128-.015.018-.046.016-.065.032-.057.05-.104.11-.16.16-.062.057-.137.1-.193.162-.042.046-.055.114-.097.16-.044.05-.324.3-.386.354-.04.036-.094.056-.129.097-.03.036-.033.092-.064.129-.035.04-.09.058-.129.096-.154.154-.283.338-.45.483-.115.1-.238.19-.354.29-.16.137-.09.142-.322.32-.057.045-.134.056-.193.097-.05.035-.08.091-.128.129-.202.162-.156.08-.322.225-.401.351.115-.083-.225.257-.296.296.043-.125-.258.226-.025.029-.037.069-.064.096-.163.163-.107.025-.257.225-.202.27.119-.022-.193.29-.038.038-.094.056-.129.096-.041.047-.06.11-.096.161a8.46 8.46 0 0 0-.419.676c-.003.152-.162.184-.225.29-.01.018.01.044 0 .064-.005.01-.024-.008-.032 0-.021.021.043.043.064.064.046.046.033.105.033.16 0 .155-.001.285-.097.419-.08.111-.094.057-.129.16-.035.106-.047.209-.128.29-.043.075-.08.155-.129.226-.035.05-.102.074-.129.128-.01.02.013.047 0 .065-.027.036-.07.06-.096.096-.028.04-.035.09-.064.129-.047.06-.111.104-.161.16-.042.048-.053.117-.097.161-.027.028-.07.036-.096.065-.113.129-.193.282-.29.418-.172.24-.427.414-.611.643-.223.279-.432.568-.708.805a7.752 7.752 0 0 1-1.061.772c-.144.086-.321.151-.45.257-.071.058-.115.147-.194.193-.108.064-.238.08-.354.129-.11.047-.212.112-.321.16-.168.075-.346.122-.515.194-.12.05-.238.102-.354.16-.11.056-.093.091-.225.13-.031.008-.066-.011-.097 0-.118.039-.208.14-.321.192-.24.111-.14.028-.386.097-.115.031-.4.127-.547.193-.08.035-.15.091-.225.128-.024.012-.119.022-.129.032-.034.035.046.065-.032.065"/><path style="fill:none;fill-opacity:1;stroke:#7f7f7f;stroke-width:.15875;stroke-linecap:butt;stroke-linejoin:round;stroke-miterlimit:5.8;stroke-dasharray:.635,.15875;stroke-dashoffset:0;stroke-opacity:1;paint-order:markers fill stroke" d="M38.81 42.908 26.33 36.941M26.258 30.782l3.229-.495-.77-5.558"/><path style="fill:none;fill-opacity:1;stroke:#000;stroke-width:.396875;stroke-linecap:round;stroke-linejoin:round;stroke-miterlimit:5.8;stroke-opacity:1;paint-order:markers fill stroke" d="m22.44 47.37 1.66-4.358 1.609-4.592 1.4-2.724-1.245-6.382"/><path style="fill:none;fill-opacity:1;stroke:#ffdb8e;stroke-width:.79375;stroke-linecap:round;stroke-linejoin:round;stroke-miterlimit:5.8;stroke-dasharray:none;stroke-opacity:1;paint-order:markers fill stroke" d="M79.8 49.594a4.026 4.026 0 0 1-3.698 4.325 4.026 4.026 0 0 1-4.33-3.692 4.026 4.026 0 0 1 3.688-4.335 4.026 4.026 0 0 1 4.339 3.682"/><path style="fill:none;fill-opacity:1;stroke:#ffdb8e;stroke-width:.79375;stroke-linecap:round;stroke-linejoin:round;stroke-miterlimit:5.8;stroke-dasharray:none;stroke-opacity:1;paint-order:markers fill stroke" d="M77.742 57.025c-.182-.341-.302-1.228-.227-1.842.085-.694.397-1.354.75-1.957.474-.808 1.066-1.575 1.798-2.16a5.82 5.82 0 0 1 2.138-1.092c.595-.155 1.242-.2 1.842-.069 2.368.522 6.483 3.299 6.483 3.299M84.27 49.905l-8.461-4.344-2.047-1.32-2.207-2.32-1.66-2.41-1.615-2.48M68.052 52.02l1.911-.59 1.32-1.274.659-1.775-.614-2.502-1.479-3.002-1.524-3.867-.978-2.184"/><path style="fill:none;fill-opacity:1;stroke:#7f7f7f;stroke-width:.15875;stroke-linecap:butt;stroke-linejoin:round;stroke-miterlimit:5.8;stroke-dasharray:.635,.15875;stroke-dashoffset:0;stroke-opacity:1;paint-order:markers fill stroke" d="m59.796 19.794-5.422 9.105 2.283 1.505 1.271.39.882.933 1.375 1.972 2.802-.234 2.75-.934"/><path style="fill:none;fill-opacity:1;stroke:#ffdb8e;stroke-width:1.5875;stroke-linecap:round;stroke-linejoin:round;stroke-miterlimit:5.8;stroke-dasharray:none;stroke-opacity:1;paint-order:markers fill stroke" d="m67.961 37.122-3.389-7.712-5.687-13.102-4.913-11.1-3.048-7.097"/><path style="fill:#d7ffd6;fill-opacity:1;stroke:#66de61;stroke-width:.52900012;stroke-linecap:round;stroke-linejoin:round;stroke-miterlimit:5.8;stroke-dasharray:none;stroke-opacity:1;paint-order:markers fill stroke" d="M89.521 50.922 75.11 43.073l-4.793-5.662-1.48-2.702 15.152-7.56 7.881.258-.546 23.097z"/><path style="fill:none;fill-opacity:1;stroke:#7f7f7f;stroke-width:.15875;stroke-linecap:butt;stroke-linejoin:round;stroke-miterlimit:5.8;stroke-dasharray:.635,.15875;stroke-dashoffset:0;stroke-opacity:1;paint-order:markers fill stroke" d="m33.669 31.718 5.595 1.21-.752 2.972"/><path style="opacity:1;fill:#9986e6;fill-opacity:1;stroke:#492ac7;stroke-width:.396875;stroke-linecap:round;stroke-linejoin:round;stroke-miterlimit:5.8;stroke-dasharray:none;stroke-opacity:1;paint-order:markers fill stroke" d="m29.885 30.186 2.734-.418-.933-4.568 7.013-.161 9.361 2.83-2.927 11.55-4.536-1.288.837-2.96-1.77-.482s-.804 2.976-.997 2.976c-.193 0-2.67-.692-2.67-.692l.9-2.927s-1.479-.547-1.511-.418c-.032.128-1.383 4.536-1.383 4.536l12.256 3.924 4.053-15.537-10.84-3.282-11.099.772z" transform="translate(-4.67 -.934)"/><path style="opacity:1;fill:#9986e6;fill-opacity:1;stroke:#492ac7;stroke-width:.396875;stroke-linecap:round;stroke-linejoin:round;stroke-miterlimit:5.8;stroke-dasharray:none;stroke-opacity:1;paint-order:markers fill stroke" d="m29.885 28.598 2.734-.418-.933-4.568 7.013-.16 9.361 2.83-2.927 11.549-4.536-1.287.837-2.96-1.77-.482s-.804 2.975-.997 2.975c-.193 0-2.67-.691-2.67-.691l.9-2.928s-1.479-.546-1.511-.418c-.032.129-1.383 4.536-1.383 4.536l12.256 3.925 4.053-15.538-10.84-3.281-11.099.772zM34 38.14l.01-1.534 12.2 3.923.013 1.535z" transform="translate(-4.67 -.934)"/><path style="opacity:1;fill:#9986e6;fill-opacity:1;stroke:#492ac7;stroke-width:.396875;stroke-linecap:round;stroke-linejoin:round;stroke-miterlimit:5.8;stroke-dasharray:none;stroke-opacity:1;paint-order:markers fill stroke" d="m46.179 40.517 4.133-15.554.016 1.721-4.037 15.28zM29.912 30.185l.114-1.57-1.65-6.13-.01 1.581zM32.611 29.748l.008-1.552-2.557.386-.033 1.617zM31.688 23.663l6.964-.179L38.644 25l-6.595.193zM36.901 34.075l-.006-1.615-.887 2.923.455.136zM41.428 33.597l-.825 2.946.46.136.444-1.558z" transform="translate(-4.67 -.934)"/><path style="fill:#9986e6;fill-opacity:1;stroke:#492ac7;stroke-width:.405309;stroke-linecap:round;stroke-linejoin:round;stroke-miterlimit:5.8;stroke-dasharray:none;stroke-opacity:1;paint-order:markers fill stroke" transform="matrix(1 0 -.28403 .95882 -4.67 -.934)" d="M42.17 23.296h3.435v2.871H42.17z"/><path style="fill:#9986e6;fill-opacity:1;stroke:#492ac7;stroke-width:.396875;stroke-linecap:round;stroke-linejoin:round;stroke-miterlimit:5.8;stroke-dasharray:none;stroke-opacity:1;paint-order:markers fill stroke" d="m38.147 25.175.858-2.838V26.5l-.882 2.72zM34.77 25.158l-.05 4.128 3.4-.053.021-4.113z" transform="translate(-4.67 -.934)"/><path style="opacity:1;fill:#9986e6;fill-opacity:1;stroke:#492ac7;stroke-width:.405309;stroke-linecap:round;stroke-linejoin:round;stroke-miterlimit:5.8;stroke-dasharray:none;stroke-opacity:1;paint-order:markers fill stroke" transform="matrix(1 0 -.28403 .95882 1.154 2.16)" d="M43.424 27.711h3.435v2.871h-3.435z"/><path style="opacity:1;fill:#9986e6;fill-opacity:1;stroke:#492ac7;stroke-width:.396875;stroke-linecap:round;stroke-linejoin:round;stroke-miterlimit:5.8;stroke-dasharray:none;stroke-opacity:1;paint-order:markers fill stroke" d="m34.713 25.158.007 4.128 3.4-.053.021-4.113z" transform="translate(1.154 2.16)"/><path style="opacity:1;fill:#9986e6;fill-opacity:1;stroke:#492ac7;stroke-width:.405309;stroke-linecap:round;stroke-linejoin:round;stroke-miterlimit:5.8;stroke-dasharray:none;stroke-opacity:1;paint-order:markers fill stroke" transform="matrix(1 0 -.28403 .95882 1.154 2.16)" d="M42.17 23.296h3.435v2.871H42.17z"/><path style="opacity:1;fill:#9986e6;fill-opacity:1;stroke:#492ac7;stroke-width:.396875;stroke-linecap:round;stroke-linejoin:round;stroke-miterlimit:5.8;stroke-dasharray:none;stroke-opacity:1;paint-order:markers fill stroke" d="m38.147 25.175.858-2.838V26.5l-.876 2.798z" transform="translate(1.154 2.16)"/><path style="fill:none;fill-opacity:1;stroke:#000;stroke-width:.396875;stroke-linecap:round;stroke-linejoin:round;stroke-miterlimit:5.8;stroke-opacity:1;paint-order:markers fill stroke" d="m6.557 45.916.16-1.477s-.985-.035-1.444-.192c-.161-.055-.345-.117-.44-.257-.206-.302-.166-1.082-.166-1.082"/><path style="fill:none;fill-opacity:1;stroke:#7f7f7f;stroke-width:.15875;stroke-linecap:butt;stroke-linejoin:round;stroke-miterlimit:5.8;stroke-dasharray:.635,.15875;stroke-dashoffset:0;stroke-opacity:1;paint-order:markers fill stroke" d="m22.773 32.452.183-5.247-2.641-5.686-4.44 1.027-2.678-2.862L11.73 16.2l-.147-3.962 9.649-.147-.074-2.311"/><path style="fill:#86e689;fill-opacity:1;stroke:#2ac72f;stroke-width:.396875;stroke-linecap:round;stroke-linejoin:round;stroke-miterlimit:5.8;stroke-opacity:1;paint-order:markers fill stroke" d="m10.662 39.418-.675.354-.032-2.477 7.141-6.434 4.375 4.633 1.737-1.641-3.281-3.57 3.732-3.41-3.507-3.218L7.478 34.69l.032 7.078 1.705 2.22 3.217-2.639z" transform="translate(-4.67 -.934)"/><path style="fill:#86e689;fill-opacity:1;stroke:#2ac72f;stroke-width:.396875;stroke-linecap:round;stroke-linejoin:round;stroke-miterlimit:5.8;stroke-opacity:1;paint-order:markers fill stroke" d="m19.43 28.718 3.697-3.438.539 1.59-3.289 2.976z" transform="translate(-4.67 -.934)"/><path style="fill:#86e689;fill-opacity:1;stroke:#2ac72f;stroke-width:.396875;stroke-linecap:round;stroke-linejoin:round;stroke-miterlimit:5.8;stroke-opacity:1;paint-order:markers fill stroke" d="m10.133 37.83-.675.355-.032-2.477 7.141-6.434 4.375 4.632 1.737-1.64-3.281-3.571 3.731-3.41-3.506-3.217L6.948 33.102l.033 7.077 1.705 2.22 3.217-2.638z" transform="translate(-4.67 -.934)"/><path style="fill:#86e689;fill-opacity:1;stroke:#2ac72f;stroke-width:.396875;stroke-linecap:round;stroke-linejoin:round;stroke-miterlimit:5.8;stroke-opacity:1;paint-order:markers fill stroke" d="m7.42 41.793-.442-1.609 1.66 2.101.52 1.635zM8.686 42.41l3.212-2.639.537 1.57-3.216 2.61zM9.974 37.205l-.538-1.423 7.147-6.505.456 1.555zM20.948 33.906l1.732-1.628.538 1.563-1.77 1.628z" transform="translate(-4.67 -.934)"/><path style="fill:#86e689;fill-opacity:1;stroke:#2ac72f;stroke-width:.396875;stroke-linecap:round;stroke-linejoin:round;stroke-miterlimit:5.8;stroke-opacity:1;paint-order:markers fill stroke" d="m40.717 47.149 2.417-1.18.587 1.393 2.242-1.078.657 1.335 11.684-5.235-.972-2.322-1.165.608-1.215-2.341-1.141.634-1.125-2.402-1.228.633-.986-2.452 1.32-.77.904 2.583 1.131-.617 1.034 2.439 1.411-.672 1.17 2.32 1.174-.55.99 2.458-1.285.468.369 1.403-11.373 5.21-.689-1.382-2.32 1.088-.574-1.366-2.434 1.182z"/><path style="fill:none;fill-opacity:1;stroke:#7f7f7f;stroke-width:.15875;stroke-linecap:butt;stroke-linejoin:round;stroke-miterlimit:5.8;stroke-dasharray:.635,.15875;stroke-dashoffset:0;stroke-opacity:1;paint-order:markers fill stroke" d="m39.044 42.963 2.274 1.045 4.238 1.1 10.015-4.053-1.082-1.523-1.376.386-.954-2.128-2.2.862-.716-2.055-1.945.79-3.375 7.282"/><path style="fill:none;fill-opacity:1;stroke:#7f7f7f;stroke-width:.15875;stroke-linecap:butt;stroke-linejoin:round;stroke-miterlimit:5.8;stroke-dasharray:.635,.15875;stroke-dashoffset:0;stroke-opacity:1;paint-order:markers fill stroke" d="m47.28 37.478 2.091-3.595 2.385-1.028 2.641-3.962-.843-.734-.844-2.128-.917-1.247-.844-1.54-1.468-2.79-1.687-1.026-1.541 2.128-3.449-1.982-5.283-.477-1.688.918-1.174-.147-8.18-.367-7.852-.587-4.109.22-3.118 1.174-3.412 2.825-3.119 3.742-2.054 3.522L.907 32.82l.328 12.778"/><path style="fill:#86e689;fill-opacity:1;stroke:#2ac72f;stroke-width:.396875;stroke-linecap:round;stroke-linejoin:round;stroke-miterlimit:5.8;stroke-opacity:1;paint-order:markers fill stroke" d="m56.158 35.975 1.2-.668-.033 2.225-1.187.596zM63.039 41.222l1.245-.493-.006 2.134-.928.33zM62.034 38.835l.986 2.387-.772.402-.208-.597zM58.486 37.746l1.122-.617-.052 2.18-1.07.583z" transform="translate(-4.67 -.934)"/><path style="fill:#86e689;fill-opacity:1;stroke:#2ac72f;stroke-width:.396875;stroke-linecap:round;stroke-linejoin:round;stroke-miterlimit:5.8;stroke-opacity:1;paint-order:markers fill stroke" d="m57.377 35.326-.058 2.147 1.16 2.406v-2.192zM55.146 33.575l1.018 2.394-.032 2.16-.992-2.53z" transform="translate(-4.67 -.934)"/><path style="fill:#86e689;fill-opacity:1;stroke:#2ac72f;stroke-width:.396875;stroke-linecap:round;stroke-linejoin:round;stroke-miterlimit:5.8;stroke-opacity:1;paint-order:markers fill stroke" d="m45.387 45.966 2.417-1.18.587 1.394 2.242-1.08.656 1.336 11.684-5.235-.971-2.322-1.165.608-1.216-2.341-1.14.634-1.125-2.402-1.229.633-.986-2.452 1.321-.77.904 2.583 1.13-.617 1.034 2.439 1.412-.671 1.17 2.32 1.174-.551.99 2.458-1.285.468.368 1.403-11.373 5.21-.688-1.382-2.32 1.088-.574-1.366-2.435 1.183zM45.386 48.085l.001-2.101.593 1.402-.024 2.04z" transform="translate(-4.67 -.934)"/><path style="fill:#86e689;fill-opacity:1;stroke:#2ac72f;stroke-width:.396875;stroke-linecap:round;stroke-linejoin:round;stroke-miterlimit:5.8;stroke-opacity:1;paint-order:markers fill stroke" d="m45.995 47.338 2.406-1.155.02 2.07-2.426 1.18z" transform="translate(-4.67 -.934)"/><path style="fill:#86e689;fill-opacity:1;stroke:#2ac72f;stroke-width:.396875;stroke-linecap:round;stroke-linejoin:round;stroke-miterlimit:5.8;stroke-opacity:1;paint-order:markers fill stroke" d="m48.375 46.118.072 2.205.544 1.291-.026-2.12z" transform="translate(-4.67 -.934)"/><path style="fill:#86e689;fill-opacity:1;stroke:#2ac72f;stroke-width:.396875;stroke-linecap:round;stroke-linejoin:round;stroke-miterlimit:5.8;stroke-opacity:1;paint-order:markers fill stroke" d="m48.972 47.526 2.348-1.11-.085 2.121-2.25 1.096z" transform="translate(-4.67 -.934)"/><path style="fill:#86e689;fill-opacity:1;stroke:#2ac72f;stroke-width:.396875;stroke-linecap:round;stroke-linejoin:round;stroke-miterlimit:5.8;stroke-opacity:1;paint-order:markers fill stroke" d="m51.307 46.514.687 1.355-.006 2.056-.681-1.4z" transform="translate(-4.67 -.934)"/><path style="fill:#86e689;fill-opacity:1;stroke:#2ac72f;stroke-width:.396875;stroke-linecap:round;stroke-linejoin:round;stroke-miterlimit:5.8;stroke-opacity:1;paint-order:markers fill stroke" d="m51.994 47.805 11.363-5.176v2.088L51.98 49.932zM62.034 41.014l-1.168.552.007-2.082 1.226-.668zM60.84 41.637l-1.27-2.413.032-2.05 1.251 2.336z" transform="translate(-4.67 -.934)"/><path style="fill:none;fill-opacity:1;stroke:#7f7f7f;stroke-width:.15875;stroke-linecap:butt;stroke-linejoin:round;stroke-miterlimit:5.8;stroke-dasharray:.635,.15875;stroke-dashoffset:0;stroke-opacity:1;paint-order:markers fill stroke" d="m14.738 34.36.312 1.889M10.28 37.643l1.45-.018"/><path style="fill:none;fill-opacity:1;stroke:#000;stroke-width:.396875;stroke-linecap:round;stroke-linejoin:round;stroke-miterlimit:5.8;stroke-opacity:1;paint-order:markers fill stroke" d="M25.56 38.542 19.178 37s-4.472-1.017-6.658-.587c-.21.041-.464.108-.57.293-.39.688-.12 1.623.148 2.367.074.206.385.532.385.532"/><path style="fill:none;fill-opacity:1;stroke:#7f7f7f;stroke-width:.15875;stroke-linecap:butt;stroke-linejoin:round;stroke-miterlimit:5.8;stroke-dasharray:.635,.15875;stroke-dashoffset:0;stroke-opacity:1;paint-order:markers fill stroke" d="m9.253 41.697 5.485-.294"/><path style="fill:none;fill-opacity:1;stroke:#000;stroke-width:.396875;stroke-linecap:round;stroke-linejoin:round;stroke-miterlimit:5.8;stroke-opacity:1;paint-order:markers fill stroke" d="m14.812 41.477 1.687.23.193.183.082.183-.44 4.54M20.489 45.237c.578.01 2.586.349 2.586.349M35.618 48.667l4.333-7.471"/><path style="fill:none;fill-opacity:1;stroke:#ffdb8e;stroke-width:.79375;stroke-linecap:round;stroke-linejoin:round;stroke-miterlimit:5.8;stroke-dasharray:none;stroke-opacity:1;paint-order:markers fill stroke" d="m-4.306 45.379 21.655 1.547 34.212 3.457 17.105 1.729 4.163.978s1.978.554 2.661 1.115c1.574 1.29 3.276 4.913 3.276 4.913"/><path style="fill:none;fill-opacity:1;stroke:#000;stroke-width:.396875;stroke-linecap:round;stroke-linejoin:round;stroke-miterlimit:5.8;stroke-opacity:1;paint-order:markers fill stroke" d="M6.768 44.44s1.053.213 1.559.091a.82.82 0 0 0 .376-.22.87.87 0 0 0 .211-.358c.354-1.154.23-3.613.23-3.613l.706-.77s.455-1.426.339-2.138c-.028-.17-.14-.317-.239-.459-.523-.754-1.843-2.045-1.843-2.045l-1.67 1.477"/><path style="fill:none;fill-opacity:1;stroke:#000;stroke-width:.396875;stroke-linecap:round;stroke-linejoin:round;stroke-miterlimit:5.8;stroke-opacity:1;paint-order:markers fill stroke" d="m8.107 34.956 1.275-.973 6.292.34M24.152 43.064s2.144.983 3.269 1.323c.802.242 1.64.355 2.464.506.108.02.22.086.324.051.137-.045.211-.197.299-.31.313-.406.696-.81.804-1.31a.62.62 0 0 0-.039-.312.916.916 0 0 0-.195-.363c-1.01-1.047-3.774-2.192-3.774-2.192l-1.518 3.268"/><path style="fill:none;fill-opacity:1;stroke:#7f7f7f;stroke-width:.15875;stroke-linecap:butt;stroke-linejoin:round;stroke-miterlimit:5.8;stroke-dasharray:.635,.15875;stroke-dashoffset:0;stroke-opacity:1;paint-order:markers fill stroke" d="m29.487 30.269 4.53-.147 1.963-4.953M33.962 30.104l-.642 4.182M39.282 32.984l.972-.367 1.45-5.136M14.903 35.442l4.861.367"/><g><path style="fill:#86e689;fill-opacity:1;stroke:#2ac72f;stroke-width:.15875;stroke-linecap:butt;stroke-linejoin:round;stroke-miterlimit:5.8;stroke-dasharray:.635,.15875;stroke-dashoffset:0;stroke-opacity:1;paint-order:markers fill stroke" d="M24.067 41.163h18.857v8.365H24.067z" transform="matrix(.40029 0 0 .40029 7.19 -11.393)"/><path style="fill:#86e689;fill-opacity:1;stroke:#2ac72f;stroke-width:1.47592;stroke-linecap:round;stroke-linejoin:round;stroke-miterlimit:5.8;stroke-dasharray:none;stroke-opacity:1;paint-order:markers fill stroke" d="M42.588 49.624a9.059 2.242 0 0 1-8.25 2.407 9.059 2.242 0 0 1-9.8-2.02 9.059 2.242 0 0 1 8.074-2.444 9.059 2.242 0 0 1 9.944 1.976" transform="matrix(.40029 0 0 .40029 7.19 -11.393)"/><path style="fill:#86e689;fill-opacity:1;stroke:#2ac72f;stroke-width:1.4802;stroke-linecap:round;stroke-linejoin:round;stroke-miterlimit:5.8;stroke-dasharray:none;stroke-opacity:1;paint-order:markers fill stroke" d="m24.325 41.807-7.862-3.788 16.985-7.807 17.13 7.915-7.513 3.545" transform="matrix(.40029 0 0 .40029 7.19 -11.393)"/><path style="fill:#86e689;fill-opacity:1;stroke:#2ac72f;stroke-width:1.47592;stroke-linecap:round;stroke-linejoin:round;stroke-miterlimit:5.8;stroke-dasharray:none;stroke-opacity:1;paint-order:markers fill stroke" d="M24.582 39.866a9.059 2.242 0 0 1 9.36-2.09 9.059 2.242 0 0 1 8.736 2.25" transform="matrix(.40029 0 0 .40029 7.19 -11.393)"/><path style="fill:#86e689;fill-opacity:1;stroke:#2ac72f;stroke-width:1.4802;stroke-linecap:round;stroke-linejoin:round;stroke-miterlimit:5.8;stroke-dasharray:none;stroke-opacity:1;paint-order:markers fill stroke" d="m24.563 40.026-.063 9.692M42.708 40.185l-.064 9.66M19.848 39.81l.045 8.426-1.775.876-.067 3.663 3.685-.068V49.09l-1.82-1.012" transform="matrix(.40029 0 0 .40029 7.19 -11.393)"/></g><path style="fill:none;fill-opacity:1;stroke:#7f7f7f;stroke-width:.15875;stroke-linecap:butt;stroke-linejoin:round;stroke-miterlimit:5.8;stroke-dasharray:.635,.15875;stroke-dashoffset:0;stroke-opacity:1;paint-order:markers fill stroke" d="m-4.743 12.714 16.343-.43-.127-14.355M49.481-1.3s9.392 20.654 9.98 21.902l9.318 22.012 2.054 5.21-.477 1.43-1.1 1.028-1.578.807-3.338-.037"/><g transform="matrix(.27614 0 0 .27614 42.027 .937)" style="fill:#6187de;fill-opacity:1;stroke:#0a3db0;stroke-opacity:1"><rect style="opacity:1;fill:#6187de;fill-opacity:1;stroke:#0a3db0;stroke-width:1.058;stroke-linecap:round;stroke-linejoin:round;stroke-miterlimit:5.8;stroke-opacity:1;paint-order:markers fill stroke" width="21.493" height="22.584" x="8.89" y="5.907" rx="1.028" ry="1.106"/><rect style="opacity:1;fill:#6187de;fill-opacity:1;stroke:#0a3db0;stroke-width:.969968;stroke-linecap:round;stroke-linejoin:round;stroke-miterlimit:5.8;stroke-opacity:1;paint-order:markers fill stroke" width="1.997" height="7.177" x="6.908" y="10.135" rx="0" ry=".473"/><rect style="opacity:1;fill:#6187de;fill-opacity:1;stroke:#0a3db0;stroke-width:.969968;stroke-linecap:round;stroke-linejoin:round;stroke-miterlimit:5.8;stroke-opacity:1;paint-order:markers fill stroke" width="1.997" height="7.177" x="30.357" y="10.135" rx="0" ry=".473"/><path style="opacity:1;fill:#6187de;fill-opacity:1;stroke:#0a3db0;stroke-width:1.058;stroke-linecap:round;stroke-linejoin:round;stroke-miterlimit:5.8;stroke-opacity:1;paint-order:markers fill stroke" d="m8.952 10.315 21.448-.09M14.86 7.998l9.587.045M8.952 21.357l21.266-.045M14.764 24.838a1.409 1.409 0 0 1-1.252 1.51 1.409 1.409 0 0 1-1.547-1.206 1.409 1.409 0 0 1 1.156-1.583 1.409 1.409 0 0 1 1.619 1.107M27.464 24.838a1.409 1.409 0 0 1-1.252 1.51 1.409 1.409 0 0 1-1.547-1.206 1.409 1.409 0 0 1 1.156-1.583 1.409 1.409 0 0 1 1.619 1.107M17.54 24.947h4.317"/><rect style="opacity:1;fill:#6187de;fill-opacity:1;stroke:#0a3db0;stroke-width:1.058;stroke-linecap:round;stroke-linejoin:round;stroke-miterlimit:5.8;stroke-opacity:1;paint-order:markers fill stroke" width="4.59" height="2.954" x="10.27" y="28.446" rx="1.028" ry=".515"/><rect style="opacity:1;fill:#6187de;fill-opacity:1;stroke:#0a3db0;stroke-width:1.058;stroke-linecap:round;stroke-linejoin:round;stroke-miterlimit:5.8;stroke-opacity:1;paint-order:markers fill stroke" width="4.59" height="2.954" x="24.557" y="28.446" rx="1.028" ry=".515"/></g><g transform="matrix(.11004 0 0 .11004 16.981 44.07)" style="fill:#6187de;fill-opacity:1;stroke:#0a3db0;stroke-opacity:1"><rect style="opacity:1;fill:#6187de;fill-opacity:1;stroke:#0a3db0;stroke-width:1.058;stroke-linecap:round;stroke-linejoin:round;stroke-miterlimit:5.8;stroke-opacity:1;paint-order:markers fill stroke" width="21.493" height="22.584" x="8.89" y="5.907" rx="1.028" ry="1.106"/><rect style="opacity:1;fill:#6187de;fill-opacity:1;stroke:#0a3db0;stroke-width:.969968;stroke-linecap:round;stroke-linejoin:round;stroke-miterlimit:5.8;stroke-opacity:1;paint-order:markers fill stroke" width="1.997" height="7.177" x="6.908" y="10.135" rx="0" ry=".473"/><rect style="opacity:1;fill:#6187de;fill-opacity:1;stroke:#0a3db0;stroke-width:.969968;stroke-linecap:round;stroke-linejoin:round;stroke-miterlimit:5.8;stroke-opacity:1;paint-order:markers fill stroke" width="1.997" height="7.177" x="30.357" y="10.135" rx="0" ry=".473"/><path style="opacity:1;fill:#6187de;fill-opacity:1;stroke:#0a3db0;stroke-width:1.058;stroke-linecap:round;stroke-linejoin:round;stroke-miterlimit:5.8;stroke-opacity:1;paint-order:markers fill stroke" d="m8.952 10.315 21.448-.09M14.86 7.998l9.587.045M8.952 21.357l21.266-.045M14.764 24.838a1.409 1.409 0 0 1-1.252 1.51 1.409 1.409 0 0 1-1.547-1.206 1.409 1.409 0 0 1 1.156-1.583 1.409 1.409 0 0 1 1.619 1.107M27.464 24.838a1.409 1.409 0 0 1-1.252 1.51 1.409 1.409 0 0 1-1.547-1.206 1.409 1.409 0 0 1 1.156-1.583 1.409 1.409 0 0 1 1.619 1.107M17.54 24.947h4.317"/><rect style="opacity:1;fill:#6187de;fill-opacity:1;stroke:#0a3db0;stroke-width:1.058;stroke-linecap:round;stroke-linejoin:round;stroke-miterlimit:5.8;stroke-opacity:1;paint-order:markers fill stroke" width="4.59" height="2.954" x="10.27" y="28.446" rx="1.028" ry=".515"/><rect style="opacity:1;fill:#6187de;fill-opacity:1;stroke:#0a3db0;stroke-width:1.058;stroke-linecap:round;stroke-linejoin:round;stroke-miterlimit:5.8;stroke-opacity:1;paint-order:markers fill stroke" width="4.59" height="2.954" x="24.557" y="28.446" rx="1.028" ry=".515"/></g><g transform="matrix(.11004 0 0 .11004 -.244 44.38)" style="fill:#6187de;fill-opacity:1;stroke:#0a3db0;stroke-opacity:1"><rect style="opacity:1;fill:#6187de;fill-opacity:1;stroke:#0a3db0;stroke-width:1.058;stroke-linecap:round;stroke-linejoin:round;stroke-miterlimit:5.8;stroke-opacity:1;paint-order:markers fill stroke" width="21.493" height="22.584" x="8.89" y="5.907" rx="1.028" ry="1.106"/><rect style="opacity:1;fill:#6187de;fill-opacity:1;stroke:#0a3db0;stroke-width:.969968;stroke-linecap:round;stroke-linejoin:round;stroke-miterlimit:5.8;stroke-opacity:1;paint-order:markers fill stroke" width="1.997" height="7.177" x="6.908" y="10.135" rx="0" ry=".473"/><rect style="opacity:1;fill:#6187de;fill-opacity:1;stroke:#0a3db0;stroke-width:.969968;stroke-linecap:round;stroke-linejoin:round;stroke-miterlimit:5.8;stroke-opacity:1;paint-order:markers fill stroke" width="1.997" height="7.177" x="30.357" y="10.135" rx="0" ry=".473"/><path style="opacity:1;fill:#6187de;fill-opacity:1;stroke:#0a3db0;stroke-width:1.058;stroke-linecap:round;stroke-linejoin:round;stroke-miterlimit:5.8;stroke-opacity:1;paint-order:markers fill stroke" d="m8.952 10.315 21.448-.09M14.86 7.998l9.587.045M8.952 21.357l21.266-.045M14.764 24.838a1.409 1.409 0 0 1-1.252 1.51 1.409 1.409 0 0 1-1.547-1.206 1.409 1.409 0 0 1 1.156-1.583 1.409 1.409 0 0 1 1.619 1.107M27.464 24.838a1.409 1.409 0 0 1-1.252 1.51 1.409 1.409 0 0 1-1.547-1.206 1.409 1.409 0 0 1 1.156-1.583 1.409 1.409 0 0 1 1.619 1.107M17.54 24.947h4.317"/><rect style="opacity:1;fill:#6187de;fill-opacity:1;stroke:#0a3db0;stroke-width:1.058;stroke-linecap:round;stroke-linejoin:round;stroke-miterlimit:5.8;stroke-opacity:1;paint-order:markers fill stroke" width="4.59" height="2.954" x="10.27" y="28.446" rx="1.028" ry=".515"/><rect style="opacity:1;fill:#6187de;fill-opacity:1;stroke:#0a3db0;stroke-width:1.058;stroke-linecap:round;stroke-linejoin:round;stroke-miterlimit:5.8;stroke-opacity:1;paint-order:markers fill stroke" width="4.59" height="2.954" x="24.557" y="28.446" rx="1.028" ry=".515"/></g><g transform="matrix(.11004 0 0 .11004 62.743 48.947)" style="fill:#6187de;fill-opacity:1;stroke:#0a3db0;stroke-opacity:1"><rect style="opacity:1;fill:#6187de;fill-opacity:1;stroke:#0a3db0;stroke-width:1.058;stroke-linecap:round;stroke-linejoin:round;stroke-miterlimit:5.8;stroke-opacity:1;paint-order:markers fill stroke" width="21.493" height="22.584" x="8.89" y="5.907" rx="1.028" ry="1.106"/><rect style="opacity:1;fill:#6187de;fill-opacity:1;stroke:#0a3db0;stroke-width:.969968;stroke-linecap:round;stroke-linejoin:round;stroke-miterlimit:5.8;stroke-opacity:1;paint-order:markers fill stroke" width="1.997" height="7.177" x="6.908" y="10.135" rx="0" ry=".473"/><rect style="opacity:1;fill:#6187de;fill-opacity:1;stroke:#0a3db0;stroke-width:.969968;stroke-linecap:round;stroke-linejoin:round;stroke-miterlimit:5.8;stroke-opacity:1;paint-order:markers fill stroke" width="1.997" height="7.177" x="30.357" y="10.135" rx="0" ry=".473"/><path style="opacity:1;fill:#6187de;fill-opacity:1;stroke:#0a3db0;stroke-width:1.058;stroke-linecap:round;stroke-linejoin:round;stroke-miterlimit:5.8;stroke-opacity:1;paint-order:markers fill stroke" d="m8.952 10.315 21.448-.09M14.86 7.998l9.587.045M8.952 21.357l21.266-.045M14.764 24.838a1.409 1.409 0 0 1-1.252 1.51 1.409 1.409 0 0 1-1.547-1.206 1.409 1.409 0 0 1 1.156-1.583 1.409 1.409 0 0 1 1.619 1.107M27.464 24.838a1.409 1.409 0 0 1-1.252 1.51 1.409 1.409 0 0 1-1.547-1.206 1.409 1.409 0 0 1 1.156-1.583 1.409 1.409 0 0 1 1.619 1.107M17.54 24.947h4.317"/><rect style="opacity:1;fill:#6187de;fill-opacity:1;stroke:#0a3db0;stroke-width:1.058;stroke-linecap:round;stroke-linejoin:round;stroke-miterlimit:5.8;stroke-opacity:1;paint-order:markers fill stroke" width="4.59" height="2.954" x="10.27" y="28.446" rx="1.028" ry=".515"/><rect style="opacity:1;fill:#6187de;fill-opacity:1;stroke:#0a3db0;stroke-width:1.058;stroke-linecap:round;stroke-linejoin:round;stroke-miterlimit:5.8;stroke-opacity:1;paint-order:markers fill stroke" width="4.59" height="2.954" x="24.557" y="28.446" rx="1.028" ry=".515"/></g><g transform="matrix(.11004 0 0 .11004 68.356 36.253)" style="fill:#6187de;fill-opacity:1;stroke:#0a3db0;stroke-opacity:1"><rect style="opacity:1;fill:#6187de;fill-opacity:1;stroke:#0a3db0;stroke-width:1.058;stroke-linecap:round;stroke-linejoin:round;stroke-miterlimit:5.8;stroke-opacity:1;paint-order:markers fill stroke" width="21.493" height="22.584" x="8.89" y="5.907" rx="1.028" ry="1.106"/><rect style="opacity:1;fill:#6187de;fill-opacity:1;stroke:#0a3db0;stroke-width:.969968;stroke-linecap:round;stroke-linejoin:round;stroke-miterlimit:5.8;stroke-opacity:1;paint-order:markers fill stroke" width="1.997" height="7.177" x="6.908" y="10.135" rx="0" ry=".473"/><rect style="opacity:1;fill:#6187de;fill-opacity:1;stroke:#0a3db0;stroke-width:.969968;stroke-linecap:round;stroke-linejoin:round;stroke-miterlimit:5.8;stroke-opacity:1;paint-order:markers fill stroke" width="1.997" height="7.177" x="30.357" y="10.135" rx="0" ry=".473"/><path style="opacity:1;fill:#6187de;fill-opacity:1;stroke:#0a3db0;stroke-width:1.058;stroke-linecap:round;stroke-linejoin:round;stroke-miterlimit:5.8;stroke-opacity:1;paint-order:markers fill stroke" d="m8.952 10.315 21.448-.09M14.86 7.998l9.587.045M8.952 21.357l21.266-.045M14.764 24.838a1.409 1.409 0 0 1-1.252 1.51 1.409 1.409 0 0 1-1.547-1.206 1.409 1.409 0 0 1 1.156-1.583 1.409 1.409 0 0 1 1.619 1.107M27.464 24.838a1.409 1.409 0 0 1-1.252 1.51 1.409 1.409 0 0 1-1.547-1.206 1.409 1.409 0 0 1 1.156-1.583 1.409 1.409 0 0 1 1.619 1.107M17.54 24.947h4.317"/><rect style="opacity:1;fill:#6187de;fill-opacity:1;stroke:#0a3db0;stroke-width:1.058;stroke-linecap:round;stroke-linejoin:round;stroke-miterlimit:5.8;stroke-opacity:1;paint-order:markers fill stroke" width="4.59" height="2.954" x="10.27" y="28.446" rx="1.028" ry=".515"/><rect style="opacity:1;fill:#6187de;fill-opacity:1;stroke:#0a3db0;stroke-width:1.058;stroke-linecap:round;stroke-linejoin:round;stroke-miterlimit:5.8;stroke-opacity:1;paint-order:markers fill stroke" width="4.59" height="2.954" x="24.557" y="28.446" rx="1.028" ry=".515"/></g><g transform="matrix(.11004 0 0 .11004 83.508 49.057)" style="fill:#6187de;fill-opacity:1;stroke:#0a3db0;stroke-opacity:1"><rect style="opacity:1;fill:#6187de;fill-opacity:1;stroke:#0a3db0;stroke-width:1.058;stroke-linecap:round;stroke-linejoin:round;stroke-miterlimit:5.8;stroke-opacity:1;paint-order:markers fill stroke" width="21.493" height="22.584" x="8.89" y="5.907" rx="1.028" ry="1.106"/><rect style="opacity:1;fill:#6187de;fill-opacity:1;stroke:#0a3db0;stroke-width:.969968;stroke-linecap:round;stroke-linejoin:round;stroke-miterlimit:5.8;stroke-opacity:1;paint-order:markers fill stroke" width="1.997" height="7.177" x="6.908" y="10.135" rx="0" ry=".473"/><rect style="opacity:1;fill:#6187de;fill-opacity:1;stroke:#0a3db0;stroke-width:.969968;stroke-linecap:round;stroke-linejoin:round;stroke-miterlimit:5.8;stroke-opacity:1;paint-order:markers fill stroke" width="1.997" height="7.177" x="30.357" y="10.135" rx="0" ry=".473"/><path style="opacity:1;fill:#6187de;fill-opacity:1;stroke:#0a3db0;stroke-width:1.058;stroke-linecap:round;stroke-linejoin:round;stroke-miterlimit:5.8;stroke-opacity:1;paint-order:markers fill stroke" d="m8.952 10.315 21.448-.09M14.86 7.998l9.587.045M8.952 21.357l21.266-.045M14.764 24.838a1.409 1.409 0 0 1-1.252 1.51 1.409 1.409 0 0 1-1.547-1.206 1.409 1.409 0 0 1 1.156-1.583 1.409 1.409 0 0 1 1.619 1.107M27.464 24.838a1.409 1.409 0 0 1-1.252 1.51 1.409 1.409 0 0 1-1.547-1.206 1.409 1.409 0 0 1 1.156-1.583 1.409 1.409 0 0 1 1.619 1.107M17.54 24.947h4.317"/><rect style="opacity:1;fill:#6187de;fill-opacity:1;stroke:#0a3db0;stroke-width:1.058;stroke-linecap:round;stroke-linejoin:round;stroke-miterlimit:5.8;stroke-opacity:1;paint-order:markers fill stroke" width="4.59" height="2.954" x="10.27" y="28.446" rx="1.028" ry=".515"/><rect style="opacity:1;fill:#6187de;fill-opacity:1;stroke:#0a3db0;stroke-width:1.058;stroke-linecap:round;stroke-linejoin:round;stroke-miterlimit:5.8;stroke-opacity:1;paint-order:markers fill stroke" width="4.59" height="2.954" x="24.557" y="28.446" rx="1.028" ry=".515"/></g><path style="fill:none;fill-opacity:1;stroke:#7f7f7f;stroke-width:.15875;stroke-linecap:butt;stroke-linejoin:round;stroke-miterlimit:5.8;stroke-dasharray:.635,.15875;stroke-dashoffset:0;stroke-opacity:1;paint-order:markers fill stroke" d="m21.158 12.164 7.558-.844-.33-12.768"/><path style="fill:none;fill-opacity:1;stroke:#7f7f7f;stroke-width:.15875;stroke-linecap:butt;stroke-linejoin:round;stroke-miterlimit:5.8;stroke-dasharray:.635,.15875;stroke-dashoffset:0;stroke-opacity:1;paint-order:markers fill stroke" d="m28.606 11.21.33 4.659 8.145.11 1.394.147s2.458.293 2.605.22c.147-.073 4.439.367 4.439.367l4.402 3.045 1.798 3.192 4.88 2.274M63.533 33.075l.036-1.43-1.32-1.028-3.302-9.355M65.037 32.782l2.274-.917L57.26 9.008 52.013-2.695M42.474 4.46l.183 6.42 4.403 2.164M45.702 16.75l1.321-3.596 7.154-4.182"/><g style="fill:#86e689;fill-opacity:1;stroke:#2ac72f;stroke-opacity:1"><path style="opacity:1;fill:#86e689;fill-opacity:1;stroke:#2ac72f;stroke-width:1.05833;stroke-linecap:round;stroke-linejoin:round;stroke-miterlimit:5.8;stroke-opacity:1;paint-order:markers fill stroke" d="m11.815 10.679 1.59.045c.568.016.627.49.682.818l1.772 10.678c.194 1.174 1.024 1.908 2.213 1.903l9.556-.04c.518-.002 1.633-.022 1.863-1.408l1.181-7.134c.105-.63-.026-1.498-.772-1.5l-15.404-.045" transform="matrix(.38096 0 0 .38096 27.925 2.612)"/><path style="opacity:1;fill:#86e689;fill-opacity:1;stroke:#2ac72f;stroke-width:.813541;stroke-linecap:round;stroke-linejoin:round;stroke-miterlimit:5.8;stroke-opacity:1;paint-order:markers fill stroke" d="M20.672 27.853a1.692 1.729 0 0 1-1.504 1.852 1.692 1.729 0 0 1-1.859-1.479 1.692 1.729 0 0 1 1.39-1.944 1.692 1.729 0 0 1 1.944 1.36M27.326 27.853a1.692 1.729 0 0 1-1.504 1.852 1.692 1.729 0 0 1-1.859-1.479 1.692 1.729 0 0 1 1.39-1.944 1.692 1.729 0 0 1 1.944 1.36" transform="matrix(.38096 0 0 .38096 27.925 2.612)"/></g><path style="fill:#d7ffd6;fill-opacity:1;stroke:#6de069;stroke-width:.52900012;stroke-linecap:butt;stroke-linejoin:round;stroke-miterlimit:5.8;stroke-dasharray:none;stroke-dashoffset:0;stroke-opacity:1;paint-order:markers fill stroke" d="m54.077-1.394 13.868 32.578 17.317-9.172s-6.457-26.341-6.75-26.341c-.294 0-24.435 2.935-24.435 2.935z"/></svg>